<svg xmlns="http://www.w3.org/2000/svg" xmlns:xlink="http://www.w3.org/1999/xlink" width="1000" zoomAndPan="magnify" viewBox="0 0 750 749.999995" height="1000" preserveAspectRatio="xMidYMid meet" version="1.0"><defs><clipPath id="c990c3156e"><path d="M 67 37 L 734.574219 37 L 734.574219 705 L 67 705 Z M 67 37 " clip-rule="nonzero"/></clipPath></defs><g clip-path="url(#c990c3156e)"><path fill="#000000" d="M 734.855469 371.34375 C 734.851562 366.570312 734.746094 361.804688 734.539062 357.039062 C 734.332031 352.273438 734.023438 347.511719 733.613281 342.761719 C 733.199219 338.007812 732.6875 333.265625 732.074219 328.535156 C 731.460938 323.804688 730.746094 319.089844 729.929688 314.390625 C 729.113281 309.691406 728.195312 305.011719 727.179688 300.351562 C 726.164062 295.6875 725.046875 291.050781 723.832031 286.4375 C 722.621094 281.828125 721.304688 277.242188 719.894531 272.683594 C 718.484375 268.128906 716.976562 263.605469 715.371094 259.113281 C 713.765625 254.621094 712.066406 250.164062 710.269531 245.746094 C 708.476562 241.328125 706.585938 236.949219 704.605469 232.609375 C 702.621094 228.269531 700.546875 223.976562 698.378906 219.726562 C 696.210938 215.476562 693.957031 211.277344 691.609375 207.125 C 689.261719 202.972656 686.828125 198.871094 684.304688 194.824219 C 681.785156 190.773438 679.175781 186.78125 676.484375 182.84375 C 673.789062 178.910156 671.015625 175.03125 668.15625 171.214844 C 665.296875 167.394531 662.359375 163.640625 659.335938 159.949219 C 656.316406 156.257812 653.21875 152.632812 650.046875 149.074219 C 646.871094 145.515625 643.621094 142.023438 640.296875 138.605469 C 636.972656 135.183594 633.578125 131.839844 630.109375 128.5625 C 626.640625 125.289062 623.105469 122.089844 619.5 118.96875 C 615.894531 115.84375 612.226562 112.800781 608.492188 109.835938 C 604.757812 106.867188 600.960938 103.984375 597.101562 101.183594 C 593.242188 98.378906 589.328125 95.660156 585.351562 93.023438 C 581.378906 90.390625 577.347656 87.839844 573.265625 85.378906 C 569.179688 82.914062 565.046875 80.539062 560.859375 78.253906 C 556.675781 75.96875 552.441406 73.773438 548.164062 71.671875 C 543.882812 69.566406 539.5625 67.554688 535.195312 65.636719 C 530.828125 63.71875 526.425781 61.894531 521.980469 60.164062 C 517.539062 58.433594 513.058594 56.796875 508.546875 55.261719 C 504.03125 53.722656 499.488281 52.28125 494.914062 50.9375 C 490.335938 49.59375 485.734375 48.347656 481.105469 47.203125 C 476.476562 46.054688 471.828125 45.007812 467.152344 44.0625 C 462.480469 43.113281 457.789062 42.265625 453.078125 41.519531 C 448.371094 40.773438 443.644531 40.128906 438.910156 39.585938 C 434.171875 39.042969 429.425781 38.601562 424.667969 38.257812 C 419.910156 37.917969 415.152344 37.679688 410.382812 37.542969 C 405.617188 37.40625 400.851562 37.371094 396.082031 37.441406 C 391.316406 37.507812 386.550781 37.679688 381.789062 37.949219 C 377.03125 38.222656 372.277344 38.59375 367.53125 39.070312 C 362.789062 39.546875 358.054688 40.125 353.335938 40.800781 C 348.617188 41.480469 343.910156 42.257812 339.226562 43.136719 C 334.539062 44.019531 329.875 44.996094 325.230469 46.078125 C 320.582031 47.15625 315.964844 48.335938 311.371094 49.613281 C 306.777344 50.890625 302.210938 52.265625 297.675781 53.738281 C 293.140625 55.210938 288.640625 56.78125 284.171875 58.445312 C 279.703125 60.113281 275.273438 61.875 270.878906 63.730469 C 266.488281 65.585938 262.136719 67.535156 257.828125 69.578125 C 253.515625 71.617188 249.253906 73.753906 245.035156 75.976562 C 240.816406 78.203125 236.648438 80.515625 232.53125 82.917969 C 228.410156 85.324219 224.34375 87.8125 220.332031 90.390625 C 216.320312 92.96875 212.367188 95.628906 208.46875 98.378906 C 204.570312 101.125 200.730469 103.953125 196.953125 106.867188 C 193.175781 109.777344 189.464844 112.769531 185.8125 115.839844 C 182.164062 118.910156 178.582031 122.054688 175.070312 125.28125 C 171.554688 128.503906 168.109375 131.800781 164.738281 135.175781 C 161.363281 138.546875 158.0625 141.988281 154.839844 145.5 C 151.613281 149.011719 148.464844 152.59375 145.390625 156.242188 C 142.316406 159.890625 139.324219 163.601562 136.410156 167.378906 C 133.496094 171.152344 130.664062 174.992188 127.914062 178.886719 C 125.167969 182.785156 122.5 186.738281 119.921875 190.75 C 117.339844 194.761719 114.847656 198.828125 112.441406 202.945312 C 110.035156 207.066406 107.71875 211.234375 105.492188 215.449219 C 103.261719 219.667969 101.125 223.929688 99.082031 228.242188 C 97.035156 232.550781 95.085938 236.902344 93.226562 241.292969 C 91.113281 246.328125 89.121094 251.414062 87.257812 256.546875 C 85.394531 261.679688 83.65625 266.855469 82.042969 272.074219 C 80.433594 277.289062 78.953125 282.546875 77.597656 287.835938 C 76.246094 293.125 75.023438 298.449219 73.929688 303.796875 C 72.835938 309.148438 71.875 314.523438 71.046875 319.921875 C 70.21875 325.320312 69.519531 330.734375 68.957031 336.167969 C 68.394531 341.597656 67.960938 347.042969 67.664062 352.496094 C 67.367188 357.949219 67.203125 363.40625 67.175781 368.867188 C 67.144531 374.328125 67.25 379.785156 67.488281 385.242188 C 67.726562 390.699219 68.097656 396.144531 68.601562 401.582031 C 69.105469 407.019531 69.746094 412.441406 70.515625 417.851562 C 71.285156 423.257812 72.1875 428.640625 73.222656 434.003906 C 74.257812 439.367188 75.421875 444.699219 76.71875 450.003906 C 78.015625 455.308594 79.441406 460.578125 80.992188 465.816406 C 82.546875 471.050781 84.230469 476.246094 86.039062 481.398438 C 87.847656 486.550781 89.78125 491.65625 91.839844 496.714844 C 93.898438 501.769531 96.082031 506.777344 98.386719 511.726562 C 100.691406 516.675781 103.113281 521.570312 105.65625 526.402344 C 108.203125 531.234375 110.863281 536 113.640625 540.703125 C 116.417969 545.402344 119.308594 550.035156 122.3125 554.59375 C 125.316406 559.152344 128.433594 563.636719 131.65625 568.042969 C 134.882812 572.449219 138.210938 576.777344 141.648438 581.019531 C 145.085938 585.261719 148.621094 589.417969 152.261719 593.488281 C 155.902344 597.558594 159.640625 601.539062 163.476562 605.425781 C 167.308594 609.3125 171.238281 613.101562 175.257812 616.796875 C 179.28125 620.492188 183.386719 624.082031 187.585938 627.578125 C 191.78125 631.070312 196.0625 634.457031 200.425781 637.738281 C 204.789062 641.023438 209.226562 644.195312 213.746094 647.261719 C 218.265625 650.324219 222.855469 653.277344 227.519531 656.117188 C 232.183594 658.957031 236.914062 661.679688 241.710938 664.289062 C 246.503906 666.894531 251.363281 669.382812 256.28125 671.753906 C 261.199219 674.121094 266.175781 676.371094 271.203125 678.496094 C 276.230469 680.621094 281.308594 682.621094 286.4375 684.5 C 291.5625 686.375 296.734375 688.125 301.945312 689.746094 C 307.15625 691.371094 312.40625 692.863281 317.691406 694.230469 C 322.980469 695.59375 328.292969 696.828125 333.640625 697.933594 C 338.988281 699.039062 344.359375 700.011719 349.75 700.851562 C 355.144531 701.695312 360.558594 702.402344 365.984375 702.976562 C 371.414062 703.554688 376.855469 703.996094 382.304688 704.304688 C 387.753906 704.613281 393.210938 704.789062 398.667969 704.832031 C 404.128906 704.871094 409.585938 704.78125 415.039062 704.554688 C 420.492188 704.328125 425.9375 703.96875 431.375 703.472656 C 436.8125 702.980469 442.234375 702.355469 447.640625 701.59375 C 453.046875 700.835938 458.429688 699.945312 463.792969 698.921875 C 469.15625 697.898438 474.488281 696.742188 479.796875 695.457031 C 485.101562 694.171875 490.371094 692.757812 495.609375 691.214844 C 500.84375 689.671875 506.039062 688 511.195312 686.203125 C 516.351562 684.40625 521.457031 682.480469 526.519531 680.433594 C 531.578125 678.382812 536.585938 676.210938 541.539062 673.917969 C 546.492188 671.621094 551.386719 669.207031 556.222656 666.671875 C 561.058594 664.136719 565.832031 661.488281 570.535156 658.71875 C 575.242188 655.949219 579.875 653.066406 584.441406 650.070312 C 589.003906 647.074219 593.492188 643.96875 597.90625 640.753906 C 602.316406 637.539062 606.648438 634.214844 610.898438 630.785156 C 615.148438 627.359375 619.308594 623.828125 623.386719 620.195312 C 627.460938 616.5625 631.449219 612.832031 635.339844 609.003906 C 639.234375 605.175781 643.03125 601.253906 646.734375 597.238281 C 650.433594 593.226562 654.035156 589.121094 657.535156 584.929688 C 661.035156 580.742188 664.429688 576.464844 667.722656 572.109375 C 671.011719 567.75 674.195312 563.316406 677.269531 558.800781 C 680.339844 554.289062 683.300781 549.703125 686.152344 545.042969 C 689 540.382812 691.730469 535.660156 694.347656 530.867188 C 696.964844 526.074219 699.464844 521.21875 701.84375 516.304688 C 704.222656 511.386719 706.480469 506.417969 708.613281 501.390625 C 712.953125 491.132812 716.765625 480.679688 720.054688 470.035156 C 723.34375 459.390625 726.085938 448.609375 728.289062 437.691406 C 730.492188 426.769531 732.144531 415.765625 733.242188 404.679688 C 734.335938 393.59375 734.875 382.480469 734.855469 371.34375 Z M 114.464844 371.34375 C 114.464844 366.65625 114.582031 361.96875 114.8125 357.289062 C 115.046875 352.605469 115.390625 347.933594 115.851562 343.265625 C 116.3125 338.601562 116.886719 333.953125 117.578125 329.316406 C 118.265625 324.679688 119.066406 320.0625 119.984375 315.464844 C 120.898438 310.867188 121.925781 306.292969 123.066406 301.746094 C 124.207031 297.199219 125.457031 292.683594 126.820312 288.199219 C 128.179688 283.714844 129.652344 279.265625 131.230469 274.851562 C 132.8125 270.4375 134.496094 266.066406 136.292969 261.734375 C 138.085938 257.40625 139.984375 253.121094 141.992188 248.882812 C 143.996094 244.648438 146.101562 240.460938 148.3125 236.328125 C 150.523438 232.195312 152.832031 228.117188 155.242188 224.097656 C 157.652344 220.078125 160.160156 216.117188 162.765625 212.222656 C 165.367188 208.324219 168.066406 204.492188 170.859375 200.730469 C 173.652344 196.964844 176.535156 193.269531 179.507812 189.648438 C 182.480469 186.023438 185.542969 182.476562 188.6875 179.003906 C 191.835938 175.53125 195.066406 172.136719 198.382812 168.824219 C 201.695312 165.511719 205.089844 162.28125 208.5625 159.132812 C 212.035156 155.984375 215.582031 152.925781 219.207031 149.953125 C 222.828125 146.980469 226.523438 144.097656 230.285156 141.304688 C 234.050781 138.511719 237.882812 135.816406 241.777344 133.210938 C 245.675781 130.609375 249.632812 128.101562 253.652344 125.691406 C 257.671875 123.285156 261.746094 120.972656 265.878906 118.765625 C 270.015625 116.554688 274.199219 114.449219 278.433594 112.445312 C 282.671875 110.441406 286.953125 108.542969 291.285156 106.75 C 295.613281 104.957031 299.984375 103.273438 304.394531 101.695312 C 308.808594 100.117188 313.257812 98.644531 317.742188 97.285156 C 322.226562 95.925781 326.738281 94.675781 331.285156 93.539062 C 335.832031 92.398438 340.402344 91.375 344.996094 90.460938 C 349.59375 89.546875 354.210938 88.746094 358.84375 88.058594 C 363.480469 87.371094 368.128906 86.796875 372.792969 86.339844 C 377.457031 85.878906 382.128906 85.535156 386.808594 85.304688 C 391.488281 85.078125 396.171875 84.960938 400.855469 84.964844 C 405.542969 84.964844 410.226562 85.078125 414.90625 85.308594 C 419.585938 85.539062 424.257812 85.886719 428.921875 86.34375 C 433.585938 86.804688 438.234375 87.378906 442.867188 88.066406 C 447.503906 88.753906 452.117188 89.558594 456.714844 90.472656 C 461.308594 91.386719 465.882812 92.414062 470.425781 93.554688 C 474.972656 94.691406 479.484375 95.941406 483.96875 97.304688 C 488.453125 98.664062 492.902344 100.136719 497.3125 101.714844 C 501.726562 103.292969 506.097656 104.980469 510.425781 106.777344 C 514.753906 108.570312 519.035156 110.46875 523.273438 112.472656 C 527.507812 114.476562 531.691406 116.585938 535.824219 118.796875 C 539.957031 121.003906 544.035156 123.316406 548.050781 125.726562 C 552.070312 128.136719 556.027344 130.644531 559.925781 133.246094 C 563.820312 135.851562 567.652344 138.550781 571.414062 141.34375 C 575.179688 144.136719 578.871094 147.019531 582.492188 149.992188 C 586.117188 152.964844 589.664062 156.027344 593.136719 159.175781 C 596.605469 162.324219 600 165.554688 603.3125 168.871094 C 606.625 172.183594 609.855469 175.578125 613.003906 179.050781 C 616.148438 182.523438 619.210938 186.074219 622.183594 189.695312 C 625.15625 193.320312 628.039062 197.015625 630.828125 200.78125 C 633.621094 204.546875 636.316406 208.375 638.921875 212.273438 C 641.523438 216.171875 644.03125 220.132812 646.441406 224.152344 C 648.847656 228.171875 651.160156 232.25 653.367188 236.382812 C 655.578125 240.519531 657.683594 244.703125 659.6875 248.941406 C 661.691406 253.179688 663.589844 257.464844 665.382812 261.792969 C 667.175781 266.125 668.863281 270.496094 670.441406 274.910156 C 672.019531 279.324219 673.488281 283.773438 674.851562 288.257812 C 676.210938 292.746094 677.460938 297.261719 678.597656 301.808594 C 679.738281 306.355469 680.765625 310.929688 681.679688 315.527344 C 682.59375 320.125 683.394531 324.742188 684.082031 329.378906 C 684.769531 334.015625 685.34375 338.664062 685.804688 343.332031 C 686.265625 347.996094 686.609375 352.667969 686.839844 357.351562 C 687.070312 362.03125 687.1875 366.71875 687.1875 371.40625 C 687.1875 376.09375 687.070312 380.777344 686.84375 385.460938 C 686.613281 390.140625 686.269531 394.816406 685.8125 399.480469 C 685.351562 404.144531 684.777344 408.796875 684.09375 413.433594 C 683.40625 418.070312 682.605469 422.6875 681.691406 427.285156 C 680.777344 431.882812 679.753906 436.457031 678.613281 441.003906 C 677.476562 445.550781 676.226562 450.070312 674.867188 454.554688 C 673.507812 459.039062 672.039062 463.492188 670.460938 467.90625 C 668.882812 472.320312 667.199219 476.691406 665.40625 481.023438 C 663.613281 485.355469 661.714844 489.636719 659.714844 493.875 C 657.710938 498.113281 655.605469 502.300781 653.398438 506.433594 C 651.1875 510.570312 648.878906 514.648438 646.472656 518.667969 C 644.0625 522.691406 641.558594 526.648438 638.957031 530.546875 C 636.355469 534.445312 633.65625 538.277344 630.867188 542.042969 C 628.074219 545.808594 625.195312 549.503906 622.222656 553.128906 C 619.25 556.753906 616.191406 560.300781 613.046875 563.777344 C 609.898438 567.25 606.671875 570.644531 603.359375 573.960938 C 600.046875 577.277344 596.652344 580.507812 593.183594 583.65625 C 589.710938 586.804688 586.164062 589.867188 582.542969 592.84375 C 578.921875 595.816406 575.230469 598.699219 571.464844 601.496094 C 567.703125 604.289062 563.875 606.988281 559.976562 609.59375 C 556.082031 612.199219 552.125 614.707031 548.105469 617.117188 C 544.089844 619.527344 540.011719 621.839844 535.882812 624.050781 C 531.75 626.261719 527.566406 628.367188 523.328125 630.375 C 519.09375 632.378906 514.8125 634.28125 510.484375 636.074219 C 506.15625 637.871094 501.785156 639.558594 497.375 641.136719 C 492.960938 642.71875 488.515625 644.191406 484.03125 645.550781 C 479.546875 646.914062 475.03125 648.164062 470.488281 649.304688 C 465.941406 650.445312 461.371094 651.472656 456.777344 652.390625 C 452.179688 653.304688 447.566406 654.109375 442.929688 654.796875 C 438.296875 655.488281 433.648438 656.0625 428.984375 656.523438 C 424.320312 656.984375 419.648438 657.332031 414.96875 657.5625 C 410.289062 657.792969 405.605469 657.910156 400.921875 657.910156 C 396.234375 657.90625 391.550781 657.789062 386.867188 657.554688 C 382.1875 657.320312 377.515625 656.972656 372.851562 656.507812 C 368.1875 656.046875 363.535156 655.46875 358.902344 654.777344 C 354.265625 654.085938 349.648438 653.28125 345.054688 652.363281 C 340.457031 651.445312 335.886719 650.414062 331.339844 649.273438 C 326.792969 648.132812 322.277344 646.878906 317.792969 645.515625 C 313.308594 644.152344 308.863281 642.679688 304.449219 641.097656 C 300.039062 639.515625 295.667969 637.824219 291.335938 636.03125 C 287.007812 634.234375 282.726562 632.332031 278.488281 630.324219 C 274.253906 628.320312 270.070312 626.210938 265.9375 624 C 261.804688 621.789062 257.726562 619.476562 253.707031 617.0625 C 249.6875 614.652344 245.730469 612.144531 241.832031 609.539062 C 237.9375 606.933594 234.105469 604.230469 230.34375 601.4375 C 226.578125 598.644531 222.886719 595.761719 219.261719 592.785156 C 215.640625 589.8125 212.09375 586.75 208.621094 583.601562 C 205.148438 580.449219 201.753906 577.21875 198.4375 573.902344 C 195.125 570.585938 191.894531 567.191406 188.746094 563.71875 C 185.597656 560.246094 182.539062 556.695312 179.5625 553.070312 C 176.589844 549.449219 173.707031 545.753906 170.914062 541.988281 C 168.121094 538.222656 165.421875 534.390625 162.816406 530.492188 C 160.214844 526.59375 157.707031 522.632812 155.296875 518.613281 C 152.882812 514.59375 150.574219 510.515625 148.363281 506.378906 C 146.152344 502.246094 144.042969 498.058594 142.039062 493.820312 C 140.03125 489.582031 138.132812 485.300781 136.335938 480.96875 C 134.542969 476.636719 132.851562 472.265625 131.273438 467.851562 C 129.691406 463.4375 128.21875 458.988281 126.855469 454.5 C 125.492188 450.015625 124.238281 445.496094 123.097656 440.949219 C 121.957031 436.402344 120.925781 431.828125 120.011719 427.230469 C 119.09375 422.632812 118.289062 418.015625 117.597656 413.378906 C 116.90625 408.742188 116.328125 404.089844 115.867188 399.421875 C 115.402344 394.757812 115.054688 390.082031 114.820312 385.398438 C 114.585938 380.71875 114.46875 376.03125 114.464844 371.34375 Z M 114.464844 371.34375 " fill-opacity="1" fill-rule="nonzero"/></g><path fill="#000000" d="M 237.339844 351.773438 L 379.523438 200.035156 C 380.164062 199.351562 380.835938 198.699219 381.542969 198.082031 C 382.246094 197.464844 382.980469 196.882812 383.742188 196.339844 C 384.507812 195.792969 385.292969 195.289062 386.105469 194.820312 C 386.917969 194.351562 387.75 193.925781 388.605469 193.539062 C 389.457031 193.152344 390.328125 192.808594 391.214844 192.507812 C 392.101562 192.210938 393.003906 191.953125 393.917969 191.742188 C 394.828125 191.527344 395.75 191.363281 396.679688 191.242188 C 397.609375 191.121094 398.542969 191.042969 399.476562 191.015625 C 400.414062 190.984375 401.351562 191 402.285156 191.0625 C 403.21875 191.125 404.148438 191.230469 405.074219 191.386719 C 406 191.539062 406.914062 191.738281 407.816406 191.980469 C 408.722656 192.222656 409.613281 192.511719 410.488281 192.84375 C 411.367188 193.171875 412.226562 193.546875 413.066406 193.960938 C 413.90625 194.375 414.722656 194.832031 415.519531 195.328125 C 416.3125 195.824219 417.082031 196.355469 417.824219 196.925781 C 418.570312 197.5 419.28125 198.105469 419.964844 198.746094 C 420.648438 199.386719 421.300781 200.058594 421.917969 200.765625 C 422.535156 201.46875 423.117188 202.203125 423.660156 202.964844 C 424.207031 203.730469 424.710938 204.515625 425.179688 205.328125 C 425.648438 206.140625 426.074219 206.972656 426.460938 207.828125 C 426.847656 208.679688 427.191406 209.550781 427.492188 210.441406 C 427.792969 211.328125 428.050781 212.226562 428.261719 213.140625 C 428.476562 214.054688 428.640625 214.976562 428.761719 215.90625 C 428.886719 216.835938 428.960938 217.765625 428.992188 218.703125 C 429.023438 219.640625 429.007812 220.578125 428.945312 221.511719 C 428.882812 222.449219 428.777344 223.378906 428.621094 224.300781 C 428.46875 225.226562 428.273438 226.140625 428.03125 227.046875 C 427.785156 227.953125 427.5 228.84375 427.167969 229.722656 C 426.839844 230.597656 426.46875 231.457031 426.050781 232.296875 C 425.636719 233.140625 425.183594 233.957031 424.6875 234.753906 C 424.191406 235.550781 423.660156 236.320312 423.089844 237.0625 C 422.519531 237.804688 421.914062 238.519531 421.273438 239.203125 L 326.0625 340.785156 L 543.703125 340.785156 C 559.53125 340.785156 572.191406 354.464844 572.191406 371.34375 C 572.191406 388.21875 559.53125 401.898438 543.703125 401.898438 L 326.0625 401.898438 L 421.273438 503.480469 C 421.914062 504.164062 422.523438 504.878906 423.09375 505.621094 C 423.664062 506.363281 424.199219 507.132812 424.695312 507.929688 C 425.191406 508.726562 425.648438 509.546875 426.0625 510.386719 C 426.480469 511.226562 426.851562 512.085938 427.183594 512.964844 C 427.515625 513.839844 427.800781 514.734375 428.046875 515.636719 C 428.289062 516.542969 428.488281 517.460938 428.644531 518.386719 C 428.796875 519.3125 428.90625 520.242188 428.964844 521.175781 C 429.027344 522.113281 429.046875 523.050781 429.015625 523.988281 C 428.984375 524.925781 428.910156 525.859375 428.789062 526.789062 C 428.667969 527.71875 428.5 528.640625 428.289062 529.554688 C 428.074219 530.46875 427.820312 531.371094 427.519531 532.257812 C 427.21875 533.148438 426.875 534.019531 426.488281 534.875 C 426.101562 535.730469 425.675781 536.5625 425.207031 537.375 C 424.738281 538.1875 424.230469 538.976562 423.6875 539.738281 C 423.140625 540.5 422.558594 541.234375 421.941406 541.941406 C 421.324219 542.648438 420.671875 543.320312 419.988281 543.964844 C 419.304688 544.605469 418.589844 545.210938 417.847656 545.78125 C 417.105469 546.355469 416.332031 546.886719 415.539062 547.382812 C 414.742188 547.878906 413.921875 548.335938 413.082031 548.75 C 412.242188 549.164062 411.382812 549.539062 410.503906 549.871094 C 409.628906 550.199219 408.734375 550.488281 407.832031 550.730469 C 406.925781 550.972656 406.007812 551.171875 405.085938 551.324219 C 404.160156 551.480469 403.230469 551.585938 402.292969 551.648438 C 401.359375 551.710938 400.421875 551.726562 399.484375 551.695312 C 398.546875 551.664062 397.613281 551.589844 396.683594 551.464844 C 395.753906 551.34375 394.832031 551.175781 393.917969 550.964844 C 393.003906 550.75 392.105469 550.492188 391.21875 550.191406 C 390.328125 549.890625 389.457031 549.546875 388.605469 549.160156 C 387.75 548.773438 386.917969 548.34375 386.105469 547.875 C 385.292969 547.40625 384.503906 546.898438 383.742188 546.351562 C 382.980469 545.804688 382.246094 545.222656 381.542969 544.605469 C 380.835938 543.988281 380.164062 543.335938 379.523438 542.648438 L 237.339844 390.910156 C 236.722656 390.257812 236.136719 389.574219 235.585938 388.867188 C 235.03125 388.15625 234.511719 387.421875 234.03125 386.664062 C 233.546875 385.90625 233.101562 385.128906 232.691406 384.328125 C 232.28125 383.527344 231.910156 382.707031 231.578125 381.871094 C 231.246094 381.035156 230.953125 380.1875 230.703125 379.324219 C 230.449219 378.460938 230.238281 377.585938 230.070312 376.703125 C 229.902344 375.820312 229.773438 374.929688 229.6875 374.035156 C 229.605469 373.140625 229.5625 372.242188 229.5625 371.34375 C 229.5625 370.441406 229.605469 369.546875 229.6875 368.648438 C 229.773438 367.753906 229.902344 366.863281 230.070312 365.980469 C 230.238281 365.097656 230.449219 364.226562 230.703125 363.363281 C 230.953125 362.496094 231.246094 361.648438 231.578125 360.8125 C 231.910156 359.976562 232.28125 359.160156 232.691406 358.359375 C 233.101562 357.558594 233.546875 356.777344 234.03125 356.019531 C 234.511719 355.261719 235.03125 354.527344 235.585938 353.816406 C 236.136719 353.109375 236.722656 352.425781 237.339844 351.773438 Z M 237.339844 351.773438 " fill-opacity="1" fill-rule="nonzero"/></svg>