<svg xmlns="http://www.w3.org/2000/svg" xmlns:xlink="http://www.w3.org/1999/xlink" width="500" zoomAndPan="magnify" viewBox="0 0 375 374.999991" height="500" preserveAspectRatio="xMidYMid meet" version="1.0"><defs><clipPath id="1355260ed5"><path d="M 1 24.375 L 265 24.375 L 265 107 L 1 107 Z M 1 24.375 " clip-rule="nonzero"/></clipPath><clipPath id="751ec4c1ab"><path d="M 110.132812 268 L 374 268 L 374 350.625 L 110.132812 350.625 Z M 110.132812 268 " clip-rule="nonzero"/></clipPath><clipPath id="629d0f8f69"><path d="M 330.078125 275.1875 L 374.910156 275.1875 L 374.910156 336 L 330.078125 336 Z M 330.078125 275.1875 " clip-rule="nonzero"/></clipPath></defs><path fill="#fb9399" d="M 236.371094 238.394531 C 234.457031 221.363281 221.09375 228.664062 214.414062 205.144531 C 207.730469 181.628906 191.503906 185.980469 191.503906 185.980469 L 187.691406 185.980469 C 187.691406 185.980469 171.464844 181.628906 164.78125 205.144531 C 158.101562 228.664062 144.742188 221.363281 142.828125 238.394531 C 140.921875 255.425781 158.101562 264.34375 176.234375 253.800781 C 176.289062 253.769531 176.339844 253.738281 176.394531 253.710938 C 184.351562 249.089844 194.84375 249.089844 202.800781 253.710938 C 202.855469 253.738281 202.90625 253.769531 202.960938 253.800781 C 221.09375 264.34375 238.277344 255.425781 236.371094 238.394531 " fill-opacity="1" fill-rule="nonzero"/><path fill="#fb9399" d="M 149.988281 175.648438 C 157.132812 189.070312 155.917969 203.675781 147.273438 208.273438 C 138.628906 212.871094 125.832031 205.726562 118.695312 192.300781 C 111.550781 178.878906 112.765625 164.273438 121.410156 159.675781 C 130.046875 155.070312 142.84375 162.222656 149.988281 175.648438 " fill-opacity="1" fill-rule="nonzero"/><path fill="#fb9399" d="M 229.210938 175.648438 C 222.066406 189.070312 223.277344 203.675781 231.921875 208.273438 C 240.566406 212.871094 253.355469 205.726562 260.5 192.300781 C 267.644531 178.878906 266.433594 164.273438 257.789062 159.675781 C 249.144531 155.070312 236.355469 162.222656 229.210938 175.648438 " fill-opacity="1" fill-rule="nonzero"/><path fill="#fb9399" d="M 185.453125 142.953125 C 188.550781 160.105469 182.105469 175.640625 171.058594 177.636719 C 160.011719 179.632812 148.539062 167.339844 145.433594 150.179688 C 142.335938 133.019531 148.78125 117.496094 159.828125 115.5 C 170.878906 113.5 182.347656 125.792969 185.453125 142.953125 " fill-opacity="1" fill-rule="nonzero"/><path fill="#fb9399" d="M 193.742188 142.953125 C 190.644531 160.105469 197.089844 175.640625 208.136719 177.636719 C 219.1875 179.632812 230.65625 167.339844 233.753906 150.179688 C 236.859375 133.019531 230.414062 117.496094 219.367188 115.5 C 208.320312 113.5 196.847656 125.792969 193.742188 142.953125 " fill-opacity="1" fill-rule="nonzero"/><g clip-path="url(#1355260ed5)"><path fill="#f2d2b8" d="M 263.441406 88.804688 L 252.910156 72.578125 C 252.25 71.554688 251.417969 70.710938 250.5 70.0625 C 250.378906 69.917969 250.28125 69.757812 250.152344 69.617188 L 249.703125 69.148438 C 250.054688 69.011719 250.417969 68.871094 250.75 68.683594 C 252.820312 67.507812 253.226562 64.640625 251.636719 62.410156 L 241.359375 47.988281 C 241.109375 47.632812 240.824219 47.316406 240.53125 47.015625 C 239.859375 45.65625 238.773438 44.414062 237.320312 43.464844 L 221.695312 33.320312 C 220.46875 31.511719 218.320312 30.148438 215.726562 29.777344 L 178.15625 24.464844 C 177.382812 24.351562 176.621094 24.34375 175.882812 24.421875 L 175.882812 24.414062 C 175.867188 24.414062 175.859375 24.421875 175.84375 24.421875 C 175.503906 24.457031 175.171875 24.511719 174.847656 24.578125 C 161.523438 26.636719 149.964844 33.035156 132.375 38.613281 C 121.21875 42.152344 104.867188 45.46875 88.359375 48.640625 L 9.621094 47.136719 L 1.910156 95.121094 L 93.019531 96.839844 C 97.554688 100.417969 101.722656 102.820312 104.617188 103.214844 C 118.085938 105.007812 134.832031 99.589844 137.363281 100.5625 C 146.792969 104.179688 165.414062 99.808594 172.625 103.363281 C 178.480469 106.25 183.78125 108.679688 187.253906 103.9375 C 190.730469 99.1875 183.5625 89.851562 180.238281 86.753906 C 173.070312 80.078125 160.523438 82.554688 152.292969 80.347656 C 147.613281 79.089844 146.144531 77.558594 145.585938 74.078125 C 145.011719 70.566406 167.214844 62.488281 184.894531 58.363281 L 200.765625 60.488281 L 222.277344 81.09375 C 222.496094 81.304688 222.742188 81.472656 222.984375 81.644531 C 223.089844 81.832031 223.195312 82.019531 223.308594 82.203125 L 232.269531 94.8125 C 235.035156 98.699219 239.59375 100.296875 243.097656 98.609375 C 245.300781 97.554688 245.902344 94.480469 244.433594 91.871094 L 234.988281 75.171875 L 239.488281 79.851562 C 239.785156 80.160156 240.109375 80.421875 240.4375 80.664062 C 240.535156 80.816406 240.628906 80.964844 240.734375 81.109375 L 250.566406 93.070312 C 253.605469 96.753906 258.496094 97.914062 262.183594 95.828125 C 264.496094 94.523438 265.066406 91.3125 263.441406 88.804688 " fill-opacity="1" fill-rule="nonzero"/></g><path fill="#b4977b" d="M 0.160156 39.675781 L 44.734375 43.164062 L 44.519531 99.28125 L 0.160156 98.609375 L 0.160156 39.675781 " fill-opacity="1" fill-rule="nonzero"/><g clip-path="url(#751ec4c1ab)"><path fill="#f2d2b8" d="M 373.179688 279.875 L 282.0625 278.15625 C 277.527344 274.578125 273.367188 272.164062 270.472656 271.78125 C 256.996094 269.988281 240.257812 275.40625 237.726562 274.433594 C 228.289062 270.816406 209.675781 275.179688 202.457031 271.632812 C 196.605469 268.746094 191.300781 266.316406 187.828125 271.058594 C 184.359375 275.804688 191.527344 285.144531 194.851562 288.242188 C 202.019531 294.917969 214.566406 292.4375 222.796875 294.648438 C 227.476562 295.90625 228.945312 297.4375 229.503906 300.917969 C 230.070312 304.429688 207.875 312.507812 190.1875 316.632812 L 174.320312 314.503906 L 152.804688 293.910156 C 152.585938 293.691406 152.339844 293.53125 152.097656 293.351562 C 152 293.164062 151.894531 292.972656 151.78125 292.792969 L 142.8125 280.183594 C 140.046875 276.296875 135.492188 274.699219 131.980469 276.386719 C 129.789062 277.441406 129.1875 280.515625 130.65625 283.125 L 140.097656 299.824219 L 135.597656 295.144531 C 135.304688 294.835938 134.980469 294.570312 134.648438 294.332031 C 134.550781 294.179688 134.460938 294.027344 134.355469 293.886719 L 124.511719 281.925781 C 121.484375 278.242188 116.59375 277.078125 112.898438 279.167969 C 110.59375 280.472656 110.019531 283.683594 111.648438 286.191406 L 122.175781 302.417969 C 122.839844 303.441406 123.667969 304.285156 124.589844 304.933594 C 124.710938 305.078125 124.800781 305.234375 124.933594 305.371094 L 125.386719 305.847656 C 125.027344 305.980469 124.671875 306.117188 124.332031 306.3125 C 122.261719 307.488281 121.859375 310.351562 123.449219 312.582031 L 133.722656 327.007812 C 133.980469 327.363281 134.265625 327.679688 134.550781 327.980469 C 135.222656 329.335938 136.316406 330.589844 137.769531 331.53125 L 153.394531 341.675781 C 154.621094 343.484375 156.761719 344.847656 159.363281 345.21875 L 196.921875 350.53125 C 197.707031 350.644531 198.46875 350.652344 199.207031 350.574219 C 199.207031 350.582031 199.207031 350.582031 199.207031 350.582031 C 199.214844 350.582031 199.230469 350.574219 199.238281 350.574219 C 199.578125 350.539062 199.90625 350.484375 200.230469 350.417969 C 213.554688 348.359375 225.117188 341.960938 242.714844 336.382812 C 253.867188 332.84375 270.214844 329.527344 286.726562 326.351562 L 365.46875 327.851562 L 373.179688 279.875 " fill-opacity="1" fill-rule="nonzero"/></g><g clip-path="url(#629d0f8f69)"><path fill="#b4977b" d="M 374.917969 335.320312 L 330.355469 331.832031 L 330.566406 275.714844 L 374.917969 276.386719 L 374.917969 335.320312 " fill-opacity="1" fill-rule="nonzero"/></g></svg>