<svg xmlns="http://www.w3.org/2000/svg" xmlns:xlink="http://www.w3.org/1999/xlink" width="1000" zoomAndPan="magnify" viewBox="0 0 750 749.999995" height="1000" preserveAspectRatio="xMidYMid meet" version="1.0"><defs><clipPath id="1ca2202f78"><path d="M 610 244.84375 L 749 244.84375 L 749 505.09375 L 610 505.09375 Z M 610 244.84375 " clip-rule="nonzero"/></clipPath></defs><path fill="#f1c024" d="M 617.910156 475.722656 L 102.78125 475.722656 C 47.328125 475.722656 1.964844 430.363281 1.964844 374.929688 C 1.964844 319.492188 47.328125 274.136719 102.78125 274.136719 L 617.910156 274.136719 C 673.359375 274.136719 718.726562 319.492188 718.726562 374.933594 C 718.722656 430.363281 673.359375 475.722656 617.910156 475.722656 Z M 617.910156 475.722656 " fill-opacity="1" fill-rule="nonzero"/><g clip-path="url(#1ca2202f78)"><path fill="#f1c024" d="M 617.910156 505.015625 C 613.652344 505.015625 610.199219 501.566406 610.199219 497.308594 C 610.199219 493.050781 613.652344 489.597656 617.910156 489.597656 C 681.152344 489.597656 732.605469 438.160156 732.605469 374.929688 C 732.605469 311.699219 681.152344 260.261719 617.910156 260.261719 C 613.652344 260.261719 610.199219 256.8125 610.199219 252.550781 C 610.199219 248.292969 613.652344 244.84375 617.910156 244.84375 C 689.65625 244.84375 748.027344 303.199219 748.027344 374.933594 C 748.027344 446.664062 689.65625 505.015625 617.910156 505.015625 Z M 617.910156 505.015625 " fill-opacity="1" fill-rule="nonzero"/></g></svg>