<svg xmlns="http://www.w3.org/2000/svg" xmlns:xlink="http://www.w3.org/1999/xlink" width="500" zoomAndPan="magnify" viewBox="0 0 375 374.999991" height="500" preserveAspectRatio="xMidYMid meet" version="1.0"><defs><clipPath id="8d4218477b"><path d="M 45.476562 10.75 L 302.527344 10.75 L 302.527344 375 L 45.476562 375 Z M 45.476562 10.75 " clip-rule="nonzero"/></clipPath><clipPath id="4ddd1d9860"><path d="M 238.203125 230.585938 L 330.425781 230.585938 L 330.425781 350.40625 L 238.203125 350.40625 Z M 238.203125 230.585938 " clip-rule="nonzero"/></clipPath></defs><g clip-path="url(#8d4218477b)"><path fill="#f7dba1" d="M 302.417969 349.621094 C 302.347656 371.496094 299.363281 375.007812 299.363281 375.007812 L 64.890625 375.007812 C 64.890625 375.007812 62.457031 363.023438 59.316406 343.414062 C 58.273438 336.890625 57.148438 329.519531 56.007812 321.464844 C 55.953125 321.085938 55.898438 320.707031 55.847656 320.320312 C 52.359375 295.511719 48.757812 264.386719 46.851562 231.53125 C 46.808594 230.769531 46.765625 230.011719 46.722656 229.25 C 45.058594 199.171875 44.839844 167.738281 47.453125 138.445312 C 52.429688 82.726562 67.644531 34.75 102.589844 18.535156 C 127.15625 7.140625 160.441406 7.648438 192.257812 26.402344 C 194.09375 27.484375 195.925781 28.625 197.753906 29.835938 C 198.289062 30.1875 198.824219 30.546875 199.359375 30.914062 C 203.074219 33.445312 206.757812 36.238281 210.390625 39.304688 C 210.804688 39.648438 211.21875 40.003906 211.632812 40.359375 C 212.683594 41.261719 213.730469 42.191406 214.769531 43.144531 C 215.078125 43.421875 215.382812 43.707031 215.6875 43.988281 C 217.195312 45.386719 218.691406 46.835938 220.179688 48.332031 C 220.59375 48.753906 221.011719 49.179688 221.421875 49.605469 L 221.425781 49.605469 C 223.546875 51.792969 225.644531 54.078125 227.710938 56.46875 C 231.847656 61.242188 235.871094 66.429688 239.753906 72.050781 L 239.757812 72.050781 C 240.527344 73.160156 241.285156 74.289062 242.042969 75.429688 C 242.664062 76.363281 243.277344 77.308594 243.886719 78.269531 C 252.648438 91.996094 260.617188 108.078125 267.445312 126.730469 C 274.542969 146.128906 280.398438 168.308594 284.617188 193.523438 C 286.878906 207.0625 288.871094 219.601562 290.625 231.210938 C 291.796875 239 292.867188 246.367188 293.832031 253.339844 C 293.910156 253.925781 293.992188 254.5 294.070312 255.078125 C 296.390625 271.992188 298.121094 286.546875 299.382812 299.066406 C 299.398438 299.199219 299.410156 299.335938 299.421875 299.46875 C 300.476562 309.9375 301.195312 318.972656 301.671875 326.773438 C 301.699219 327.242188 301.726562 327.703125 301.753906 328.160156 C 301.75 328.164062 301.753906 328.164062 301.753906 328.164062 C 302.25 336.78125 302.4375 343.839844 302.417969 349.621094 " fill-opacity="1" fill-rule="nonzero"/></g><g clip-path="url(#4ddd1d9860)"><path fill="#3e7a50" d="M 326.492188 298.433594 C 326.289062 298.222656 326.074219 298.019531 325.855469 297.828125 C 325.625 297.625 325.386719 297.433594 325.140625 297.253906 C 322.265625 295.179688 318.457031 294.75 314.953125 294.898438 C 310.503906 295.085938 306.46875 296.449219 302.398438 298.152344 C 301.398438 298.570312 300.402344 299.003906 299.421875 299.46875 C 299.292969 299.527344 299.164062 299.589844 299.035156 299.652344 C 299.152344 299.457031 299.265625 299.261719 299.382812 299.066406 C 302.765625 293.375 305.929688 287.558594 308.277344 281.355469 C 311.164062 273.71875 313.632812 265.183594 313.929688 257 C 314.234375 248.578125 310.792969 238.535156 303.601562 233.582031 C 303.40625 233.445312 303.207031 233.316406 303.003906 233.1875 C 301.179688 232.035156 299.121094 231.203125 296.835938 230.796875 C 294.757812 230.425781 292.675781 230.613281 290.625 231.210938 C 281.019531 234.011719 272.019531 245.894531 266.902344 252.617188 C 258.542969 263.585938 252.300781 276.078125 247.679688 289.039062 C 247.679688 289.042969 247.675781 289.046875 247.675781 289.050781 C 247.671875 289.054688 247.671875 289.058594 247.671875 289.0625 C 245.390625 295.472656 243.5 302.023438 241.980469 308.65625 C 240.984375 313.007812 240.148438 317.390625 239.464844 321.796875 C 239.003906 324.769531 238.734375 331.582031 238.578125 337.804688 C 238.429688 343.699219 238.386719 349.070312 238.378906 350.148438 C 238.378906 350.277344 238.378906 350.34375 238.378906 350.34375 L 239.316406 350.332031 L 239.332031 350.332031 L 250.632812 350.207031 L 251.429688 350.195312 L 283.71875 349.832031 L 284.53125 349.824219 L 289.675781 349.765625 L 289.679688 349.765625 L 302.417969 349.621094 L 302.480469 349.621094 C 302.480469 349.621094 307.316406 347.335938 314.59375 338.816406 C 322.246094 329.851562 327.597656 321.929688 330.089844 311.542969 C 331.152344 307.121094 329.640625 301.742188 326.492188 298.433594 " fill-opacity="1" fill-rule="nonzero"/></g><path fill="#3e7a50" d="M 136.753906 241.179688 C 136.660156 238.496094 136.292969 235.859375 135.589844 233.292969 C 135.511719 233 135.425781 232.703125 135.335938 232.410156 C 134.339844 229.132812 132.644531 226.011719 130.128906 223.679688 C 129.039062 222.667969 127.820312 221.832031 126.515625 221.160156 C 126.515625 221.160156 126.515625 221.160156 126.515625 221.15625 C 126.324219 221.054688 126.128906 220.957031 125.933594 220.867188 L 125.929688 220.867188 C 122.273438 219.132812 118 218.582031 113.925781 218.917969 C 104.960938 219.660156 97 223.246094 89.851562 228.457031 C 88.222656 229.640625 86.578125 230.789062 84.988281 231.996094 C 85.710938 230.097656 86.304688 228.148438 86.773438 226.167969 C 90.320312 211.289062 96.609375 196.835938 101.171875 182.222656 C 104.425781 171.804688 107.234375 160.859375 107.917969 149.933594 C 108.640625 138.382812 107.105469 124.386719 95.152344 119.3125 C 94.382812 118.984375 93.597656 118.699219 92.796875 118.457031 C 92.5 118.363281 92.203125 118.277344 91.902344 118.199219 C 83.253906 115.898438 73.25 118.101562 65.625 122.28125 C 58.597656 126.128906 52.503906 131.941406 47.453125 138.445312 C 44.839844 167.738281 45.058594 199.171875 46.722656 229.25 C 46.765625 230.011719 46.808594 230.769531 46.851562 231.53125 C 48.757812 264.386719 52.359375 295.511719 55.847656 320.320312 C 55.898438 320.707031 55.953125 321.085938 56.007812 321.464844 C 57.148438 329.519531 58.273438 336.890625 59.316406 343.414062 C 66.585938 340.238281 73.519531 336.128906 80.046875 331.34375 C 83.070312 329.132812 86.007812 326.773438 88.851562 324.289062 C 88.878906 324.265625 88.90625 324.238281 88.9375 324.214844 C 91.910156 321.617188 94.78125 318.890625 97.535156 316.0625 C 100.746094 312.773438 103.804688 309.347656 106.695312 305.832031 C 107.117188 305.320312 107.535156 304.8125 107.945312 304.296875 C 110.289062 301.386719 112.515625 298.421875 114.625 295.417969 C 116.148438 293.261719 117.605469 291.089844 119 288.90625 C 121.5625 284.898438 124.304688 280.367188 126.847656 275.53125 C 127.230469 274.8125 127.601562 274.089844 127.96875 273.355469 C 133.085938 263.195312 137.117188 251.851562 136.753906 241.179688 " fill-opacity="1" fill-rule="nonzero"/><path fill="#542525" d="M 302.761719 233.417969 C 301.03125 237.277344 299.300781 241.136719 297.570312 244.996094 C 293.414062 254.265625 289.261719 263.535156 285.105469 272.804688 C 280.078125 284.015625 275.054688 295.226562 270.027344 306.4375 C 265.6875 316.121094 261.34375 325.808594 257.003906 335.492188 C 254.902344 340.179688 252.671875 344.828125 250.695312 349.570312 C 250.667969 349.632812 250.636719 349.695312 250.609375 349.757812 C 250.363281 350.300781 251.171875 350.777344 251.417969 350.230469 C 253.148438 346.367188 254.878906 342.507812 256.609375 338.648438 C 260.761719 329.378906 264.917969 320.109375 269.074219 310.839844 C 274.097656 299.628906 279.125 288.417969 284.148438 277.210938 C 288.488281 267.523438 292.832031 257.835938 297.171875 248.152344 C 299.273438 243.464844 301.507812 238.816406 303.484375 234.078125 C 303.511719 234.011719 303.539062 233.949219 303.570312 233.886719 C 303.8125 233.34375 303.007812 232.867188 302.761719 233.417969 " fill-opacity="1" fill-rule="nonzero"/><path fill="#542525" d="M 325.140625 297.25 C 323.777344 298.96875 322.410156 300.6875 321.042969 302.402344 C 317.746094 306.554688 314.445312 310.703125 311.144531 314.855469 C 307.167969 319.855469 303.195312 324.855469 299.21875 329.855469 C 295.761719 334.203125 292.308594 338.546875 288.855469 342.890625 C 287.722656 344.316406 286.589844 345.738281 285.457031 347.164062 C 284.925781 347.832031 284.3125 348.488281 283.839844 349.199219 C 283.820312 349.230469 283.792969 349.261719 283.769531 349.292969 C 283.398438 349.753906 284.054688 350.421875 284.429688 349.949219 C 285.792969 348.234375 287.160156 346.515625 288.527344 344.796875 C 291.828125 340.648438 295.125 336.496094 298.425781 332.34375 C 302.402344 327.34375 306.378906 322.34375 310.351562 317.34375 C 313.808594 313 317.261719 308.65625 320.714844 304.308594 C 321.847656 302.886719 322.980469 301.460938 324.113281 300.035156 C 324.644531 299.367188 325.261719 298.714844 325.730469 298.003906 C 325.75 297.972656 325.78125 297.941406 325.800781 297.910156 C 326.171875 297.445312 325.515625 296.78125 325.140625 297.25 " fill-opacity="1" fill-rule="nonzero"/><path fill="#542525" d="M 92.851562 118.328125 C 92.835938 118.371094 92.816406 118.414062 92.796875 118.457031 C 92.792969 118.476562 92.785156 118.5 92.777344 118.519531 C 92.300781 120.011719 91.578125 121.460938 90.992188 122.910156 L 87.207031 132.226562 C 83.371094 141.664062 79.535156 151.101562 75.703125 160.539062 C 71.289062 171.398438 66.875 182.261719 62.460938 193.121094 C 58.789062 202.152344 55.121094 211.1875 51.449219 220.21875 C 49.921875 223.980469 48.394531 227.742188 46.863281 231.507812 C 46.859375 231.515625 46.855469 231.523438 46.851562 231.53125 C 46.808594 230.769531 46.765625 230.011719 46.722656 229.25 C 47.082031 228.382812 47.476562 227.527344 47.824219 226.675781 L 51.609375 217.359375 C 55.445312 207.921875 59.28125 198.488281 63.113281 189.050781 C 67.527344 178.1875 71.941406 167.324219 76.355469 156.464844 C 80.023438 147.433594 83.695312 138.398438 87.363281 129.371094 C 88.875 125.644531 90.390625 121.921875 91.902344 118.199219 C 91.917969 118.160156 91.933594 118.117188 91.953125 118.082031 C 92.175781 117.53125 93.078125 117.773438 92.851562 118.328125 " fill-opacity="1" fill-rule="nonzero"/><path fill="#542525" d="M 126.457031 221.53125 C 126.417969 221.585938 126.375 221.640625 126.34375 221.695312 C 125.535156 223.046875 124.503906 224.308594 123.601562 225.597656 C 121.691406 228.3125 119.78125 231.027344 117.871094 233.746094 C 112.042969 242.035156 106.21875 250.324219 100.390625 258.617188 C 94.875 266.457031 89.363281 274.304688 83.847656 282.144531 C 82.597656 283.925781 81.34375 285.707031 80.09375 287.488281 C 79.125 288.867188 78.15625 290.242188 77.191406 291.613281 C 72.578125 298.179688 67.964844 304.746094 63.347656 311.3125 C 61.015625 314.628906 58.683594 317.945312 56.351562 321.265625 C 56.257812 321.394531 56.136719 321.453125 56.007812 321.464844 C 55.953125 321.085938 55.898438 320.707031 55.847656 320.320312 C 56.625 319.085938 57.566406 317.917969 58.398438 316.730469 C 60.308594 314.015625 62.21875 311.296875 64.128906 308.578125 C 69.957031 300.289062 75.785156 292 81.609375 283.710938 C 88.375 274.085938 95.140625 264.460938 101.90625 254.835938 C 107.488281 246.898438 113.070312 238.957031 118.648438 231.015625 C 120.984375 227.699219 123.316406 224.378906 125.648438 221.0625 C 125.726562 220.953125 125.828125 220.890625 125.929688 220.867188 L 125.933594 220.867188 C 126.171875 220.8125 126.4375 220.949219 126.515625 221.15625 C 126.515625 221.160156 126.515625 221.160156 126.515625 221.160156 C 126.558594 221.269531 126.550781 221.398438 126.457031 221.53125 " fill-opacity="1" fill-rule="nonzero"/><path fill="#ca6945" d="M 103.765625 353.101562 C 103.761719 353.105469 103.753906 353.109375 103.746094 353.109375 C 103.742188 353.109375 103.738281 353.109375 103.734375 353.109375 C 102.949219 353.035156 96.980469 339.945312 91.175781 328.566406 C 86.136719 318.691406 80.660156 308.5625 80.699219 307.214844 C 80.699219 307.191406 80.703125 307.167969 80.707031 307.152344 C 80.855469 306.414062 84.964844 302.433594 89.878906 296.390625 C 90.765625 295.300781 92.296875 293.433594 93.253906 292.265625 C 103.972656 279.21875 117.730469 263.074219 117.730469 263.074219 L 141.390625 286.828125 C 141.390625 286.828125 109.121094 316.042969 108.503906 317.875 C 108.171875 318.855469 107.074219 328.039062 106.011719 336.621094 C 105.089844 344.082031 104.132812 352.296875 103.800781 353.066406 C 103.789062 353.082031 103.78125 353.097656 103.765625 353.101562 " fill-opacity="1" fill-rule="nonzero"/><path fill="#5f66b6" d="M 187.3125 127.691406 C 187.3125 127.691406 176.460938 164.628906 162.53125 213.050781 L 162.5 213.042969 C 128.707031 249.605469 102.308594 279.511719 102.59375 280.796875 C 103.160156 283.390625 117.136719 298.667969 126.273438 306.980469 C 137.128906 316.851562 142.503906 321.261719 142.375 319.675781 L 199.460938 246.441406 C 199.460938 246.441406 203.476562 241.96875 205.949219 237.710938 C 208.757812 232.875 209.953125 229.335938 210.550781 226.386719 L 230.296875 127.691406 L 187.3125 127.691406 " fill-opacity="1" fill-rule="nonzero"/><path fill="#ff9e7d" d="M 103.765625 353.101562 C 103.761719 353.105469 103.753906 353.109375 103.746094 353.109375 C 103.742188 353.109375 103.738281 353.109375 103.734375 353.109375 C 102.949219 353.035156 97.261719 341.199219 91.15625 328.890625 C 86.230469 318.957031 80.660156 308.5625 80.699219 307.214844 C 80.699219 307.191406 80.703125 307.167969 80.707031 307.152344 C 80.855469 306.414062 84.964844 302.433594 89.878906 296.390625 C 91.066406 300.921875 103.652344 330.726562 106.011719 336.621094 C 105.089844 344.082031 104.132812 352.296875 103.800781 353.066406 C 103.789062 353.082031 103.78125 353.097656 103.765625 353.101562 " fill-opacity="1" fill-rule="nonzero"/><path fill="#ca6945" d="M 289.753906 349.867188 C 289.753906 349.875 289.75 349.878906 289.75 349.886719 C 289.746094 349.890625 289.746094 349.894531 289.742188 349.898438 C 289.328125 350.570312 274.9375 350.097656 262.15625 350.238281 C 251.058594 350.367188 239.546875 350.765625 238.351562 350.132812 C 238.332031 350.121094 238.3125 350.113281 238.296875 350.101562 C 237.707031 349.640625 235.957031 344.195312 232.722656 337.109375 C 232.140625 335.832031 231.144531 333.632812 230.523438 332.257812 C 223.582031 316.871094 215.210938 297.382812 215.210938 297.382812 L 247.023438 286.757812 C 247.023438 286.757812 258.890625 328.613281 260.261719 329.980469 C 260.992188 330.710938 268.742188 335.773438 275.96875 340.535156 C 282.25 344.675781 289.191406 349.183594 289.734375 349.820312 C 289.746094 349.835938 289.753906 349.851562 289.753906 349.867188 " fill-opacity="1" fill-rule="nonzero"/><path fill="#5f66b6" d="M 252.050781 304.113281 L 209.515625 157.324219 L 209.515625 127.460938 L 157.742188 127.460938 C 157.742188 127.460938 196.652344 323.25 199.089844 324.304688 C 201.53125 325.351562 222.160156 317.152344 233.527344 312.316406 C 244.894531 307.480469 252.050781 304.113281 252.050781 304.113281 " fill-opacity="1" fill-rule="nonzero"/><path fill="#542525" d="M 209.066406 157.449219 C 210.175781 161.449219 211.285156 165.449219 212.398438 169.449219 C 214.175781 175.863281 215.957031 182.277344 217.738281 188.6875 C 218.144531 190.160156 218.550781 191.628906 218.960938 193.097656 C 219.121094 193.679688 220.023438 193.429688 219.859375 192.851562 C 218.75 188.851562 217.640625 184.851562 216.53125 180.851562 C 214.75 174.4375 212.972656 168.023438 211.191406 161.609375 C 210.785156 160.140625 210.375 158.671875 209.96875 157.199219 C 209.808594 156.621094 208.90625 156.867188 209.066406 157.449219 " fill-opacity="1" fill-rule="nonzero"/><path fill="#542525" d="M 171.136719 196.539062 C 171.570312 198.636719 172 200.734375 172.429688 202.832031 C 173.46875 207.902344 174.507812 212.972656 175.546875 218.042969 C 176.800781 224.148438 178.050781 230.253906 179.304688 236.359375 C 180.386719 241.644531 181.472656 246.925781 182.554688 252.207031 C 182.914062 253.957031 183.273438 255.710938 183.632812 257.464844 C 183.796875 258.261719 183.863281 259.1875 184.144531 259.953125 C 184.15625 259.988281 184.160156 260.027344 184.167969 260.0625 C 184.285156 260.652344 185.1875 260.402344 185.066406 259.816406 C 184.636719 257.714844 184.207031 255.621094 183.777344 253.519531 C 182.738281 248.453125 181.695312 243.382812 180.65625 238.3125 C 179.40625 232.203125 178.152344 226.097656 176.898438 219.992188 C 175.816406 214.710938 174.734375 209.429688 173.652344 204.148438 C 173.292969 202.394531 172.933594 200.644531 172.574219 198.890625 C 172.410156 198.09375 172.34375 197.167969 172.0625 196.398438 C 172.050781 196.367188 172.046875 196.324219 172.039062 196.289062 C 171.917969 195.703125 171.019531 195.949219 171.136719 196.539062 " fill-opacity="1" fill-rule="nonzero"/><path fill="#ca6945" d="M 200.601562 47.023438 L 200.601562 60.269531 C 200.601562 60.269531 205 71.628906 213.949219 70.996094 C 222.894531 70.363281 222.550781 64.375 222.550781 64.375 L 224.367188 55.226562 L 200.601562 47.023438 " fill-opacity="1" fill-rule="nonzero"/><path fill="#713434" d="M 234.855469 34.359375 C 234.855469 34.359375 236.875 28.722656 235.445312 25.277344 C 232.113281 17.25 217.511719 8.058594 204.757812 12.214844 C 196.34375 14.960938 190.371094 25.1875 190.863281 37.3125 C 191.355469 49.441406 199.074219 50 201.246094 50.28125 C 203.421875 50.5625 234.855469 34.359375 234.855469 34.359375 " fill-opacity="1" fill-rule="nonzero"/><path fill="#ca6945" d="M 200.453125 50.039062 C 201.132812 51.789062 202.808594 53.046875 204.132812 54.300781 C 206.105469 56.167969 208.066406 58.046875 210.09375 59.859375 C 212.367188 61.894531 215.203125 62.226562 218.15625 62.417969 C 219.929688 62.535156 222.128906 62.730469 223.675781 61.679688 C 225.203125 60.644531 226.175781 58.769531 227.1875 57.28125 C 229.6875 53.613281 230.835938 49.199219 232.210938 45.023438 C 233.167969 42.113281 233.980469 38.511719 234.363281 35.449219 C 234.785156 32.082031 234.15625 24.101562 221.527344 21.050781 C 208.894531 18 204.6875 20.734375 201.003906 25.78125 C 199.664062 27.613281 199.394531 30.195312 199.222656 32.386719 C 198.992188 35.300781 199.09375 38.238281 199.304688 41.148438 C 199.414062 42.625 199.554688 44.101562 199.726562 45.574219 C 199.894531 46.996094 199.910156 48.542969 200.410156 49.929688 C 200.425781 49.96875 200.4375 50.003906 200.453125 50.039062 " fill-opacity="1" fill-rule="nonzero"/><path fill="#713434" d="M 229.175781 30.304688 C 229.175781 30.304688 223.316406 36.457031 214.371094 38.503906 C 206.097656 40.398438 196.925781 40.851562 197.140625 40.78125 C 197.347656 40.710938 195.496094 23.117188 204.195312 19.769531 C 212.898438 16.421875 226.019531 20.769531 229.175781 22.3125 C 232.332031 23.851562 235.957031 25.664062 235.953125 28.472656 C 235.945312 31.476562 235.25 37.824219 234.402344 38.328125 C 233.558594 38.835938 232.050781 36.820312 230.859375 34.230469 C 229.667969 31.632812 229.175781 30.304688 229.175781 30.304688 " fill-opacity="1" fill-rule="nonzero"/><path fill="#f29167" d="M 206.566406 15.996094 C 206.554688 15.914062 206.503906 15.878906 206.566406 16.050781 C 206.570312 16.03125 206.570312 16.011719 206.566406 15.996094 " fill-opacity="1" fill-rule="nonzero"/><path fill="#713434" d="M 208.386719 11.386719 C 207.765625 8.582031 206.398438 5.921875 204.511719 3.796875 C 202.902344 1.976562 200.484375 0 197.898438 0.125 C 195.167969 0.257812 192.929688 3.359375 192.558594 5.898438 C 192.257812 7.976562 192.539062 10.421875 193.277344 12.386719 C 194.09375 14.558594 195.394531 16.210938 196.714844 17.941406 C 197.179688 18.546875 197.644531 19.167969 198.09375 19.820312 C 198.539062 20.476562 199.109375 21.003906 199.953125 20.96875 C 200.960938 20.929688 201.976562 20.710938 202.957031 20.382812 C 203.753906 20.117188 204.523438 19.78125 205.246094 19.414062 C 205.246094 19.414062 205.246094 19.410156 205.25 19.410156 C 205.253906 19.410156 205.257812 19.40625 205.265625 19.402344 C 206.09375 18.976562 206.945312 18.476562 207.617188 17.828125 C 208.488281 16.988281 208.132812 16.335938 208.609375 15.550781 C 208.695312 15.410156 208.75 15.230469 208.753906 15.019531 C 208.777344 13.804688 208.652344 12.582031 208.386719 11.386719 " fill-opacity="1" fill-rule="nonzero"/><path fill="#ca6945" d="M 202.148438 38.921875 C 201.285156 36.917969 198.90625 35.558594 196.921875 37.164062 C 195.800781 38.074219 195.351562 39.65625 195.613281 41.074219 C 195.96875 43.023438 197.457031 44.933594 199.523438 45.097656 C 201.980469 45.292969 202.632812 42 202.464844 40.152344 C 202.429688 39.730469 202.316406 39.3125 202.148438 38.921875 " fill-opacity="1" fill-rule="nonzero"/><path fill="#ffffff" d="M 189.109375 59.023438 L 200.601562 60.269531 C 200.601562 60.269531 203.859375 68.691406 212.484375 69.417969 C 221.097656 70.148438 223.183594 64.222656 223.183594 64.222656 L 235.351562 68.789062 L 227.421875 128.09375 C 227.421875 128.09375 233.582031 135.683594 216.527344 135.683594 C 199.476562 135.683594 185.109375 126.621094 183.847656 125.148438 C 182.582031 123.675781 189.109375 59.023438 189.109375 59.023438 " fill-opacity="1" fill-rule="nonzero"/><path fill="#ff9e7d" d="M 195.539062 59.71875 C 195.539062 59.71875 183.636719 208.636719 181.742188 208.425781 C 179.847656 208.214844 145.730469 196.019531 145.097656 193.917969 C 144.46875 191.8125 164.613281 62.816406 164.613281 62.816406 C 164.613281 62.816406 169.273438 61.6875 173.988281 61.148438 C 177.078125 60.792969 184.476562 60.023438 184.476562 60.023438 C 184.476562 60.023438 195.515625 54.277344 195.539062 55.539062 C 195.5625 56.800781 195.738281 57.261719 195.539062 59.71875 " fill-opacity="1" fill-rule="nonzero"/><path fill="#ff9e7d" d="M 228.316406 66.144531 C 228.316406 66.144531 225.421875 111.617188 224.367188 152.066406 C 223.980469 167.046875 218.300781 187.640625 218.300781 187.640625 L 223.664062 206.148438 C 223.664062 206.148438 235.574219 161.683594 238.378906 152.042969 C 239.5625 147.976562 244.089844 75.027344 244.089844 75.027344 L 238.261719 71.019531 C 238.261719 71.019531 229.808594 60.5625 228.964844 60.867188 C 228.121094 61.171875 228.410156 63.917969 228.316406 66.144531 " fill-opacity="1" fill-rule="nonzero"/><path fill="#ffffff" d="M 164.652344 178.433594 C 162.988281 186.800781 162.535156 195.339844 162.539062 203.851562 C 162.546875 212.273438 162.832031 220.710938 163.113281 229.128906 C 163.394531 237.613281 163.972656 246.097656 165.203125 254.503906 C 165.8125 258.660156 166.585938 262.792969 167.574219 266.875 C 168.503906 270.742188 169.527344 274.660156 171.199219 278.28125 C 172.875 281.914062 175.367188 285.105469 179.023438 286.878906 C 182.441406 288.539062 186.246094 289.011719 189.976562 289.5 C 191.164062 289.652344 191.152344 287.785156 189.976562 287.632812 C 186.769531 287.214844 183.445312 286.8125 180.464844 285.496094 C 177.183594 284.054688 174.921875 281.496094 173.304688 278.347656 C 171.546875 274.929688 170.558594 271.125 169.628906 267.414062 C 168.636719 263.453125 167.847656 259.445312 167.21875 255.410156 C 165.960938 247.359375 165.367188 239.21875 165.050781 231.078125 C 164.734375 222.90625 164.511719 214.710938 164.425781 206.535156 C 164.328125 197.296875 164.648438 188.015625 166.453125 178.929688 C 166.6875 177.757812 164.886719 177.253906 164.652344 178.433594 " fill-opacity="1" fill-rule="nonzero"/><path fill="#ca6945" d="M 167.699219 156.519531 C 167.699219 156.519531 178.855469 162.972656 181.59375 164.792969 C 184.328125 166.617188 176.261719 183.859375 172.679688 184.421875 C 169.101562 184.980469 162.296875 182.316406 159.136719 180.988281 C 155.980469 179.65625 152.191406 176.007812 152.191406 176.007812 L 167.699219 156.519531 " fill-opacity="1" fill-rule="nonzero"/><path fill="#ca6945" d="M 219.410156 176.871094 C 219.410156 176.871094 188.582031 196.363281 186.792969 199.792969 C 185.003906 203.222656 196.824219 212.640625 199.792969 213.050781 C 202.765625 213.460938 216.070312 203.886719 219.941406 200.75 C 223.8125 197.617188 230.488281 191.875 230.488281 191.875 L 219.410156 176.871094 " fill-opacity="1" fill-rule="nonzero"/><path fill="#ca6945" d="M 217.039062 173.808594 C 217.039062 173.808594 199.894531 184.675781 198.421875 186.84375 C 196.949219 189.011719 198.960938 191.390625 198.960938 191.390625 L 219.410156 176.871094 L 217.039062 173.808594 " fill-opacity="1" fill-rule="nonzero"/><path fill="#ff9e7d" d="M 171.375 155.800781 C 171.242188 155.671875 170.519531 155.097656 169.445312 154.214844 C 167.507812 152.628906 164.433594 150.03125 161.6875 147.226562 L 161.6875 147.222656 C 158.664062 144.136719 156.046875 140.796875 155.777344 138.257812 C 155.628906 136.832031 155.707031 135.167969 155.941406 133.347656 C 156.734375 127.300781 159.3125 119.566406 161.269531 113.320312 C 161.269531 113.320312 161.269531 113.316406 161.269531 113.3125 C 162.058594 110.792969 162.742188 108.519531 163.167969 106.695312 C 163.191406 106.609375 163.207031 106.527344 163.226562 106.4375 C 166.925781 90.242188 164.613281 62.816406 164.613281 62.816406 C 164.613281 62.816406 156.179688 64.648438 149.824219 70.5 C 141.882812 77.808594 141.292969 81.964844 136.660156 91.976562 C 133.234375 99.390625 130.109375 106.949219 127.605469 114.8125 C 123.734375 126.953125 120.441406 140.214844 126.03125 152.328125 C 126.617188 153.597656 127.210938 154.878906 127.960938 156.039062 C 131.496094 161.519531 135.707031 166.433594 140.25 170.898438 C 141.25 171.878906 144.191406 173.964844 147.371094 176.074219 C 147.648438 176.257812 147.925781 176.441406 148.207031 176.625 C 151.21875 178.601562 154.304688 180.507812 156.042969 181.445312 C 156.84375 181.875 157.355469 182.097656 157.449219 182.03125 C 157.90625 181.707031 158.234375 181.214844 158.539062 180.710938 C 158.589844 180.621094 158.640625 180.535156 158.691406 180.449219 C 160.800781 176.824219 163.457031 172.0625 165.792969 167.695312 C 167.820312 163.910156 169.605469 160.414062 170.59375 158.203125 C 171.210938 156.824219 171.515625 155.941406 171.375 155.800781 " fill-opacity="1" fill-rule="nonzero"/><path fill="#ff9e7d" d="M 267.109375 137.648438 C 267.636719 130.0625 267.601562 122.800781 266.714844 115.257812 C 265.96875 108.898438 263.363281 101.175781 260.988281 95.183594 C 257.300781 85.890625 250.6875 78.878906 242.230469 73.75 C 242.230469 73.75 239.652344 96.535156 239.644531 97.847656 C 239.539062 113.871094 239.007812 130.460938 233.464844 145.683594 C 230.109375 154.894531 213.710938 172.695312 212.679688 173.882812 C 211.90625 174.777344 213.941406 177.425781 214.382812 178.21875 C 217.886719 184.523438 222.226562 190.378906 227.148438 195.648438 C 227.523438 196.046875 227.921875 196.457031 228.4375 196.636719 C 229.71875 197.082031 230.945312 195.324219 231.820312 194.652344 C 233.277344 193.53125 234.667969 192.3125 236.039062 191.09375 C 238.25 189.121094 240.367188 187.054688 242.539062 185.035156 C 255.125 173.332031 262.871094 163.777344 265.953125 146.941406 C 266.515625 143.863281 266.890625 140.765625 267.109375 137.648438 " fill-opacity="1" fill-rule="nonzero"/><path fill="#ff9e7d" d="M 289.753906 349.867188 C 289.753906 349.875 289.75 349.878906 289.75 349.886719 C 289.746094 349.890625 289.746094 349.894531 289.742188 349.898438 C 289.328125 350.570312 276.1875 350.40625 262.4375 350.402344 C 251.339844 350.398438 239.546875 350.765625 238.351562 350.132812 C 238.332031 350.121094 238.3125 350.113281 238.296875 350.101562 C 237.707031 349.640625 235.957031 344.195312 232.722656 337.109375 C 237.308594 338.058594 269.632812 340.027344 275.96875 340.535156 C 282.25 344.675781 289.191406 349.183594 289.734375 349.820312 C 289.746094 349.835938 289.753906 349.851562 289.753906 349.867188 " fill-opacity="1" fill-rule="nonzero"/><path fill="#542525" d="M 203.917969 54.921875 C 205 56.792969 206.25 58.578125 207.929688 59.964844 C 209.953125 61.644531 212.378906 62.664062 214.902344 63.347656 C 215.480469 63.503906 215.730469 62.605469 215.148438 62.445312 C 212.722656 61.785156 210.347656 60.816406 208.417969 59.164062 C 206.878906 57.84375 205.730469 56.191406 204.722656 54.449219 C 204.421875 53.929688 203.617188 54.398438 203.917969 54.921875 " fill-opacity="1" fill-rule="nonzero"/><path fill="#542525" d="M 213.367188 45.101562 C 213.078125 44.09375 211.652344 44.132812 211.152344 44.933594 C 210.664062 45.714844 211.019531 47.253906 212.140625 47.175781 C 213.074219 47.109375 213.601562 45.917969 213.367188 45.101562 " fill-opacity="1" fill-rule="nonzero"/><path fill="#542525" d="M 226.253906 45.886719 C 226.117188 45.425781 225.769531 45.066406 225.179688 45.105469 C 224 45.058594 223.710938 46.378906 224 47.28125 C 224.140625 47.722656 224.605469 47.976562 225.050781 47.953125 C 225.546875 47.925781 225.867188 47.574219 226.105469 47.171875 C 226.320312 46.800781 226.375 46.300781 226.253906 45.886719 " fill-opacity="1" fill-rule="nonzero"/><path fill="#713434" d="M 213.6875 40.542969 C 212.429688 40.191406 211.117188 40.328125 209.871094 40.679688 C 209.019531 40.921875 208.015625 41.453125 208.199219 42.5 C 208.292969 43.027344 209.085938 42.824219 209.46875 42.832031 C 210.15625 42.859375 210.992188 42.90625 211.671875 42.878906 C 212.363281 42.855469 213.0625 42.9375 213.746094 43.054688 C 214.058594 43.113281 214.375 43.171875 214.691406 43.152344 C 215.527344 43.101562 216.292969 42.113281 215.652344 41.359375 C 215.273438 40.910156 214.578125 40.769531 214.039062 40.632812 C 213.921875 40.601562 213.804688 40.574219 213.6875 40.542969 " fill-opacity="1" fill-rule="nonzero"/><path fill="#713434" d="M 229.539062 42.84375 C 228.882812 41.535156 226.402344 41.058594 225.054688 41.257812 C 224.304688 41.367188 222.59375 42.367188 223.695312 43.160156 C 224.234375 43.546875 225.042969 43.441406 225.671875 43.496094 C 226.210938 43.550781 226.746094 43.613281 227.28125 43.691406 C 227.757812 43.761719 228.230469 43.902344 228.710938 43.773438 C 229.109375 43.65625 229.773438 43.316406 229.539062 42.84375 " fill-opacity="1" fill-rule="nonzero"/><path fill="#542525" d="M 220.089844 47.828125 C 220.195312 48.460938 220.320312 49.09375 220.46875 49.71875 C 220.558594 50.085938 220.644531 50.101562 220.378906 50.335938 C 220.132812 50.550781 219.710938 50.621094 219.402344 50.691406 C 218.816406 50.824219 219.066406 51.722656 219.652344 51.59375 C 220.242188 51.460938 221.390625 51.132812 221.542969 50.445312 C 221.625 50.078125 221.390625 49.570312 221.3125 49.222656 C 221.1875 48.679688 221.082031 48.128906 220.992188 47.578125 C 220.894531 46.988281 219.992188 47.238281 220.089844 47.828125 " fill-opacity="1" fill-rule="nonzero"/><path fill="#ffffff" d="M 220.984375 53.53125 C 220.074219 53.460938 219.125 53.679688 218.210938 53.691406 C 217.289062 53.703125 216.375 53.640625 215.460938 53.539062 C 215.09375 53.496094 214.492188 53.761719 214.34375 54.117188 C 214.125 54.613281 214.667969 55.394531 214.96875 55.714844 C 215.710938 56.5 216.664062 56.914062 217.761719 57.0625 C 218.921875 57.21875 220.15625 56.734375 221 55.941406 C 221.632812 55.34375 222.390625 53.640625 220.984375 53.53125 " fill-opacity="1" fill-rule="nonzero"/><path fill="#542525" d="M 197.164062 63.046875 C 199.617188 72.34375 210.828125 76.734375 219.394531 73.304688 C 221.824219 72.332031 223.914062 70.785156 225.503906 68.710938 C 225.867188 68.230469 225.058594 67.765625 224.695312 68.234375 C 217.605469 77.507812 201.019531 73.984375 198.0625 62.796875 C 197.910156 62.21875 197.007812 62.464844 197.164062 63.046875 " fill-opacity="1" fill-rule="nonzero"/><path fill="#542525" d="M 182.53125 62.148438 C 180.820312 65.640625 179.183594 69.183594 177.691406 72.773438 C 176.929688 74.613281 175.992188 76.585938 175.71875 78.574219 C 175.449219 80.582031 177.589844 82.042969 179.039062 83.023438 C 180.753906 84.183594 182.617188 85.175781 184.511719 86.015625 C 184.550781 85.730469 184.589844 85.449219 184.625 85.164062 C 182.328125 86.089844 180.046875 87.265625 178.078125 88.777344 C 177.015625 89.589844 175.816406 90.640625 175.417969 91.976562 C 175.195312 92.710938 175.265625 93.53125 175.339844 94.285156 C 175.632812 97.261719 176.425781 100.207031 177.222656 103.082031 C 178.269531 106.867188 179.484375 110.613281 180.820312 114.308594 C 182.207031 118.136719 183.699219 121.953125 185.558594 125.578125 C 185.832031 126.109375 186.640625 125.640625 186.363281 125.105469 C 183.078125 118.703125 180.726562 111.738281 178.699219 104.855469 C 177.820312 101.855469 176.980469 98.816406 176.472656 95.734375 C 176.320312 94.816406 176.179688 93.871094 176.214844 92.941406 C 176.253906 91.855469 176.945312 91.023438 177.707031 90.300781 C 179.695312 88.429688 182.351562 87.078125 184.875 86.066406 C 185.195312 85.933594 185.398438 85.394531 184.984375 85.207031 C 183.507812 84.558594 182.066406 83.796875 180.683594 82.964844 C 179.632812 82.328125 178.582031 81.644531 177.699219 80.789062 C 177.121094 80.226562 176.539062 79.574219 176.636719 78.722656 C 176.839844 76.910156 177.761719 75.054688 178.445312 73.386719 C 179.386719 71.089844 180.410156 68.828125 181.457031 66.574219 C 182.074219 65.253906 182.695312 63.929688 183.339844 62.621094 C 183.601562 62.082031 182.796875 61.605469 182.53125 62.148438 " fill-opacity="1" fill-rule="nonzero"/><path fill="#542525" d="M 238.269531 73.722656 C 239.464844 75.957031 240.578125 78.269531 241.460938 80.644531 C 241.800781 81.558594 242.636719 83.285156 242.214844 84.277344 C 241.988281 84.8125 241.277344 85.292969 240.839844 85.644531 C 240.128906 86.21875 239.371094 86.738281 238.605469 87.242188 C 237.46875 87.996094 236.300781 88.714844 235.113281 89.386719 C 234.863281 89.53125 234.796875 89.921875 235.019531 90.121094 C 237.335938 92.203125 239.699219 94.445312 241.492188 96.996094 C 241.898438 97.570312 242.386719 98.246094 242.503906 98.953125 C 242.539062 99.183594 242.472656 99.351562 242.359375 99.683594 C 242.023438 100.664062 241.550781 101.609375 241.105469 102.546875 C 237.921875 109.222656 234.339844 115.71875 230.8125 122.21875 C 229.8125 124.054688 228.8125 125.890625 227.804688 127.71875 C 227.511719 128.246094 228.320312 128.71875 228.609375 128.191406 C 231.34375 123.234375 234.039062 118.253906 236.683594 113.25 C 238.433594 109.945312 240.175781 106.632812 241.796875 103.261719 C 242.292969 102.230469 242.796875 101.191406 243.191406 100.121094 C 243.535156 99.195312 243.4375 98.476562 242.964844 97.585938 C 241.957031 95.675781 240.320312 94.027344 238.824219 92.496094 C 237.808594 91.453125 236.761719 90.433594 235.679688 89.460938 C 235.648438 89.707031 235.617188 89.953125 235.585938 90.195312 C 236.683594 89.570312 237.761719 88.910156 238.816406 88.222656 C 240.1875 87.328125 241.929688 86.335938 242.878906 84.957031 C 243.558594 83.96875 243.074219 82.546875 242.75 81.507812 C 242.203125 79.78125 241.457031 78.113281 240.6875 76.472656 C 240.175781 75.390625 239.644531 74.3125 239.078125 73.25 C 238.796875 72.722656 237.988281 73.191406 238.269531 73.722656 " fill-opacity="1" fill-rule="nonzero"/><path fill="#542525" d="M 238.390625 119.652344 C 238.171875 124.398438 237.511719 129.1875 236.449219 133.820312 C 235.011719 140.082031 232.292969 145.933594 229.304688 151.59375 C 228.558594 153.007812 227.796875 154.414062 226.988281 155.792969 C 226.683594 156.3125 227.492188 156.78125 227.796875 156.265625 C 229.980469 152.535156 231.953125 148.652344 233.703125 144.699219 C 235.058594 141.648438 236.242188 138.53125 237.054688 135.289062 C 237.878906 132.015625 238.425781 128.671875 238.824219 125.324219 C 239.046875 123.441406 239.238281 121.546875 239.324219 119.652344 C 239.351562 119.050781 238.417969 119.054688 238.390625 119.652344 " fill-opacity="1" fill-rule="nonzero"/><path fill="#542525" d="M 164.375 104.128906 C 161.40625 109.933594 158.941406 116.113281 157.113281 122.363281 C 155.839844 126.722656 154.765625 131.371094 155.027344 135.941406 C 155.140625 137.964844 155.601562 139.832031 156.574219 141.617188 C 157.707031 143.707031 159.25 145.574219 160.875 147.296875 C 163.292969 149.871094 165.992188 152.261719 168.859375 154.332031 C 169.347656 154.6875 169.816406 153.875 169.332031 153.527344 C 167.019531 151.855469 164.84375 149.949219 162.816406 147.949219 C 159.734375 144.910156 156.492188 141.28125 156.027344 136.800781 C 155.578125 132.425781 156.535156 127.9375 157.695312 123.738281 C 158.882812 119.425781 160.441406 115.207031 162.195312 111.089844 C 163.125 108.898438 164.097656 106.714844 165.179688 104.597656 C 165.453125 104.0625 164.648438 103.589844 164.375 104.128906 " fill-opacity="1" fill-rule="nonzero"/><path fill="#542525" d="M 148.347656 177.273438 C 150.703125 178.726562 153.058594 180.179688 155.414062 181.628906 C 155.925781 181.945312 156.394531 181.140625 155.882812 180.824219 C 153.527344 179.371094 151.175781 177.921875 148.820312 176.46875 C 148.304688 176.152344 147.835938 176.960938 148.347656 177.273438 " fill-opacity="1" fill-rule="nonzero"/><path fill="#420c0c" d="M 197.507812 17.414062 C 198.453125 16.007812 199.722656 14.664062 201.160156 13.757812 C 202.734375 12.769531 205.207031 12.148438 207.074219 12.570312 C 207.660156 12.703125 207.910156 11.804688 207.324219 11.671875 C 205.292969 11.207031 202.65625 11.785156 200.902344 12.820312 C 199.226562 13.808594 197.78125 15.335938 196.703125 16.945312 C 196.367188 17.445312 197.175781 17.914062 197.507812 17.414062 " fill-opacity="1" fill-rule="nonzero"/><path fill="#420c0c" d="M 201.792969 32.277344 C 209.226562 31.796875 216.539062 30.183594 223.476562 27.472656 C 224.03125 27.253906 223.789062 26.351562 223.226562 26.570312 C 216.371094 29.253906 209.144531 30.867188 201.792969 31.339844 C 201.199219 31.378906 201.191406 32.316406 201.792969 32.277344 " fill-opacity="1" fill-rule="nonzero"/><path fill="#420c0c" d="M 215.332031 34.398438 C 217.375 33.582031 219.304688 32.558594 221.109375 31.300781 C 221.601562 30.960938 221.132812 30.152344 220.636719 30.496094 C 218.902344 31.703125 217.050781 32.710938 215.082031 33.5 C 214.53125 33.71875 214.773438 34.621094 215.332031 34.398438 " fill-opacity="1" fill-rule="nonzero"/><path fill="#542525" d="M 170.941406 179.964844 C 172.296875 180.300781 173.652344 180.632812 175.007812 180.964844 C 175.589844 181.109375 175.839844 180.210938 175.253906 180.066406 C 173.898438 179.730469 172.542969 179.398438 171.1875 179.066406 C 170.605469 178.921875 170.355469 179.820312 170.941406 179.964844 " fill-opacity="1" fill-rule="nonzero"/><path fill="#542525" d="M 173.609375 174.1875 C 174.871094 174.617188 176.132812 175.046875 177.394531 175.472656 C 177.964844 175.667969 178.210938 174.765625 177.644531 174.574219 C 176.382812 174.144531 175.121094 173.714844 173.859375 173.289062 C 173.285156 173.09375 173.042969 173.996094 173.609375 174.1875 " fill-opacity="1" fill-rule="nonzero"/><path fill="#542525" d="M 175.851562 169.160156 C 176.996094 169.597656 178.140625 170.035156 179.289062 170.472656 C 179.847656 170.6875 180.09375 169.785156 179.535156 169.570312 C 178.390625 169.132812 177.246094 168.695312 176.101562 168.257812 C 175.539062 168.042969 175.292969 168.945312 175.851562 169.160156 " fill-opacity="1" fill-rule="nonzero"/><path fill="#542525" d="M 190.105469 203.199219 C 193.410156 200.660156 196.828125 198.277344 200.355469 196.058594 C 200.863281 195.738281 200.394531 194.929688 199.882812 195.25 C 196.355469 197.472656 192.9375 199.855469 189.632812 202.394531 C 189.164062 202.757812 189.628906 203.566406 190.105469 203.199219 " fill-opacity="1" fill-rule="nonzero"/><path fill="#542525" d="M 194.015625 206.808594 C 197.367188 204.96875 200.539062 202.84375 203.53125 200.464844 C 204 200.089844 203.335938 199.433594 202.871094 199.804688 C 199.941406 202.132812 196.824219 204.199219 193.542969 206.003906 C 193.015625 206.292969 193.484375 207.097656 194.015625 206.808594 " fill-opacity="1" fill-rule="nonzero"/><path fill="#542525" d="M 197.761719 210.527344 C 200.8125 209.125 203.667969 207.425781 206.410156 205.492188 C 206.902344 205.148438 206.433594 204.339844 205.941406 204.6875 C 203.195312 206.617188 200.34375 208.316406 197.289062 209.722656 C 196.746094 209.972656 197.21875 210.777344 197.761719 210.527344 " fill-opacity="1" fill-rule="nonzero"/><path fill="#542525" d="M 200.535156 189.890625 C 203.226562 187.757812 206.070312 185.835938 209.050781 184.132812 C 209.570312 183.832031 209.101562 183.027344 208.578125 183.324219 C 205.527344 185.074219 202.628906 187.046875 199.875 189.230469 C 199.40625 189.601562 200.070312 190.257812 200.535156 189.890625 " fill-opacity="1" fill-rule="nonzero"/><path fill="#ffffff" d="M 219.203125 253.355469 C 217.753906 265.585938 215.511719 279.234375 215.210938 281.507812 C 214.6875 285.503906 214.160156 297.59375 208.265625 307.058594 C 203.789062 314.242188 189.320312 324.082031 164.058594 318.621094 C 154.660156 316.585938 148.71875 313.691406 141.390625 311.683594 C 129.019531 308.296875 117.957031 306.21875 117.957031 306.21875 L 87.222656 305.164062 C 87.222656 305.164062 86.6875 301.914062 86.433594 297.65625 C 86.039062 291.035156 86.316406 281.972656 90.320312 278.894531 C 90.484375 278.765625 90.679688 278.648438 90.910156 278.535156 C 101.289062 273.347656 180.625 276.367188 180.625 276.367188 L 189.742188 266.683594 C 189.742188 266.683594 189.742188 247.125 196.476562 242.496094 C 199.222656 240.609375 201.453125 239.578125 203.246094 238.949219 C 205.851562 238.035156 207.535156 237.964844 208.546875 237.34375 C 210.265625 236.292969 211 229.351562 211.527344 228.828125 C 212.054688 228.300781 217.632812 228.722656 219.949219 233.558594 C 220.945312 235.640625 220.300781 244.09375 219.203125 253.355469 " fill-opacity="1" fill-rule="nonzero"/><path fill="#ffffff" d="M 87.222656 305.164062 C 87.222656 305.164062 87.855469 306.953125 87.75 310.109375 C 87.644531 313.261719 80.277344 324.828125 80.066406 327.773438 C 79.855469 330.714844 80.75 362.449219 81.167969 363.5 C 81.347656 363.945312 83.871094 363.816406 86.835938 363.875 C 92.027344 363.976562 95.21875 363.960938 95.644531 363.839844 C 96.378906 363.628906 95.4375 359.84375 93.355469 359.160156 C 91.273438 358.476562 88.625 357.601562 88.625 357.601562 C 88.625 357.601562 91.769531 336.570312 93.355469 335.519531 C 94.941406 334.46875 103.644531 331.945312 113.1875 321.359375 C 122.730469 310.773438 124.0625 303.625 124.0625 303.625 L 87.222656 305.164062 " fill-opacity="1" fill-rule="nonzero"/><path fill="#ffffff" d="M 180.898438 306.953125 C 180.898438 306.953125 182.144531 319.796875 181.933594 322.742188 C 181.722656 325.6875 182.613281 357.417969 183.035156 358.46875 C 183.214844 358.914062 185.738281 358.785156 188.703125 358.84375 C 193.894531 358.945312 197.085938 358.929688 197.511719 358.808594 C 198.246094 358.597656 197.300781 354.8125 195.222656 354.128906 C 193.140625 353.445312 190.492188 352.570312 190.492188 352.570312 L 199.914062 306.953125 L 180.898438 306.953125 " fill-opacity="1" fill-rule="nonzero"/><path fill="#ffffff" d="M 185.742188 307.058594 C 185.742188 307.058594 190.132812 316.007812 192.253906 318.160156 C 194.371094 320.304688 200.476562 319.894531 207.632812 320.207031 C 214.789062 320.515625 217.527344 319.78125 219.316406 321.359375 C 221.105469 322.9375 221.703125 339.515625 222.597656 340.304688 C 223.375 340.992188 228.226562 341.898438 229.210938 338.496094 C 229.632812 337.035156 230.402344 337.445312 230.296875 328.71875 C 230.191406 319.992188 228.789062 311.265625 225.949219 309.792969 C 224.066406 308.816406 221.84375 308.847656 214.160156 308.320312 C 211.1875 308.117188 208.292969 308.078125 207.664062 307.085938 C 206.597656 305.414062 205.84375 299.589844 205.84375 299.589844 L 185.742188 307.058594 " fill-opacity="1" fill-rule="nonzero"/><path fill="#ffffff" d="M 109.898438 304.214844 C 109.898438 304.214844 110.601562 322.9375 111.851562 326.828125 C 114.238281 334.257812 126.03125 358.890625 127.148438 358.910156 C 128.269531 358.933594 141.394531 358.933594 141.8125 358.933594 C 142.230469 358.933594 141.929688 354.566406 137.816406 353.710938 C 134.9375 353.109375 133.78125 352.796875 133.78125 352.796875 C 133.78125 352.796875 125.871094 331.734375 126.722656 330.472656 C 127.570312 329.210938 136.273438 322.339844 139.78125 314.910156 C 143.289062 307.480469 143.542969 304.214844 143.542969 304.214844 L 109.898438 304.214844 " fill-opacity="1" fill-rule="nonzero"/><path fill="#ffffff" d="M 88.417969 293.597656 C 87.898438 294.222656 87.21875 295.675781 86.433594 297.65625 C 84.628906 302.230469 82.273438 309.636719 80.109375 316.253906 C 78.371094 321.574219 76.757812 326.382812 75.644531 328.804688 C 72.558594 335.535156 70.3125 335.8125 70.59375 331.363281 C 70.714844 329.445312 71.089844 324.507812 71.808594 318.464844 C 72.757812 310.464844 74.308594 300.535156 76.65625 293.140625 C 80.699219 280.417969 90.910156 278.535156 90.910156 278.535156 C 90.910156 278.535156 91.089844 290.375 88.417969 293.597656 " fill-opacity="1" fill-rule="nonzero"/><path fill="#ca6945" d="M 204.96875 261.457031 C 204.285156 260.648438 203.679688 259.785156 202.957031 259.003906 C 202.132812 258.105469 201.171875 257.335938 200.253906 256.539062 C 193.964844 251.085938 193.664062 263.933594 195.226562 267.207031 C 195.621094 268.039062 195.976562 268.632812 196.125 269.546875 C 196.269531 270.449219 196.605469 271.273438 197.089844 272.046875 C 198.238281 273.894531 200.621094 274.113281 202.558594 274.402344 C 204.554688 274.699219 206.746094 274.484375 208.734375 274.191406 C 209.496094 274.078125 210.21875 273.894531 210.777344 273.3125 C 211.472656 272.589844 211.4375 271.671875 211.445312 270.730469 C 211.488281 266.6875 207.300781 264.222656 204.96875 261.457031 " fill-opacity="1" fill-rule="nonzero"/><path fill="#ca6945" d="M 219.949219 233.558594 C 219.917969 233.492188 219.886719 233.429688 219.855469 233.371094 C 219.828125 233.3125 219.796875 233.257812 219.769531 233.207031 C 219.707031 233.089844 219.644531 232.976562 219.578125 232.867188 C 219.546875 232.8125 219.511719 232.757812 219.480469 232.707031 C 219.410156 232.59375 219.339844 232.484375 219.265625 232.378906 C 219.234375 232.335938 219.203125 232.292969 219.171875 232.246094 C 219.101562 232.144531 219.023438 232.046875 218.945312 231.949219 C 218.910156 231.902344 218.871094 231.855469 218.835938 231.8125 C 218.796875 231.765625 218.757812 231.71875 218.71875 231.675781 C 218.640625 231.585938 218.566406 231.5 218.488281 231.417969 C 218.445312 231.371094 218.40625 231.328125 218.359375 231.289062 C 218.324219 231.246094 218.28125 231.207031 218.242188 231.167969 C 218.050781 230.976562 217.851562 230.800781 217.648438 230.636719 C 217.609375 230.605469 217.570312 230.574219 217.527344 230.542969 C 217.382812 230.425781 217.234375 230.320312 217.085938 230.21875 C 217.03125 230.179688 216.972656 230.140625 216.914062 230.105469 C 216.839844 230.054688 216.765625 230.007812 216.6875 229.960938 C 216.597656 229.90625 216.507812 229.855469 216.417969 229.804688 C 216.382812 229.785156 216.347656 229.765625 216.3125 229.746094 C 216.167969 229.664062 216.019531 229.59375 215.875 229.523438 C 215.742188 229.460938 215.613281 229.398438 215.480469 229.34375 C 215.390625 229.304688 215.304688 229.273438 215.214844 229.238281 C 215.171875 229.21875 215.128906 229.203125 215.085938 229.1875 C 215.015625 229.164062 214.949219 229.136719 214.882812 229.117188 C 214.816406 229.09375 214.753906 229.074219 214.695312 229.054688 C 214.609375 229.027344 214.527344 229 214.441406 228.976562 C 214.390625 228.960938 214.335938 228.945312 214.285156 228.933594 C 214.277344 228.929688 214.265625 228.925781 214.253906 228.921875 C 214.246094 228.921875 214.234375 228.917969 214.226562 228.917969 C 214.214844 228.914062 214.203125 228.910156 214.191406 228.910156 C 214.183594 228.90625 214.171875 228.902344 214.164062 228.902344 C 214.132812 228.890625 214.101562 228.882812 214.070312 228.878906 C 214.0625 228.875 214.054688 228.875 214.046875 228.871094 C 214.019531 228.863281 213.992188 228.859375 213.964844 228.851562 C 213.960938 228.851562 213.957031 228.847656 213.949219 228.847656 C 213.945312 228.847656 213.945312 228.847656 213.941406 228.84375 C 213.9375 228.84375 213.933594 228.84375 213.929688 228.84375 C 213.855469 228.828125 213.78125 228.808594 213.710938 228.796875 C 213.65625 228.785156 213.601562 228.773438 213.546875 228.765625 C 213.535156 228.761719 213.527344 228.761719 213.519531 228.761719 C 213.472656 228.75 213.421875 228.746094 213.375 228.738281 C 213.335938 228.730469 213.300781 228.722656 213.261719 228.71875 C 213.253906 228.71875 213.246094 228.71875 213.238281 228.714844 C 213.234375 228.714844 213.230469 228.714844 213.230469 228.714844 C 213.207031 228.714844 213.183594 228.710938 213.160156 228.707031 C 213.140625 228.703125 213.125 228.703125 213.105469 228.699219 C 213.082031 228.695312 213.054688 228.695312 213.027344 228.691406 C 213.015625 228.6875 213.003906 228.6875 212.992188 228.6875 C 212.988281 228.6875 212.984375 228.683594 212.976562 228.683594 C 212.835938 228.667969 212.699219 228.660156 212.574219 228.65625 C 212.554688 228.65625 212.539062 228.65625 212.519531 228.65625 C 212.003906 228.640625 211.644531 228.710938 211.527344 228.828125 C 211.519531 228.832031 211.511719 228.84375 211.503906 228.855469 C 211.5 228.859375 211.496094 228.867188 211.492188 228.871094 C 211.484375 228.882812 211.476562 228.894531 211.46875 228.910156 C 211.457031 228.929688 211.445312 228.953125 211.433594 228.980469 C 211.433594 228.980469 211.433594 228.984375 211.433594 228.984375 C 211.421875 229.007812 211.410156 229.03125 211.402344 229.058594 C 211.390625 229.085938 211.378906 229.117188 211.371094 229.148438 C 211.359375 229.179688 211.347656 229.214844 211.335938 229.25 C 211.300781 229.355469 211.269531 229.472656 211.234375 229.605469 C 211.195312 229.746094 211.15625 229.902344 211.117188 230.074219 C 211.105469 230.128906 211.09375 230.1875 211.078125 230.246094 C 211.058594 230.332031 211.039062 230.421875 211.015625 230.519531 C 210.996094 230.609375 210.976562 230.699219 210.957031 230.792969 C 210.875 231.167969 210.789062 231.574219 210.691406 231.992188 C 210.664062 232.109375 210.640625 232.230469 210.613281 232.347656 C 210.605469 232.375 210.597656 232.40625 210.589844 232.433594 C 210.570312 232.515625 210.554688 232.601562 210.535156 232.683594 C 210.457031 233.015625 210.375 233.351562 210.285156 233.683594 C 210.265625 233.765625 210.242188 233.847656 210.21875 233.929688 C 210.214844 233.945312 210.210938 233.957031 210.207031 233.972656 C 210.191406 234.03125 210.175781 234.089844 210.15625 234.148438 C 210.089844 234.398438 210.015625 234.644531 209.9375 234.878906 C 209.910156 234.964844 209.882812 235.046875 209.855469 235.128906 C 209.828125 235.203125 209.804688 235.269531 209.78125 235.339844 C 209.761719 235.390625 209.742188 235.441406 209.722656 235.492188 C 209.683594 235.59375 209.644531 235.695312 209.605469 235.792969 C 209.582031 235.84375 209.5625 235.890625 209.542969 235.9375 C 209.523438 235.984375 209.503906 236.027344 209.484375 236.074219 C 209.375 236.304688 209.265625 236.515625 209.148438 236.699219 C 209.132812 236.726562 209.113281 236.753906 209.09375 236.78125 C 209.054688 236.839844 209.011719 236.894531 208.972656 236.949219 C 208.957031 236.96875 208.9375 236.988281 208.921875 237.007812 C 208.898438 237.039062 208.875 237.0625 208.851562 237.089844 C 208.828125 237.117188 208.804688 237.140625 208.777344 237.164062 C 208.730469 237.210938 208.679688 237.253906 208.628906 237.289062 C 208.605469 237.3125 208.574219 237.328125 208.550781 237.34375 C 208.46875 237.394531 208.378906 237.441406 208.285156 237.484375 C 208.246094 237.507812 208.203125 237.523438 208.160156 237.542969 C 207.890625 237.660156 207.585938 237.757812 207.242188 237.851562 C 207.199219 237.859375 207.15625 237.871094 207.113281 237.882812 C 207 237.914062 206.875 237.945312 206.753906 237.976562 C 206.5625 238.023438 206.367188 238.070312 206.15625 238.117188 C 205.988281 238.15625 205.8125 238.203125 205.632812 238.246094 C 205.625 238.246094 205.621094 238.246094 205.617188 238.25 C 205.449219 238.292969 205.277344 238.335938 205.101562 238.382812 C 204.9375 238.425781 204.769531 238.472656 204.597656 238.519531 C 204.535156 238.539062 204.46875 238.558594 204.402344 238.578125 C 204.328125 238.597656 204.253906 238.621094 204.183594 238.644531 C 203.988281 238.703125 203.785156 238.765625 203.578125 238.835938 C 203.46875 238.871094 203.359375 238.910156 203.246094 238.949219 C 203.265625 238.964844 203.292969 238.972656 203.3125 238.988281 C 203.800781 239.238281 204.292969 239.429688 204.785156 239.574219 C 208.996094 240.84375 213.226562 238.953125 215.449219 244.40625 C 216.171875 246.175781 216.507812 248.082031 217.15625 249.878906 C 217.539062 250.933594 218.246094 252.386719 219.203125 253.355469 C 220.300781 244.09375 220.949219 235.640625 219.949219 233.558594 " fill-opacity="1" fill-rule="nonzero"/><path fill="#ca6945" d="M 77.65625 316.742188 C 76.671875 317.121094 75.832031 317.972656 74.816406 318.257812 C 73.859375 318.527344 72.808594 318.273438 71.808594 318.460938 C 71.089844 324.507812 70.710938 329.445312 70.59375 331.363281 C 70.3125 335.8125 72.558594 335.53125 75.644531 328.804688 C 76.753906 326.382812 78.371094 321.574219 80.109375 316.253906 C 79.265625 316.253906 78.339844 316.476562 77.65625 316.742188 " fill-opacity="1" fill-rule="nonzero"/><path fill="#542525" d="M 180.632812 275.910156 C 184.183594 281.429688 189.019531 286.40625 194.65625 289.804688 C 200.21875 293.160156 206.476562 294.742188 212.792969 295.980469 C 214.554688 296.324219 215.308594 293.625 213.539062 293.277344 C 207.554688 292.109375 201.632812 290.667969 196.332031 287.542969 C 190.996094 284.394531 186.398438 279.6875 183.054688 274.496094 C 182.082031 272.988281 179.652344 274.390625 180.632812 275.910156 " fill-opacity="1" fill-rule="nonzero"/><path fill="#542525" d="M 216.773438 234.636719 C 217.261719 235.214844 217.746094 236.113281 217.125 236.78125 C 216.714844 237.21875 217.375 237.878906 217.789062 237.4375 C 218.789062 236.367188 218.273438 234.960938 217.433594 233.976562 C 217.042969 233.519531 216.386719 234.183594 216.773438 234.636719 " fill-opacity="1" fill-rule="nonzero"/><path fill="#542525" d="M 206.847656 243.066406 C 206.5 242.761719 206.023438 242.730469 205.582031 242.726562 C 205.148438 242.722656 204.804688 242.984375 204.640625 243.316406 C 204.382812 243.726562 204.367188 244.296875 204.808594 244.617188 C 205.476562 245.109375 206.757812 245.042969 207.082031 244.175781 C 207.226562 243.785156 207.167969 243.34375 206.847656 243.066406 " fill-opacity="1" fill-rule="nonzero"/><path fill="#542525" d="M 214.226562 228.917969 C 214.175781 229.042969 214.101562 229.167969 214.015625 229.273438 C 213.328125 230.125 212.070312 230.738281 210.957031 230.792969 C 211.183594 229.765625 211.367188 228.988281 211.527344 228.828125 C 211.746094 228.605469 212.851562 228.550781 214.226562 228.917969 " fill-opacity="1" fill-rule="nonzero"/><path fill="#542525" d="M 201.855469 242.777344 C 200.988281 241.878906 199.808594 242.957031 200.3125 243.988281 C 200.480469 244.472656 200.816406 244.890625 201.3125 244.882812 C 201.808594 244.871094 202.105469 244.339844 202.175781 243.90625 C 202.25 243.476562 202.164062 243.09375 201.855469 242.777344 " fill-opacity="1" fill-rule="nonzero"/><path fill="#542525" d="M 183.960938 310.367188 C 185.039062 313.164062 186.386719 315.917969 188.121094 318.375 C 188.773438 319.300781 189.574219 320.175781 190.722656 320.445312 C 192.160156 320.78125 193.847656 320.5 195.308594 320.453125 C 195.90625 320.433594 195.910156 319.496094 195.308594 319.515625 C 194.042969 319.558594 192.726562 319.710938 191.460938 319.609375 C 189.949219 319.492188 189.152344 318.28125 188.402344 317.117188 C 186.984375 314.910156 185.804688 312.566406 184.863281 310.121094 C 184.648438 309.5625 183.746094 309.804688 183.960938 310.367188 " fill-opacity="1" fill-rule="nonzero"/><path fill="#542525" d="M 203.789062 306.09375 C 204.859375 306.78125 206.035156 307.238281 207.289062 307.449219 C 207.878906 307.542969 208.132812 306.644531 207.539062 306.546875 C 206.351562 306.351562 205.269531 305.933594 204.261719 305.289062 C 203.753906 304.960938 203.285156 305.769531 203.789062 306.09375 " fill-opacity="1" fill-rule="nonzero"/><path fill="#542525" d="M 113.5625 320.949219 C 117.144531 317.503906 119.949219 313.378906 121.875 308.796875 C 122.105469 308.246094 121.203125 308.003906 120.972656 308.550781 C 119.113281 312.976562 116.359375 316.960938 112.902344 320.289062 C 112.46875 320.707031 113.128906 321.367188 113.5625 320.949219 " fill-opacity="1" fill-rule="nonzero"/><path fill="#542525" d="M 124.257812 307.953125 C 129.398438 309.808594 134.667969 311.261719 140.03125 312.304688 C 140.617188 312.417969 140.867188 311.519531 140.277344 311.40625 C 134.914062 310.363281 129.644531 308.910156 124.507812 307.054688 C 123.941406 306.847656 123.695312 307.75 124.257812 307.953125 " fill-opacity="1" fill-rule="nonzero"/><path fill="#542525" d="M 86.117188 291.050781 C 86.027344 292.8125 86.152344 294.558594 86.472656 296.292969 C 86.582031 296.882812 87.484375 296.632812 87.375 296.042969 C 87.066406 294.386719 86.96875 292.730469 87.054688 291.050781 C 87.082031 290.449219 86.148438 290.449219 86.117188 291.050781 " fill-opacity="1" fill-rule="nonzero"/><path fill="#542525" d="M 91.628906 360.566406 C 92.636719 360.566406 93.566406 361.027344 94.140625 361.863281 C 94.480469 362.351562 95.289062 361.886719 94.949219 361.390625 C 94.183594 360.28125 92.980469 359.628906 91.628906 359.628906 C 91.027344 359.628906 91.027344 360.566406 91.628906 360.566406 " fill-opacity="1" fill-rule="nonzero"/><path fill="#542525" d="M 136.574219 355.566406 C 137.671875 355.457031 138.660156 356 139.140625 356.992188 C 139.40625 357.535156 140.210938 357.058594 139.949219 356.519531 C 139.339844 355.261719 137.96875 354.492188 136.574219 354.632812 C 135.980469 354.691406 135.976562 355.625 136.574219 355.566406 " fill-opacity="1" fill-rule="nonzero"/><path fill="#542525" d="M 222.144531 311.460938 C 223.539062 311.480469 224.828125 312.105469 225.667969 313.230469 C 226.023438 313.703125 226.835938 313.238281 226.476562 312.757812 C 225.429688 311.363281 223.894531 310.550781 222.144531 310.527344 C 221.542969 310.519531 221.542969 311.453125 222.144531 311.460938 " fill-opacity="1" fill-rule="nonzero"/><path fill="#542525" d="M 192.800781 355.796875 C 193.960938 355.628906 195.074219 356.242188 195.640625 357.25 C 195.933594 357.773438 196.738281 357.304688 196.445312 356.777344 C 195.660156 355.371094 194.128906 354.671875 192.550781 354.894531 C 191.957031 354.980469 192.210938 355.882812 192.800781 355.796875 " fill-opacity="1" fill-rule="nonzero"/></svg>