<svg xmlns="http://www.w3.org/2000/svg" xmlns:xlink="http://www.w3.org/1999/xlink" width="500" zoomAndPan="magnify" viewBox="0 0 375 374.999991" height="500" preserveAspectRatio="xMidYMid meet" version="1.0"><defs><clipPath id="38304e07a3"><path d="M 0 75.359375 L 345.816406 75.359375 L 345.816406 375 L 0 375 Z M 0 75.359375 " clip-rule="nonzero"/></clipPath><clipPath id="62f0045bef"><path d="M 38.25 75.359375 L 307.566406 75.359375 C 317.710938 75.359375 327.441406 79.390625 334.613281 86.5625 C 341.789062 93.734375 345.816406 103.464844 345.816406 113.609375 L 345.816406 392.792969 C 345.816406 402.9375 341.789062 412.667969 334.613281 419.839844 C 327.441406 427.015625 317.710938 431.042969 307.566406 431.042969 L 38.25 431.042969 C 28.105469 431.042969 18.375 427.015625 11.203125 419.839844 C 4.03125 412.667969 0 402.9375 0 392.792969 L 0 113.609375 C 0 103.464844 4.03125 93.734375 11.203125 86.5625 C 18.375 79.390625 28.105469 75.359375 38.25 75.359375 " clip-rule="nonzero"/></clipPath><clipPath id="8fdbad140a"><path d="M 5.898438 82.761719 L 338.4375 82.761719 L 338.4375 294.90625 L 5.898438 294.90625 Z M 5.898438 82.761719 " clip-rule="nonzero"/></clipPath><clipPath id="04587b8106"><path d="M 44.148438 82.761719 L 300.1875 82.761719 C 310.332031 82.761719 320.0625 86.792969 327.234375 93.964844 C 334.410156 101.136719 338.4375 110.867188 338.4375 121.011719 L 338.4375 256.65625 C 338.4375 266.800781 334.410156 276.527344 327.234375 283.703125 C 320.0625 290.875 310.332031 294.90625 300.1875 294.90625 L 44.148438 294.90625 C 34.003906 294.90625 24.273438 290.875 17.101562 283.703125 C 9.925781 276.527344 5.898438 266.800781 5.898438 256.65625 L 5.898438 121.011719 C 5.898438 110.867188 9.925781 101.136719 17.101562 93.964844 C 24.273438 86.792969 34.003906 82.761719 44.148438 82.761719 " clip-rule="nonzero"/></clipPath><clipPath id="61328e347b"><path d="M 245 161 L 369 161 L 369 269 L 245 269 Z M 245 161 " clip-rule="nonzero"/></clipPath><clipPath id="69a25fb5af"><path d="M 274.132812 154.59375 L 375.109375 205.871094 L 331.640625 291.46875 L 230.664062 240.1875 Z M 274.132812 154.59375 " clip-rule="nonzero"/></clipPath><clipPath id="a9e7b2013b"><path d="M 274.132812 154.59375 L 375.109375 205.871094 L 331.640625 291.46875 L 230.664062 240.1875 Z M 274.132812 154.59375 " clip-rule="nonzero"/></clipPath><clipPath id="d70d8c06e2"><path d="M 274.132812 154.59375 L 375.109375 205.871094 L 331.640625 291.46875 L 230.664062 240.1875 Z M 274.132812 154.59375 " clip-rule="nonzero"/></clipPath><clipPath id="c5c50201ad"><path d="M 277 191 L 312 191 L 312 225 L 277 225 Z M 277 191 " clip-rule="nonzero"/></clipPath><clipPath id="31c5bc48c9"><path d="M 274.132812 154.59375 L 375.109375 205.871094 L 331.640625 291.46875 L 230.664062 240.1875 Z M 274.132812 154.59375 " clip-rule="nonzero"/></clipPath><clipPath id="f272ee7da0"><path d="M 274.132812 154.59375 L 375.109375 205.871094 L 331.640625 291.46875 L 230.664062 240.1875 Z M 274.132812 154.59375 " clip-rule="nonzero"/></clipPath><clipPath id="abc2255341"><path d="M 274.132812 154.59375 L 375.109375 205.871094 L 331.640625 291.46875 L 230.664062 240.1875 Z M 274.132812 154.59375 " clip-rule="nonzero"/></clipPath><clipPath id="bf586c33e5"><path d="M 318 214 L 334 214 L 334 238 L 318 238 Z M 318 214 " clip-rule="nonzero"/></clipPath><clipPath id="375139f6be"><path d="M 274.132812 154.59375 L 375.109375 205.871094 L 331.640625 291.46875 L 230.664062 240.1875 Z M 274.132812 154.59375 " clip-rule="nonzero"/></clipPath><clipPath id="b5f022d8f9"><path d="M 274.132812 154.59375 L 375.109375 205.871094 L 331.640625 291.46875 L 230.664062 240.1875 Z M 274.132812 154.59375 " clip-rule="nonzero"/></clipPath><clipPath id="9963b687ae"><path d="M 274.132812 154.59375 L 375.109375 205.871094 L 331.640625 291.46875 L 230.664062 240.1875 Z M 274.132812 154.59375 " clip-rule="nonzero"/></clipPath><clipPath id="8d2e421c58"><path d="M 37.472656 50.113281 L 227 50.113281 L 227 299 L 37.472656 299 Z M 37.472656 50.113281 " clip-rule="nonzero"/></clipPath></defs><g clip-path="url(#38304e07a3)"><g clip-path="url(#62f0045bef)"><path fill="#ffffff" d="M 0 75.359375 L 345.816406 75.359375 L 345.816406 431.042969 L 0 431.042969 Z M 0 75.359375 " fill-opacity="1" fill-rule="nonzero"/></g></g><g clip-path="url(#8fdbad140a)"><g clip-path="url(#04587b8106)"><path fill="#ebd2c1" d="M 5.898438 82.761719 L 338.4375 82.761719 L 338.4375 294.90625 L 5.898438 294.90625 Z M 5.898438 82.761719 " fill-opacity="1" fill-rule="nonzero"/></g></g><g clip-path="url(#61328e347b)"><g clip-path="url(#69a25fb5af)"><g clip-path="url(#a9e7b2013b)"><g clip-path="url(#d70d8c06e2)"><path fill="#e7325d" d="M 366.257812 223.300781 L 348.925781 257.429688 C 344.039062 267.050781 332.265625 270.882812 322.625 265.988281 L 310.0625 259.609375 C 307.878906 258.5 305.335938 258.328125 303.027344 259.136719 L 284.472656 265.636719 C 282.332031 266.394531 280.003906 265.210938 279.355469 263.035156 L 273.664062 244.230469 C 272.953125 241.890625 271.316406 239.933594 269.132812 238.824219 L 256.554688 232.4375 C 246.917969 227.542969 243.0625 215.773438 247.949219 206.152344 L 265.277344 172.035156 C 270.164062 162.414062 281.9375 158.578125 291.578125 163.472656 L 357.660156 197.035156 C 367.292969 201.925781 371.140625 213.6875 366.257812 223.300781 Z M 366.257812 223.300781 " fill-opacity="1" fill-rule="nonzero"/></g></g></g></g><g clip-path="url(#c5c50201ad)"><g clip-path="url(#31c5bc48c9)"><g clip-path="url(#f272ee7da0)"><g clip-path="url(#abc2255341)"><path fill="#ffffff" d="M 310.53125 214.050781 C 308.007812 219.019531 302.765625 220.324219 298.15625 221.472656 C 297.5625 221.621094 296.96875 221.765625 296.390625 221.921875 L 294.554688 222.40625 C 292.207031 223.113281 289.820312 223.695312 287.398438 224.140625 C 286.191406 224.269531 285.023438 223.675781 284.417969 222.625 C 283.394531 220.484375 282.476562 218.277344 281.675781 216.039062 L 280.902344 214.058594 C 280.691406 213.519531 280.464844 212.972656 280.253906 212.4375 C 278.367188 207.78125 276.40625 202.957031 278.921875 198.003906 C 281.40625 192.640625 287.78125 190.300781 293.160156 192.773438 C 295.726562 193.988281 297.597656 196.289062 298.257812 199.039062 C 300.871094 197.949219 303.851562 198.101562 306.339844 199.46875 C 311.511719 202.347656 313.382812 208.875 310.53125 214.050781 Z M 310.53125 214.050781 " fill-opacity="1" fill-rule="nonzero"/></g></g></g></g><g clip-path="url(#bf586c33e5)"><g clip-path="url(#375139f6be)"><g clip-path="url(#b5f022d8f9)"><g clip-path="url(#9963b687ae)"><path fill="#ffffff" d="M 322.664062 237.46875 L 333.605469 215.917969 L 331.171875 214.683594 L 324.789062 214.34375 L 323.253906 217.359375 L 327.222656 218.328125 L 318.5625 235.382812 L 322.664062 237.464844 Z M 322.664062 237.46875 " fill-opacity="1" fill-rule="nonzero"/></g></g></g></g><g clip-path="url(#8d2e421c58)"><path fill="#643a41" d="M 226.375 110.300781 C 225.472656 106.027344 222.472656 102.496094 219.964844 99.050781 C 214.164062 91.078125 208.363281 83.101562 202.558594 75.128906 C 201.222656 73.289062 199.921875 71.417969 198.5 69.644531 C 197.1875 68.007812 195.714844 66.464844 193.9375 65.324219 C 192.25 64.246094 190.273438 63.515625 188.25 63.554688 C 187.1875 63.574219 186.128906 63.820312 185.164062 64.269531 C 183.382812 62.417969 181.351562 60.792969 179.257812 59.335938 C 175.277344 56.558594 170.886719 54.371094 166.28125 52.84375 C 161.671875 51.308594 156.84375 50.433594 151.992188 50.285156 C 147.046875 50.128906 142.085938 50.726562 137.3125 52.015625 C 133.316406 53.097656 129.453125 54.664062 125.835938 56.679688 C 125.789062 56.644531 125.742188 56.605469 125.695312 56.574219 C 124.242188 55.554688 122.574219 54.953125 120.789062 54.96875 C 116.882812 55.007812 113.660156 57.46875 110.792969 59.84375 C 107.636719 62.457031 104.433594 65.003906 101.136719 67.4375 C 99.5 68.648438 97.847656 69.832031 96.171875 70.992188 C 92.300781 73.679688 88.433594 76.703125 84.792969 79.808594 C 81.351562 82.738281 76.855469 85.867188 74.585938 89.851562 C 73.875 91.105469 73.429688 92.488281 73.195312 93.90625 C 72.738281 96.71875 73.007812 99.65625 73.667969 102.417969 C 74.992188 107.992188 78.03125 113.007812 81.703125 117.347656 C 83.617188 119.613281 85.714844 121.722656 87.882812 123.746094 C 88.976562 124.773438 90.09375 125.777344 91.21875 126.777344 C 91.765625 127.261719 92.300781 127.78125 92.878906 128.226562 C 93.335938 128.578125 93.894531 128.8125 94.472656 128.621094 C 95.609375 128.246094 96.0625 126.835938 96.445312 125.832031 C 96.980469 124.410156 97.429688 122.957031 97.789062 121.484375 C 98.347656 119.191406 98.6875 116.84375 98.804688 114.488281 C 99.859375 115.679688 100.90625 116.882812 101.921875 118.109375 C 103.714844 120.273438 105.421875 122.511719 106.941406 124.875 C 108.40625 127.164062 109.691406 129.570312 110.683594 132.101562 C 111.664062 134.59375 112.371094 137.207031 112.65625 139.871094 C 112.738281 140.640625 112.796875 141.421875 112.804688 142.199219 C 112.523438 142.296875 112.25 142.414062 111.984375 142.542969 C 110.503906 143.253906 109.246094 144.378906 108.367188 145.761719 C 107.457031 147.1875 106.953125 148.855469 106.84375 150.539062 C 106.734375 152.222656 107.046875 153.917969 107.699219 155.472656 C 107.84375 155.816406 108.003906 156.152344 108.179688 156.480469 C 105.691406 159.789062 103.53125 163.339844 101.746094 167.078125 C 99.414062 171.964844 97.707031 177.148438 96.710938 182.472656 C 95.808594 187.292969 96.429688 192.164062 96.210938 197.015625 C 95.9375 203.109375 95.25 209.261719 93.359375 215.09375 C 92.410156 218.03125 91.148438 220.878906 89.507812 223.503906 C 88.695312 224.804688 87.796875 226.050781 86.804688 227.226562 C 86.433594 227.671875 85.761719 228.765625 85.222656 228.976562 C 84.414062 229.300781 83.996094 228.519531 83.289062 227.941406 C 80.457031 225.640625 77.0625 224.082031 73.472656 223.425781 C 71.628906 223.089844 69.738281 222.980469 67.867188 223.125 C 65.921875 223.269531 64.003906 223.695312 62.144531 224.28125 C 58.339844 225.476562 54.785156 227.3125 51.097656 228.8125 C 47.367188 230.328125 43.367188 231.558594 39.296875 231.289062 C 38.789062 231.257812 38.285156 231.199219 37.78125 231.117188 C 37.613281 231.089844 37.472656 231.277344 37.605469 231.417969 C 40.980469 234.835938 45.453125 236.867188 50.042969 238.101562 C 55.183594 239.488281 60.511719 239.875 65.773438 240.566406 C 68.476562 240.921875 71.175781 241.363281 73.816406 242.054688 C 72.972656 242.894531 72.265625 243.875 71.683594 244.917969 C 70.675781 246.710938 69.988281 248.675781 69.410156 250.644531 C 68.734375 252.9375 68.25 255.292969 68.0625 257.679688 C 67.882812 259.984375 67.988281 262.328125 68.492188 264.589844 C 68.910156 266.472656 69.613281 268.300781 70.589844 269.964844 C 71.546875 271.609375 72.777344 273.101562 74.253906 274.300781 C 75.914062 275.644531 77.847656 276.539062 79.902344 277.089844 C 82.167969 277.695312 84.539062 277.964844 86.878906 278.105469 C 89.28125 278.253906 91.691406 278.214844 94.085938 278 C 94.757812 277.9375 95.425781 277.859375 96.09375 277.773438 C 94.496094 279.277344 92.898438 280.78125 91.300781 282.289062 C 90.320312 283.210938 89.324219 284.117188 88.367188 285.066406 C 87.566406 285.859375 86.789062 286.730469 86.296875 287.757812 C 85.804688 288.792969 85.667969 289.933594 85.957031 291.042969 C 86.253906 292.1875 86.933594 293.214844 87.800781 294.003906 C 88.6875 294.808594 89.746094 295.386719 90.851562 295.832031 C 92.054688 296.320312 93.324219 296.6875 94.617188 296.832031 C 95.761719 296.957031 96.941406 296.886719 98.035156 296.507812 C 98.976562 297.589844 100.320312 298.332031 101.726562 298.628906 C 103.050781 298.910156 104.425781 298.84375 105.746094 298.5625 C 107 298.292969 108.289062 297.859375 109.355469 297.136719 C 109.722656 296.886719 110.0625 296.59375 110.359375 296.265625 C 111.910156 297.039062 113.613281 297.515625 115.347656 297.550781 C 116.558594 297.578125 117.792969 297.386719 118.910156 296.917969 C 119.925781 296.492188 120.84375 295.84375 121.597656 295.042969 C 123.078125 293.472656 123.957031 291.265625 123.511719 289.105469 C 123.253906 287.855469 122.578125 286.746094 121.898438 285.683594 C 121.199219 284.589844 120.515625 283.503906 120.078125 282.273438 C 119.597656 280.941406 119.355469 279.527344 119.359375 278.113281 C 121.203125 278.683594 123.082031 279.152344 124.980469 279.507812 C 127.640625 280.011719 130.34375 280.308594 133.050781 280.398438 C 135.777344 280.488281 138.507812 280.371094 141.21875 280.046875 C 143.90625 279.722656 146.570312 279.199219 149.179688 278.46875 C 150.75 278.027344 152.300781 277.515625 153.824219 276.925781 C 153.960938 277.585938 154.023438 278.257812 154.003906 278.929688 C 153.96875 280.15625 153.644531 281.324219 153.15625 282.441406 C 152.679688 283.535156 152.097656 284.585938 151.679688 285.703125 C 151.308594 286.691406 151.101562 287.722656 151.136719 288.78125 C 151.203125 290.734375 152.003906 292.65625 153.339844 294.089844 C 154.703125 295.554688 156.589844 296.382812 158.585938 296.464844 C 160.058594 296.523438 161.546875 296.183594 162.84375 295.484375 C 164.035156 296.617188 165.652344 297.28125 167.273438 297.566406 C 168.496094 297.777344 169.757812 297.835938 170.992188 297.769531 C 172.195312 297.703125 173.402344 297.476562 174.484375 296.941406 C 174.777344 296.796875 175.054688 296.628906 175.320312 296.441406 C 177.09375 296.773438 178.933594 296.734375 180.699219 296.335938 C 181.824219 296.078125 182.917969 295.675781 183.9375 295.136719 C 184.933594 294.605469 185.867188 293.945312 186.617188 293.097656 C 187.324219 292.292969 187.878906 291.316406 187.976562 290.234375 C 188.078125 289.109375 187.613281 288.070312 186.917969 287.210938 C 186.171875 286.285156 185.214844 285.539062 184.304688 284.78125 C 183.296875 283.945312 182.277344 283.117188 181.320312 282.222656 C 180.042969 281.023438 178.84375 279.667969 178.015625 278.113281 C 181.835938 278.425781 185.71875 277.289062 188.886719 275.140625 C 192.761719 272.507812 195.378906 268.398438 196.5625 263.90625 C 197.804688 259.203125 197.445312 254.226562 195.878906 249.644531 C 193.652344 243.128906 188.308594 238.417969 185.796875 232.085938 C 184.515625 228.847656 184.484375 225.34375 184.78125 221.925781 C 185.085938 218.496094 185.316406 214.933594 186.105469 211.578125 C 187.390625 206.117188 189.472656 200.839844 189.632812 195.167969 C 189.796875 189.363281 188.445312 183.578125 187.246094 177.933594 C 186.195312 172.992188 184.929688 168.007812 182.511719 163.539062 C 184.046875 162.347656 185.484375 161.027344 186.675781 159.488281 C 187.3125 158.664062 187.925781 157.78125 188.292969 156.796875 C 188.648438 155.847656 188.734375 154.75 188.167969 153.859375 C 187.160156 152.277344 184.957031 152.136719 183.292969 152.472656 C 182.226562 152.6875 181.222656 153.097656 180.265625 153.609375 C 180.042969 152.433594 179.917969 151.242188 179.894531 150.042969 C 179.847656 147.976562 180.09375 145.90625 180.628906 143.910156 C 181.125 142.050781 181.878906 140.269531 182.859375 138.613281 C 183.679688 137.222656 184.65625 135.925781 185.765625 134.746094 C 185.894531 135.582031 186.109375 136.398438 186.464844 137.164062 C 187.207031 138.746094 188.636719 139.742188 190.386719 139.878906 C 192.449219 140.042969 194.542969 139.257812 196.46875 138.632812 C 198.636719 137.929688 200.773438 137.140625 202.875 136.261719 C 207.011719 134.535156 211.046875 132.496094 214.832031 130.089844 C 218.273438 127.90625 221.558594 125.273438 223.808594 121.832031 C 226.007812 118.472656 227.21875 114.296875 226.375 110.300781 Z M 226.375 110.300781 " fill-opacity="1" fill-rule="nonzero"/></g><path fill="#fdfae1" d="M 194.144531 263.101562 C 193.527344 265.976562 192.492188 268.1875 191.269531 269.882812 C 187.210938 275.511719 181.058594 275.511719 181.058594 275.511719 C 181.058594 275.511719 176.066406 277.394531 175.734375 273.074219 C 175.507812 270.140625 175.589844 252.953125 175.664062 242.226562 C 175.699219 237.15625 175.734375 233.527344 175.734375 233.527344 C 175.734375 233.527344 172.628906 259.667969 173.070312 267.3125 C 173.515625 274.957031 175.289062 281.269531 181.722656 284.59375 C 188.15625 287.914062 187.046875 296.335938 176.066406 294.5625 C 176.066406 294.5625 176.621094 288.359375 174.511719 287.804688 C 174.511719 287.804688 177.214844 295.449219 172.703125 296.253906 C 165.671875 297.515625 164.863281 295.339844 164.417969 294.5625 C 163.976562 293.789062 164.308594 287.25 163.53125 289.578125 C 162.757812 291.90625 162.867188 293.121094 162.089844 293.898438 C 161.3125 294.671875 156.542969 295.894531 154.328125 293.457031 C 152.109375 291.019531 150.554688 290.6875 154.328125 282.597656 C 154.328125 282.597656 156.878906 239.726562 155.992188 232.417969 C 155.992188 232.417969 153.160156 268.535156 153.4375 273.957031 C 153.4375 273.957031 140.175781 283.554688 119.035156 276.113281 C 118.25 260.550781 120.964844 245.164062 122.820312 228.671875 C 122.621094 229.695312 114.882812 269.253906 118.054688 277.171875 C 118.277344 277.726562 119.390625 286.046875 121.382812 288.027344 C 123.375 290.007812 121.714844 294.121094 118.277344 294.785156 C 114.839844 295.449219 112.289062 296.226562 111.511719 294.894531 C 110.734375 293.566406 110.292969 287.582031 109.070312 287.253906 C 107.851562 286.921875 110.328125 293.921875 109.664062 295.253906 C 108.996094 296.582031 102.789062 299.84375 98.792969 295.636719 C 98.792969 295.636719 100.199219 288.914062 99.976562 287.804688 C 99.753906 286.699219 97.679688 293.273438 97.835938 295.492188 C 97.835938 295.492188 91.769531 296.554688 89.214844 293.011719 C 86.664062 289.46875 88.109375 287.804688 91.878906 284.703125 C 95.652344 281.601562 99.199219 278.390625 100.640625 268.421875 C 102.082031 258.449219 102.527344 227.542969 102.082031 225.660156 C 101.941406 225.050781 101.667969 229.472656 101.28125 235.898438 C 100.472656 249.339844 99.152344 271.546875 97.425781 274.84375 C 97.425781 274.84375 83.671875 278.390625 77.792969 273.738281 C 76.765625 272.925781 75.773438 272.0625 74.847656 271.136719 C 70.484375 266.761719 67.75 260.972656 71.136719 252.46875 C 75.242188 242.167969 81.785156 237.511719 84.78125 234.523438 C 85.148438 234.152344 85.511719 233.777344 85.867188 233.394531 C 90.347656 228.605469 93.835938 222.808594 95.898438 216.539062 C 96.515625 214.671875 97 212.761719 97.359375 210.828125 C 97.710938 208.960938 97.949219 207.070312 98.074219 205.175781 C 98.328125 201.445312 97.832031 197.792969 97.84375 194.082031 C 97.867188 187.746094 98.644531 181.152344 101.085938 175.257812 C 102.628906 171.535156 104.171875 168.0625 105.484375 165.199219 C 107.570312 160.648438 109.074219 157.644531 109.074219 157.644531 C 109.074219 157.644531 124.492188 174.503906 142.792969 174.4375 C 161.09375 174.371094 164.644531 172.710938 167.082031 171.492188 C 168.953125 170.558594 174.867188 168.257812 178.523438 165.933594 C 179.636719 165.226562 180.542969 164.519531 181.058594 163.847656 C 181.058594 163.847656 188.347656 176.207031 187.792969 191.160156 C 187.238281 206.117188 185.828125 206.238281 183.054688 216.890625 C 183.039062 216.957031 183.023438 217.027344 183.003906 217.09375 C 181.390625 223.539062 182.328125 231.742188 185.605469 237.8125 C 186.015625 238.566406 186.457031 239.289062 186.9375 239.96875 C 191.78125 246.855469 196.03125 254.316406 194.148438 263.101562 Z M 194.144531 263.101562 " fill-opacity="1" fill-rule="nonzero"/><path fill="#e6d6b3" d="M 81.191406 234.800781 C 79.1875 236.683594 76.324219 239.238281 75.960938 239.496094 C 75.632812 239.730469 65.949219 237.175781 60.183594 237.417969 C 58.042969 237.507812 55.546875 236.957031 53.257812 236.226562 C 57.035156 234.835938 63.675781 232.734375 66.222656 233.382812 C 68.953125 234.082031 77.253906 234.902344 81.191406 234.800781 Z M 81.191406 234.800781 " fill-opacity="1" fill-rule="nonzero"/><path fill="#fdfae1" d="M 83.167969 232.796875 C 83.109375 232.957031 82.277344 233.78125 81.191406 234.800781 C 77.253906 234.902344 68.953125 234.082031 66.222656 233.382812 C 63.675781 232.734375 57.035156 234.835938 53.257812 236.226562 C 49.378906 234.996094 46.089844 233.257812 46.089844 233.257812 C 46.089844 233.257812 57.300781 229.738281 60.664062 227.898438 C 64.027344 226.058594 74.199219 224.941406 78.28125 227.898438 C 82.367188 230.859375 83.328125 232.332031 83.167969 232.796875 Z M 83.167969 232.796875 " fill-opacity="1" fill-rule="nonzero"/><path fill="#f9cc1e" d="M 109.03125 146.660156 C 108.652344 147.253906 107.398438 157.101562 118.472656 164.421875 C 129.546875 171.742188 134.71875 173.195312 146.90625 172.863281 C 159.089844 172.535156 169.628906 169.246094 176.542969 164.96875 C 183.460938 160.695312 184.558594 158.0625 185.328125 156.96875 C 186.09375 155.871094 184.996094 151.59375 180.386719 156.308594 C 175.777344 161.023438 162.273438 165.847656 155.6875 166.722656 C 149.101562 167.601562 122.863281 168.585938 112.875 150.171875 C 112.875 150.171875 111.472656 142.878906 109.03125 146.660156 Z M 109.03125 146.660156 " fill-opacity="1" fill-rule="nonzero"/><path fill="#fdfae1" d="M 187.71875 70.757812 C 186.9375 68.324219 186.0625 66.710938 185.429688 65.75 C 185.128906 65.996094 184.699219 66.386719 184.789062 66.480469 C 184.695312 66.386719 184.601562 66.289062 184.503906 66.191406 C 179.605469 61.328125 169.234375 53.9375 153.917969 52.480469 C 134.859375 50.667969 122.414062 60.636719 122.414062 60.636719 L 123.191406 58.695312 C 123.191406 58.695312 121.378906 55.972656 118.136719 57.527344 C 114.894531 59.082031 90.523438 78.890625 88.707031 80.316406 C 87.769531 81.050781 83.453125 83.304688 79.933594 86.839844 C 85.292969 84.085938 93.878906 79.613281 95.039062 78.613281 C 96.738281 77.144531 109.425781 67.566406 110.664062 66.40625 C 111.902344 65.25 117.367188 60.535156 117.367188 60.535156 L 115.851562 64.34375 C 115.878906 64.3125 115.90625 64.285156 115.933594 64.261719 C 115.933594 64.261719 112.042969 78.761719 110.359375 81.742188 C 108.671875 84.71875 105.949219 89.898438 103.617188 91.582031 C 101.285156 93.265625 96.617188 105.433594 100.375 111.648438 C 104.132812 117.863281 119.304688 131.976562 113.988281 148.421875 C 113.988281 148.421875 119.949219 163.570312 143.027344 164.992188 C 166.105469 166.417969 179.070312 155.152344 179.070312 155.152344 C 179.070312 155.152344 176.476562 149.328125 179.070312 142.722656 C 179.628906 141.300781 180.210938 139.964844 180.789062 138.738281 C 182.894531 134.269531 184.941406 131.273438 185.550781 131.070312 C 186.328125 130.8125 189.179688 112.167969 188.792969 106.601562 C 188.792969 106.601562 189.660156 78.480469 187.71875 70.757812 Z M 158.503906 74.082031 C 158.503906 74.082031 161.300781 84.246094 172.480469 84.101562 C 172.480469 84.101562 168.46875 86.539062 162.375 82.527344 C 162.375 82.527344 157.359375 80.097656 158.503906 74.082031 Z M 117.363281 75.585938 C 117.621094 75.441406 124.816406 78.734375 130.195312 73.222656 C 130.195312 73.222656 131.410156 72.867188 130.980469 73.582031 C 130.550781 74.296875 127.183594 76.945312 123.886719 77.804688 C 120.589844 78.664062 116.074219 76.300781 117.363281 75.585938 Z M 162.8125 128.019531 C 152.578125 140.753906 145.308594 140.320312 145.308594 140.320312 C 135.699219 152.011719 125.605469 146.640625 125.605469 146.640625 C 113.898438 141.183594 123.003906 129.144531 123.003906 129.144531 L 116.328125 116.847656 C 107.828125 118.144531 106.539062 114.667969 106.960938 114.769531 C 121.003906 118.144531 129.585938 103.261719 129.59375 103.25 C 129.679688 103.097656 125.742188 100.722656 125.472656 100.550781 C 123.109375 99.050781 121.152344 96.972656 119.757812 94.554688 C 118.425781 92.253906 116.9375 89.242188 117.800781 86.53125 C 118.925781 82.980469 127.511719 81.074219 133.148438 81.335938 C 138.789062 81.59375 145.640625 84.28125 147.894531 87.3125 C 150.148438 90.34375 147.375 94.761719 142.949219 98.398438 C 138.527344 102.035156 131.847656 103.59375 131.847656 103.59375 C 133.667969 113.902344 142.949219 119.359375 150.496094 120.050781 C 158.039062 120.742188 170.007812 110.351562 170.007812 110.351562 C 167.496094 110.089844 168.1875 109.398438 168.1875 109.398438 C 174.433594 107.578125 176.601562 111.996094 176.6875 114.421875 C 176.773438 116.847656 174.257812 117.714844 174.691406 115.980469 C 175.125 114.25 173.21875 112.167969 173.21875 112.167969 C 173.21875 112.167969 173.046875 115.289062 162.8125 128.019531 Z M 222.808594 106.308594 C 222.6875 105.972656 222.324219 105.332031 221.757812 104.445312 C 216.808594 96.644531 196.5625 69.878906 193.042969 67.125 C 192.222656 66.480469 191.238281 65.472656 190.199219 65.238281 C 189.449219 65.070312 188.679688 65.011719 187.914062 65.054688 C 188.835938 65.542969 189.816406 66.417969 190.671875 67.941406 C 193.191406 72.425781 215.566406 100.628906 219.933594 105.722656 C 220.003906 105.808594 220.074219 105.890625 220.144531 105.972656 C 222.589844 108.875 223.941406 111.332031 224.640625 112.867188 C 224.335938 109.921875 223.242188 107.511719 222.808594 106.308594 Z M 222.808594 106.308594 " fill-opacity="1" fill-rule="nonzero"/><path fill="#ca8178" d="M 151.988281 122.640625 C 151.902344 122.773438 149.589844 126.082031 147.632812 129.839844 C 144.269531 127.464844 139.535156 126.300781 135.238281 125.746094 L 136.703125 122.507812 L 138.355469 118.804688 C 138.355469 118.804688 142.59375 121.648438 144.710938 121.980469 C 146.828125 122.308594 152.125 122.441406 151.988281 122.640625 Z M 151.988281 122.640625 " fill-opacity="1" fill-rule="nonzero"/><path fill="#ca8178" d="M 136.703125 117.75 C 136.703125 117.75 135.253906 121.585938 133.972656 125.597656 C 131.433594 125.328125 129.125 125.265625 127.445312 125.265625 C 128.746094 122.9375 129.753906 121.054688 129.753906 121.054688 C 129.753906 121.054688 132.597656 116.824219 136.699219 117.75 Z M 136.703125 117.75 " fill-opacity="1" fill-rule="nonzero"/><path fill="#fba8a8" d="M 147.632812 129.839844 C 146.667969 131.691406 145.789062 133.652344 145.308594 135.394531 C 143.847656 140.683594 139.644531 146.664062 131.851562 146.234375 C 124.054688 145.808594 121.875 140.355469 121.875 140.355469 C 121.875 140.355469 120.816406 135.859375 123.132812 132.488281 C 124.332031 130.746094 126.054688 127.753906 127.445312 125.265625 C 129.125 125.265625 131.433594 125.328125 133.972656 125.597656 C 133.128906 128.226562 132.355469 130.933594 132.105469 132.6875 L 135.238281 125.746094 C 139.535156 126.300781 144.269531 127.460938 147.632812 129.839844 Z M 147.632812 129.839844 " fill-opacity="1" fill-rule="nonzero"/><path fill="#fdfae1" d="M 120.816406 85.757812 C 121.0625 85.757812 138.367188 84.011719 145.941406 88.582031 C 145.941406 88.582031 135.125 79.027344 121.0625 85.757812 " fill-opacity="1" fill-rule="nonzero"/><path fill="#e6d6b3" d="M 188.792969 106.601562 C 189.179688 112.167969 186.328125 130.8125 185.550781 131.070312 C 184.941406 131.273438 182.894531 134.269531 180.789062 138.738281 C 176.394531 138.882812 170.671875 136.871094 176.691406 127.738281 C 185.027344 115.089844 184.984375 91.929688 183.460938 82.632812 C 182.628906 77.574219 183.519531 71.070312 184.503906 66.191406 C 184.601562 66.289062 184.699219 66.386719 184.792969 66.480469 C 184.703125 66.386719 185.128906 65.996094 185.429688 65.75 C 186.0625 66.710938 186.941406 68.324219 187.71875 70.757812 C 189.664062 78.480469 188.792969 106.601562 188.792969 106.601562 Z M 188.792969 106.601562 " fill-opacity="1" fill-rule="nonzero"/><path fill="#fdfae1" d="M 221.757812 104.445312 C 221.226562 104.949219 220.6875 105.457031 220.140625 105.972656 C 220.074219 105.890625 220.003906 105.808594 219.933594 105.722656 C 215.566406 100.628906 193.1875 72.425781 190.671875 67.941406 C 189.816406 66.417969 188.835938 65.542969 187.914062 65.054688 C 188.675781 65.011719 189.449219 65.070312 190.195312 65.238281 C 191.234375 65.472656 192.222656 66.480469 193.042969 67.125 C 196.558594 69.878906 216.804688 96.644531 221.757812 104.445312 Z M 221.757812 104.445312 " fill-opacity="1" fill-rule="nonzero"/><path fill="#e6d6b3" d="M 123.671875 223.863281 C 123.671875 223.863281 120.355469 243.734375 119.441406 252.429688 C 118.53125 261.121094 118.207031 275.535156 119.035156 276.113281 C 119.863281 276.691406 130.789062 280.101562 140.304688 278.5625 C 149.824219 277.023438 153.472656 275 153.875 273.6875 C 154.28125 272.378906 155.417969 248.261719 155.417969 248.261719 C 155.417969 248.261719 157.605469 226.488281 156.09375 219.828125 C 156.09375 219.828125 154.875 205.644531 154.023438 204.367188 C 153.167969 203.085938 149.75 225.902344 148.683594 233.261719 C 147.613281 240.621094 143.238281 269.949219 123.910156 260.5625 C 123.910156 260.5625 125.40625 219.933594 125.300781 217.695312 C 125.191406 215.457031 125.191406 210.445312 125.191406 210.445312 Z M 123.671875 223.863281 " fill-opacity="1" fill-rule="nonzero"/><path fill="#e6d6b3" d="M 101.28125 235.898438 C 100.46875 249.339844 99.152344 271.546875 97.425781 274.84375 C 97.425781 274.84375 83.671875 278.390625 77.792969 273.738281 C 76.765625 272.925781 75.769531 272.0625 74.847656 271.136719 C 75.613281 268.839844 77.84375 264.019531 83.183594 263.078125 C 90.246094 261.835938 91.152344 261.835938 91.71875 261.722656 C 92.285156 261.605469 93.871094 246.675781 90.359375 241.472656 C 88.710938 239.027344 87.105469 235.960938 85.867188 233.394531 C 90.34375 228.605469 93.832031 222.808594 95.894531 216.539062 C 96.511719 214.671875 96.996094 212.761719 97.359375 210.828125 C 98.785156 218.203125 100.53125 228.128906 101.28125 235.898438 Z M 101.28125 235.898438 " fill-opacity="1" fill-rule="nonzero"/><path fill="#e6d6b3" d="M 191.269531 269.882812 C 187.210938 275.507812 181.058594 275.507812 181.058594 275.507812 C 181.058594 275.507812 176.066406 277.390625 175.734375 273.074219 C 175.507812 270.136719 175.589844 252.953125 175.664062 242.226562 C 176.917969 235.570312 179.796875 221.8125 183.003906 217.09375 C 181.386719 223.539062 182.328125 231.742188 185.605469 237.8125 C 183.503906 241.347656 178.136719 251.4375 180.160156 259.125 C 181.933594 265.84375 187.933594 268.757812 191.273438 269.882812 Z M 191.269531 269.882812 " fill-opacity="1" fill-rule="nonzero"/><path fill="#e6d6b3" d="M 178.519531 165.933594 L 172 175.402344 C 172 175.402344 159.75 193.757812 132.109375 192.917969 C 113.21875 192.34375 107.414062 175.683594 105.480469 165.195312 C 107.566406 160.648438 109.070312 157.640625 109.070312 157.640625 C 109.070312 157.640625 124.488281 174.503906 142.789062 174.4375 C 161.089844 174.371094 164.640625 172.707031 167.082031 171.488281 C 168.953125 170.554688 174.863281 168.253906 178.519531 165.933594 Z M 178.519531 165.933594 " fill-opacity="1" fill-rule="nonzero"/><path fill="#e1b161" d="M 212.101562 129.253906 C 210.101562 130.101562 208.128906 131.484375 206.152344 132.488281 C 203.992188 133.585938 201.789062 134.601562 199.523438 135.472656 C 196.632812 136.582031 193.550781 137.589844 190.453125 137.882812 C 189.3125 137.992188 188.414062 137.570312 188.058594 136.433594 C 187.527344 134.765625 187.949219 132.886719 188.214844 131.207031 C 188.214844 131.207031 192.128906 107.871094 190.957031 92.097656 C 190.957031 92.097656 190.71875 75.609375 187.585938 70.28125 C 187.632812 70.429688 187.675781 70.589844 187.71875 70.757812 C 186.9375 68.328125 186.0625 66.710938 185.429688 65.75 C 185.550781 65.648438 185.652344 65.574219 185.6875 65.554688 C 185.859375 65.453125 186.035156 65.378906 186.21875 65.324219 C 188.9375 68.351562 193.390625 75.417969 194.4375 90.410156 C 195.929688 111.773438 190.128906 130.816406 193.542969 131.085938 C 196.757812 131.335938 217.398438 129.84375 223.742188 111.105469 C 224.121094 111.777344 224.414062 112.371094 224.640625 112.867188 C 225.160156 117.898438 223.386719 124.484375 212.105469 129.253906 Z M 212.101562 129.253906 " fill-opacity="1" fill-rule="nonzero"/><path fill="#f4d289" d="M 223.738281 111.105469 C 217.398438 129.84375 196.757812 131.335938 193.539062 131.085938 C 190.128906 130.816406 195.929688 111.773438 194.4375 90.410156 C 193.390625 75.417969 188.933594 68.351562 186.21875 65.324219 C 186.421875 65.261719 186.632812 65.21875 186.847656 65.183594 C 187.199219 65.117188 187.554688 65.078125 187.914062 65.054688 C 188.835938 65.542969 189.816406 66.417969 190.671875 67.941406 C 193.1875 72.425781 215.566406 100.628906 219.929688 105.722656 C 221.699219 107.789062 222.917969 109.636719 223.738281 111.105469 Z M 223.738281 111.105469 " fill-opacity="1" fill-rule="nonzero"/><path fill="#e1b161" d="M 117.367188 60.539062 L 115.847656 64.34375 C 114.496094 65.808594 111.253906 74.644531 110.746094 75.785156 C 110.230469 76.949219 107.117188 86.917969 101.800781 90.15625 C 96.488281 93.394531 96.617188 109.578125 96.875 113.589844 C 97.132812 117.605469 94.929688 125.632812 93.890625 126.28125 C 92.855469 126.925781 89.875 123.429688 88.1875 121.878906 C 87.171875 120.941406 83.976562 117.214844 80.894531 111.957031 C 84.429688 114.082031 89.929688 117.683594 91.054688 116.257812 C 92.785156 114.054688 92.136719 109.976562 92.449219 106.671875 C 92.765625 103.371094 94.496094 91.503906 97.09375 90.089844 C 99.691406 88.671875 107.71875 78.925781 108.820312 76.960938 C 109.914062 75.011719 117.25 60.761719 117.367188 60.539062 Z M 117.367188 60.539062 " fill-opacity="1" fill-rule="nonzero"/><path fill="#f4d289" d="M 117.367188 60.539062 C 117.25 60.761719 109.914062 75.011719 108.820312 76.960938 C 107.71875 78.925781 99.691406 88.671875 97.09375 90.089844 C 94.496094 91.503906 92.765625 103.371094 92.449219 106.671875 C 92.136719 109.976562 92.785156 114.054688 91.054688 116.257812 C 89.929688 117.683594 84.429688 114.082031 80.894531 111.957031 C 78.871094 108.511719 76.898438 104.40625 75.613281 99.996094 C 74.046875 94.609375 76.636719 90.160156 79.933594 86.839844 C 85.292969 84.089844 93.878906 79.613281 95.039062 78.613281 C 96.738281 77.144531 109.425781 67.566406 110.664062 66.40625 C 111.890625 65.257812 117.261719 60.628906 117.367188 60.539062 Z M 117.367188 60.539062 " fill-opacity="1" fill-rule="nonzero"/></svg>