<svg xmlns="http://www.w3.org/2000/svg" xmlns:xlink="http://www.w3.org/1999/xlink" width="1000" zoomAndPan="magnify" viewBox="0 0 750 749.999995" height="1000" preserveAspectRatio="xMidYMid meet" version="1.0"><defs><filter x="0%" y="0%" width="100%" height="100%" id="586a57576f"><feColorMatrix values="0 0 0 0 1 0 0 0 0 1 0 0 0 0 1 0 0 0 1 0" color-interpolation-filters="sRGB"/></filter><clipPath id="8aa66c46cb"><path d="M 11 59 L 727 59 L 727 689 L 11 689 Z M 11 59 " clip-rule="nonzero"/></clipPath><clipPath id="6c049a4565"><path d="M -90.53125 249.125 L 448.472656 -197.109375 L 913.839844 365 L 374.835938 811.234375 Z M -90.53125 249.125 " clip-rule="nonzero"/></clipPath><clipPath id="affb01afbb"><path d="M -90.53125 249.125 L 448.472656 -197.109375 L 913.839844 365 L 374.835938 811.234375 Z M -90.53125 249.125 " clip-rule="nonzero"/></clipPath><mask id="189a1c9570"><g filter="url(#586a57576f)"><rect x="-75" width="900" fill="#000000" y="-74.999999" height="899.999994" fill-opacity="0.4471"/></g></mask><clipPath id="7ce75422bf"><path d="M 3 3 L 38 3 L 38 40 L 3 40 Z M 3 3 " clip-rule="nonzero"/></clipPath><clipPath id="d074a56668"><path d="M -0.65625 8.621094 L 34.414062 0.480469 L 42.214844 34.089844 L 7.148438 42.226562 Z M -0.65625 8.621094 " clip-rule="nonzero"/></clipPath><clipPath id="a1476cbfbc"><path d="M -0.65625 8.621094 L 34.414062 0.480469 L 42.214844 34.089844 L 7.148438 42.226562 Z M -0.65625 8.621094 " clip-rule="nonzero"/></clipPath><clipPath id="900e088d31"><rect x="0" width="43" y="0" height="42"/></clipPath><mask id="dca396e8db"><g filter="url(#586a57576f)"><rect x="-75" width="900" fill="#000000" y="-74.999999" height="899.999994" fill-opacity="0.3373"/></g></mask><clipPath id="57e3298399"><path d="M 2 1 L 36 1 L 36 36 L 2 36 Z M 2 1 " clip-rule="nonzero"/></clipPath><clipPath id="c68b3f1e3e"><path d="M 3.28125 0.320312 L 37.535156 4.433594 L 33.601562 37.199219 L -0.652344 33.085938 Z M 3.28125 0.320312 " clip-rule="nonzero"/></clipPath><clipPath id="dafba23e3e"><path d="M 3.28125 0.320312 L 37.535156 4.433594 L 33.601562 37.199219 L -0.652344 33.085938 Z M 3.28125 0.320312 " clip-rule="nonzero"/></clipPath><clipPath id="0f200644cc"><rect x="0" width="38" y="0" height="37"/></clipPath><clipPath id="24fcc01824"><path d="M 411.730469 44.574219 L 467.765625 44.574219 L 467.765625 100.609375 L 411.730469 100.609375 Z M 411.730469 44.574219 " clip-rule="nonzero"/></clipPath><clipPath id="8f3e4c78f7"><path d="M 439.746094 44.574219 C 424.273438 44.574219 411.730469 57.117188 411.730469 72.59375 C 411.730469 88.066406 424.273438 100.609375 439.746094 100.609375 C 455.222656 100.609375 467.765625 88.066406 467.765625 72.59375 C 467.765625 57.117188 455.222656 44.574219 439.746094 44.574219 " clip-rule="nonzero"/></clipPath><mask id="a3e91c55e6"><g filter="url(#586a57576f)"><rect x="-75" width="900" fill="#000000" y="-74.999999" height="899.999994" fill-opacity="0.3373"/></g></mask><clipPath id="25d2656a6b"><path d="M 0.554688 0.765625 L 41.042969 0.765625 L 41.042969 41.253906 L 0.554688 41.253906 Z M 0.554688 0.765625 " clip-rule="nonzero"/></clipPath><clipPath id="19f18b0733"><path d="M 20.800781 0.765625 C 9.621094 0.765625 0.554688 9.832031 0.554688 21.011719 C 0.554688 32.191406 9.621094 41.253906 20.800781 41.253906 C 31.980469 41.253906 41.042969 32.191406 41.042969 21.011719 C 41.042969 9.832031 31.980469 0.765625 20.800781 0.765625 " clip-rule="nonzero"/></clipPath><clipPath id="36682cb170"><rect x="0" width="42" y="0" height="42"/></clipPath><mask id="c9c0a80319"><g filter="url(#586a57576f)"><rect x="-75" width="900" fill="#000000" y="-74.999999" height="899.999994" fill-opacity="0.4471"/></g></mask><clipPath id="603790e77e"><path d="M 3 2 L 58 2 L 58 58 L 3 58 Z M 3 2 " clip-rule="nonzero"/></clipPath><clipPath id="1a2fba2232"><path d="M -0.675781 6.636719 L 55.226562 0.390625 L 61.140625 53.308594 L 5.238281 59.558594 Z M -0.675781 6.636719 " clip-rule="nonzero"/></clipPath><clipPath id="01e5a2a5f8"><path d="M -0.675781 6.636719 L 55.226562 0.390625 L 61.140625 53.308594 L 5.238281 59.558594 Z M -0.675781 6.636719 " clip-rule="nonzero"/></clipPath><clipPath id="5702c5956f"><rect x="0" width="61" y="0" height="60"/></clipPath></defs><g clip-path="url(#8aa66c46cb)"><g clip-path="url(#6c049a4565)"><g clip-path="url(#affb01afbb)"><path fill="#fff1dc" d="M 13.234375 288.5 C 1.910156 360.78125 57.730469 424.476562 109.34375 476.277344 C 120.984375 487.988281 133.46875 500.144531 149.410156 504.398438 C 205.84375 519.445312 239.582031 432.230469 297.304688 423.050781 C 326.570312 418.421875 356.625 437.046875 369.808594 463.59375 C 382.996094 490.140625 380.96875 522.566406 369.15625 549.738281 C 357.242188 577.191406 335.464844 603.273438 339.285156 632.945312 C 345.570312 681.652344 411.121094 694.25 459.484375 685.765625 C 509.902344 676.925781 561.15625 656.847656 592.6875 616.511719 C 620.125 581.375 629.078125 535.828125 642.839844 493.414062 C 660.570312 438.925781 687.207031 387.734375 705.863281 333.550781 C 724.515625 279.371094 734.851562 219.921875 718.765625 164.894531 C 702.675781 109.9375 654.605469 61.445312 597.363281 59.289062 C 560.578125 57.917969 525 75.355469 497.863281 100.238281 C 478.40625 118.09375 462.511719 139.847656 441.429688 155.820312 C 420.390625 171.765625 391.460938 181.34375 367.410156 170.375 C 345.960938 160.605469 334.300781 137.765625 318.578125 120.234375 C 210.726562 -0.148438 30.808594 176.332031 13.234375 288.5 Z M 13.234375 288.5 " fill-opacity="1" fill-rule="nonzero"/></g></g></g><g mask="url(#189a1c9570)"><g transform="matrix(1, 0, 0, 1, 186, 74)"><g clip-path="url(#900e088d31)"><g clip-path="url(#7ce75422bf)"><g clip-path="url(#d074a56668)"><g clip-path="url(#a1476cbfbc)"><path fill="#eba248" d="M 23.082031 3.148438 C 23.011719 3.164062 22.9375 3.1875 22.867188 3.207031 C 20.078125 4.390625 19.203125 7.878906 19.609375 10.683594 C 19.847656 13.253906 21.675781 16.210938 24.507812 16.140625 C 24.917969 16.125 25.316406 15.996094 25.675781 15.804688 C 28.671875 13.941406 29.21875 9.699219 28 6.574219 C 27.375 4.515625 25.296875 2.605469 23.082031 3.148438 Z M 10.785156 6.144531 C 8.988281 6.609375 8.011719 8.792969 8.132812 10.605469 C 8.332031 14.210938 10.882812 18.148438 14.695312 18.417969 C 15.046875 18.414062 15.390625 18.34375 15.714844 18.210938 C 18.027344 17.246094 18.410156 14.277344 17.796875 12.09375 C 17.050781 9.203125 14.777344 6.183594 11.605469 6.054688 C 11.316406 6.046875 11.042969 6.078125 10.789062 6.144531 Z M 33.273438 11.285156 C 30.1875 12.203125 28.78125 15.863281 29.160156 18.886719 C 29.242188 21.113281 31.023438 23.703125 33.460938 23.316406 C 36.792969 22.5 38.234375 18.347656 37.605469 15.210938 C 37.335938 13.097656 35.558594 10.875 33.273438 11.285156 Z M 6.0625 18.34375 C 4.730469 18.640625 3.609375 19.75 3.492188 21.222656 C 3.183594 25.160156 6.589844 29.265625 10.601562 29.148438 C 12.265625 29.054688 13.382812 27.480469 13.429688 25.890625 C 13.527344 22.492188 10.9375 19.171875 7.679688 18.394531 C 7.140625 18.234375 6.585938 18.226562 6.0625 18.34375 Z M 21.609375 21.664062 C 19.003906 22.277344 16.664062 24.234375 15.441406 26.621094 C 14.15625 29.375 13.289062 32.429688 13.386719 35.503906 C 13.167969 37.785156 15.34375 39.84375 17.578125 39.34375 C 20.277344 38.796875 22.148438 36.390625 24.785156 35.632812 C 26.96875 34.757812 29.273438 35.480469 31.488281 35.789062 C 33.394531 36.140625 35.722656 35.296875 36.167969 33.199219 C 36.417969 31.113281 34.914062 29.296875 33.667969 27.78125 C 31.292969 25.40625 28.761719 22.914062 25.523438 21.839844 C 24.21875 21.390625 22.882812 21.367188 21.609375 21.664062 Z M 21.609375 21.664062 " fill-opacity="1" fill-rule="nonzero"/></g></g></g></g></g></g><g mask="url(#dca396e8db)"><g transform="matrix(1, 0, 0, 1, 60, 383)"><g clip-path="url(#0f200644cc)"><g clip-path="url(#57e3298399)"><g clip-path="url(#c68b3f1e3e)"><g clip-path="url(#dafba23e3e)"><path fill="#eba248" d="M 26.453125 3.136719 C 26.382812 3.128906 26.3125 3.121094 26.238281 3.121094 C 23.339844 3.273438 21.414062 6.125 20.867188 8.78125 C 20.246094 11.171875 20.925781 14.425781 23.5 15.285156 C 23.875 15.40625 24.273438 15.417969 24.660156 15.363281 C 27.96875 14.664062 29.847656 11.027344 29.765625 7.820312 C 29.875 5.765625 28.625 3.367188 26.453125 3.136719 Z M 14.402344 1.820312 C 12.628906 1.652344 11.039062 3.300781 10.554688 4.96875 C 9.558594 8.273438 10.570312 12.652344 13.917969 14.136719 C 14.234375 14.246094 14.570312 14.292969 14.90625 14.28125 C 17.300781 14.167969 18.613281 11.621094 18.773438 9.460938 C 19.046875 6.613281 17.984375 3.15625 15.167969 2.007812 C 14.910156 1.90625 14.652344 1.84375 14.402344 1.820312 Z M 32.980469 13.777344 C 29.902344 13.59375 27.4375 16.429688 26.792969 19.273438 C 26.140625 21.300781 26.902344 24.210938 29.222656 24.660156 C 32.492188 25.007812 35.144531 21.746094 35.601562 18.71875 C 36.050781 16.734375 35.171875 14.152344 32.980469 13.777344 Z M 6.167969 11.25 C 4.867188 11.082031 3.496094 11.71875 2.910156 13.003906 C 1.347656 16.445312 3.078125 21.246094 6.730469 22.449219 C 8.261719 22.90625 9.777344 21.855469 10.339844 20.441406 C 11.535156 17.417969 10.285156 13.585938 7.605469 11.828125 C 7.171875 11.507812 6.675781 11.316406 6.167969 11.25 Z M 19.085938 19.308594 C 16.539062 19.007812 13.796875 20.003906 11.910156 21.753906 C 9.859375 23.8125 8.082031 26.277344 7.167969 29.074219 C 6.226562 31.054688 7.511719 33.617188 9.6875 33.890625 C 12.300781 34.28125 14.769531 32.730469 17.390625 32.90625 C 19.644531 32.832031 21.480469 34.234375 23.378906 35.234375 C 24.980469 36.167969 27.355469 36.167969 28.4375 34.429688 C 29.34375 32.632812 28.585938 30.507812 27.957031 28.742188 C 26.59375 25.828125 25.125 22.765625 22.554688 20.742188 C 21.527344 19.910156 20.332031 19.457031 19.085938 19.308594 Z M 19.085938 19.308594 " fill-opacity="1" fill-rule="nonzero"/></g></g></g></g></g></g><g clip-path="url(#24fcc01824)"><g clip-path="url(#8f3e4c78f7)"><path fill="#eba248" d="M 411.730469 44.574219 L 467.765625 44.574219 L 467.765625 100.609375 L 411.730469 100.609375 Z M 411.730469 44.574219 " fill-opacity="1" fill-rule="nonzero"/></g></g><g mask="url(#a3e91c55e6)"><g transform="matrix(1, 0, 0, 1, 93, 161)"><g clip-path="url(#36682cb170)"><g clip-path="url(#25d2656a6b)"><g clip-path="url(#19f18b0733)"><path fill="#fee052" d="M 0.554688 0.765625 L 41.042969 0.765625 L 41.042969 41.253906 L 0.554688 41.253906 Z M 0.554688 0.765625 " fill-opacity="1" fill-rule="nonzero"/></g></g></g></g></g><g mask="url(#c9c0a80319)"><g transform="matrix(1, 0, 0, 1, 583, 222)"><g clip-path="url(#5702c5956f)"><g clip-path="url(#603790e77e)"><g clip-path="url(#1a2fba2232)"><g clip-path="url(#01e5a2a5f8)"><path fill="#eba248" d="M 37.152344 2.460938 C 37.039062 2.476562 36.921875 2.496094 36.808594 2.515625 C 32.261719 3.835938 30.265625 9.027344 30.378906 13.398438 C 30.277344 17.386719 32.570312 22.242188 36.972656 22.640625 C 37.613281 22.691406 38.253906 22.5625 38.847656 22.328125 C 43.835938 20.007812 45.46875 13.597656 44.152344 8.589844 C 43.566406 5.320312 40.6875 2.019531 37.152344 2.460938 Z M 17.53125 4.867188 C 14.65625 5.261719 12.738281 8.4375 12.589844 11.242188 C 12.234375 16.800781 15.46875 23.300781 21.332031 24.390625 C 21.875 24.445312 22.425781 24.398438 22.953125 24.253906 C 26.714844 23.183594 27.859375 18.699219 27.308594 15.242188 C 26.683594 10.671875 23.710938 5.636719 18.816406 4.878906 C 18.367188 4.8125 17.941406 4.8125 17.53125 4.867188 Z M 51.464844 16.753906 C 46.511719 17.609375 43.652344 22.972656 43.683594 27.679688 C 43.398438 31.109375 45.6875 35.398438 49.539062 35.238281 C 54.859375 34.578125 57.859375 28.464844 57.460938 23.542969 C 57.4375 20.257812 55.085938 16.53125 51.464844 16.753906 Z M 7.957031 22.734375 C 5.832031 22.953125 3.890625 24.460938 3.4375 26.695312 C 2.234375 32.679688 6.765625 39.582031 13.007812 40.113281 C 15.605469 40.265625 17.625 38.054688 17.996094 35.625 C 18.769531 30.425781 15.363281 24.875 10.453125 23.105469 C 9.644531 22.761719 8.785156 22.652344 7.957031 22.734375 Z M 31.460938 30.597656 C 27.304688 31.070312 23.316406 33.65625 20.976562 37.101562 C 18.480469 41.09375 16.574219 45.625 16.160156 50.359375 C 15.398438 53.816406 18.394531 57.363281 21.949219 56.988281 C 26.242188 56.628906 29.585938 53.277344 33.816406 52.582031 C 37.363281 51.628906 40.804688 53.148438 44.183594 54.015625 C 47.078125 54.890625 50.84375 54.011719 51.921875 50.875 C 52.691406 47.71875 50.695312 44.664062 49.042969 42.121094 C 45.796875 38.054688 42.328125 33.785156 37.5 31.5625 C 35.5625 30.636719 33.492188 30.363281 31.460938 30.597656 Z M 31.460938 30.597656 " fill-opacity="1" fill-rule="nonzero"/></g></g></g></g></g></g></svg>