<svg xmlns="http://www.w3.org/2000/svg" xmlns:xlink="http://www.w3.org/1999/xlink" width="500" zoomAndPan="magnify" viewBox="0 0 375 374.999991" height="500" preserveAspectRatio="xMidYMid meet" version="1.0"><defs><clipPath id="1629444237"><path d="M 92.34375 0 L 208 0 L 208 98 L 92.34375 98 Z M 92.34375 0 " clip-rule="nonzero"/></clipPath></defs><path fill="#3a4041" d="M 238.828125 321.5 L 235.296875 375 C 235.296875 375 203.570312 375 195.023438 375 C 195.023438 375 190.988281 353.011719 188.359375 353.011719 C 185.734375 353.011719 181.96875 354.984375 181.96875 354.984375 L 175.84375 375 C 175.84375 375 133.65625 375 132.695312 375 C 132.695312 375 128.421875 331.34375 129.078125 323.46875 C 129.738281 315.589844 236.859375 314.277344 238.828125 321.5 " fill-opacity="1" fill-rule="nonzero"/><path fill="#217db5" d="M 228.535156 155.179688 L 201.371094 145.109375 L 144.195312 153.753906 C 144.195312 153.753906 127.328125 166.558594 126.890625 168.308594 C 126.453125 170.058594 133.023438 214.265625 133.023438 230.457031 C 133.023438 246.65625 126.234375 325.875 126.234375 325.875 L 125.792969 327.410156 C 125.792969 327.410156 135.652344 325.4375 147.480469 332.003906 C 159.3125 338.570312 181 345.132812 199.398438 340.539062 C 217.800781 335.945312 219.113281 330.253906 241.457031 325.875 C 241.457031 325.875 237.734375 194.132812 228.535156 155.179688 " fill-opacity="1" fill-rule="nonzero"/><path fill="#236699" d="M 213.554688 287.109375 C 227.902344 283.992188 234.765625 272.773438 236.015625 260.304688 C 234.765625 260.925781 233.519531 259.683594 232.269531 259.683594 C 234.402344 258.972656 236.527344 258.054688 238.542969 256.941406 C 236.679688 222.617188 233.863281 183.871094 229.925781 161.984375 C 210.992188 160.890625 191.808594 163.40625 172.371094 166.179688 C 166.132812 167.425781 158.644531 168.671875 153.027344 164.308594 C 158.644531 177.398438 151.15625 186.128906 140.546875 192.984375 C 140.546875 188.976562 141.355469 185.378906 142.320312 181.855469 C 139.925781 189.664062 135.804688 196.476562 130.800781 202.625 C 132.007812 213.378906 133.023438 224.085938 133.023438 230.457031 C 133.023438 236.511719 132.074219 251.367188 130.886719 267.605469 C 136.765625 271.269531 140.582031 277.441406 143.046875 285.238281 C 141.171875 285.238281 139.925781 285.238281 138.050781 285.238281 C 148.039062 297.707031 145.542969 314.535156 150.53125 329.496094 C 151.105469 331.21875 151.816406 333.066406 152.898438 334.6875 C 161.511719 338.515625 173.046875 341.777344 184.625 342.050781 C 189.625 337.738281 191.722656 331.457031 187.34375 323.265625 C 191.710938 323.265625 196.082031 324.511719 200.449219 323.265625 C 192.960938 322.015625 182.976562 314.535156 189.21875 307.054688 C 190.464844 305.183594 193.585938 308.925781 194.835938 307.054688 C 196.082031 305.808594 192.960938 302.070312 194.835938 301.445312 C 201.695312 298.332031 207.9375 302.691406 215.421875 303.9375 C 221.039062 305.183594 226.03125 303.9375 231.023438 302.691406 C 224.15625 300.824219 216.671875 302.691406 210.429688 297.707031 C 206.0625 293.964844 210.429688 287.730469 213.554688 287.109375 " fill-opacity="1" fill-rule="nonzero"/><path fill="#217db5" d="M 259.53125 168.855469 C 259.53125 168.855469 277.933594 174.21875 281 195.335938 C 282.804688 207.785156 279.027344 219.410156 272.78125 224.332031 C 266.539062 229.253906 252.300781 212.839844 250.660156 209.230469 C 249.015625 205.621094 253.945312 171.480469 259.53125 168.855469 " fill-opacity="1" fill-rule="nonzero"/><path fill="#1f688d" d="M 162.9375 136.222656 C 162.9375 136.222656 150.769531 139.84375 149.628906 141.726562 C 148.488281 143.609375 142.308594 154.632812 142.308594 154.632812 L 164.96875 175.914062 L 167.949219 163.640625 L 175.519531 171.832031 L 179.84375 163.292969 L 188.375 171.894531 C 188.375 171.894531 203.5625 146.554688 203.339844 145.21875 C 203.121094 143.882812 192.484375 133.691406 192.484375 133.691406 L 162.9375 136.222656 " fill-opacity="1" fill-rule="nonzero"/><path fill="#f9eccc" d="M 182.882812 122.042969 C 182.882812 122.042969 181.894531 134.144531 183.242188 137.878906 C 184.582031 141.613281 190.90625 140.921875 190.90625 140.921875 C 190.90625 140.921875 178.347656 165.476562 174.691406 165.835938 C 171.039062 166.199219 152.511719 145.472656 152.511719 145.472656 C 152.511719 145.472656 159.398438 143.179688 160.214844 141.273438 C 161.03125 139.359375 159.921875 128.730469 159.921875 128.730469 L 182.882812 122.042969 " fill-opacity="1" fill-rule="nonzero"/><path fill="#f0dfc1" d="M 182.847656 136.1875 C 182.121094 131.386719 182.882812 122.042969 182.882812 122.042969 L 159.921875 128.730469 C 159.921875 128.730469 160.851562 137.660156 160.378906 140.621094 C 169.824219 147.300781 176.835938 145.550781 182.847656 136.1875 " fill-opacity="1" fill-rule="nonzero"/><g clip-path="url(#1629444237)"><path fill="#4c5b76" d="M 115.082031 92.539062 C 115.082031 92.539062 95.105469 76.496094 92.386719 19.351562 C 92.386719 19.351562 98.71875 25.632812 100.933594 25.3125 C 100.933594 25.3125 93.070312 14.636719 95.046875 -0.0078125 C 95.046875 -0.0078125 106.472656 7.085938 128.195312 7.054688 C 149.917969 7.03125 183.542969 4.792969 189.132812 12.203125 L 190.785156 4.785156 C 190.785156 4.785156 193.582031 8.492188 193.785156 13.078125 C 193.785156 13.078125 202.222656 11.523438 201.027344 13.070312 L 199.828125 17.34375 C 199.828125 17.34375 203.769531 29.089844 206.3125 40.527344 C 208.851562 51.957031 208.015625 77.722656 204.957031 84.828125 C 201.898438 91.9375 122.792969 105.285156 115.082031 92.539062 " fill-opacity="1" fill-rule="nonzero"/></g><path fill="#f9eccc" d="M 199.355469 75.101562 C 199.355469 75.101562 199.992188 69.292969 200.464844 67.433594 C 194.738281 65.121094 190.691406 44.285156 188.113281 37.492188 C 162.269531 45.21875 140.699219 49.035156 117.695312 43.871094 C 119.75 55.890625 119.84375 72.484375 115.347656 81.398438 C 116.527344 84.488281 119.660156 91.304688 119.660156 91.304688 C 119.660156 91.304688 108.617188 81.171875 108.617188 90.195312 C 108.617188 99.210938 116.324219 114.007812 123.546875 107.394531 C 123.546875 107.394531 127.265625 116.847656 136.957031 124.484375 C 146.652344 132.121094 154.757812 134.40625 165.363281 135.636719 C 178.289062 137.128906 187.296875 129.214844 190.308594 126.207031 C 193.316406 123.199219 202.707031 107.683594 202.765625 102.089844 C 202.824219 96.496094 202.582031 91.808594 202.582031 91.808594 C 202.582031 91.808594 209.6875 93.371094 211.554688 82.363281 C 213.417969 71.359375 206.308594 63.023438 199.355469 75.101562 " fill-opacity="1" fill-rule="nonzero"/><path fill="#586783" d="M 134.128906 85.390625 C 134.871094 88.320312 136.78125 90.359375 138.382812 89.953125 C 139.984375 89.539062 140.6875 86.84375 139.945312 83.917969 C 139.195312 80.992188 137.300781 78.949219 135.695312 79.359375 C 134.085938 79.765625 133.382812 82.464844 134.128906 85.390625 " fill-opacity="1" fill-rule="nonzero"/><path fill="#586783" d="M 182.570312 76.34375 C 182.867188 79.355469 184.449219 81.648438 186.101562 81.484375 C 187.742188 81.3125 188.835938 78.746094 188.53125 75.75 C 188.226562 72.742188 186.648438 70.441406 184.996094 70.613281 C 183.351562 70.773438 182.257812 73.34375 182.570312 76.34375 " fill-opacity="1" fill-rule="nonzero"/><path fill="#586783" d="M 126.523438 68.46875 C 126.523438 68.46875 126.207031 65.132812 131.714844 63.058594 C 137.222656 60.980469 139.546875 65.964844 137.378906 66.597656 C 135.214844 67.226562 133.433594 66.03125 131.332031 67.140625 C 129.234375 68.242188 126.792969 70.363281 126.523438 68.46875 " fill-opacity="1" fill-rule="nonzero"/><path fill="#586783" d="M 188.507812 58.8125 C 188.507812 58.8125 187.878906 55.519531 182.007812 55.066406 C 176.136719 54.617188 175.304688 60.050781 177.5625 60.050781 C 179.820312 60.054688 181.195312 58.402344 183.519531 58.878906 C 185.847656 59.355469 188.78125 60.703125 188.507812 58.8125 " fill-opacity="1" fill-rule="nonzero"/><path fill="#ffffff" d="M 153.921875 110.179688 C 153.921875 110.179688 168.050781 108.644531 179.15625 105.125 C 179.15625 105.125 176.199219 118.273438 168.527344 118.726562 C 160.851562 119.179688 153.921875 110.179688 153.921875 110.179688 " fill-opacity="1" fill-rule="nonzero"/><path fill="#ffffff" d="M 158.261719 86.621094 L 157.042969 100.648438 L 169.140625 98.4375 L 158.78125 98.148438 L 158.261719 86.621094 " fill-opacity="1" fill-rule="nonzero"/><path fill="#f19b1b" d="M 210.242188 128.148438 C 210.242188 128.148438 221.414062 111.078125 237.515625 109.769531 C 253.617188 108.453125 273.988281 118.957031 276.945312 133.074219 C 279.902344 147.191406 273.988281 163.273438 273.660156 171.808594 C 273.332031 180.34375 270.703125 189.863281 265.445312 193.800781 C 265.445312 193.800781 267.746094 198.726562 264.128906 202.996094 C 264.128906 202.996094 262.160156 216.125 254.273438 221.046875 C 246.386719 225.972656 238.828125 229.582031 238.171875 232.867188 C 237.515625 236.148438 236.527344 240.414062 237.84375 246.984375 C 239.15625 253.546875 235.546875 258.800781 227.660156 258.800781 C 227.660156 258.800781 226.015625 270.617188 212.871094 269.960938 C 212.871094 269.960938 212.214844 286.375 204.328125 290.972656 C 196.441406 295.566406 188.882812 298.191406 186.914062 299.832031 C 184.941406 301.472656 180.011719 309.351562 178.371094 318.871094 C 176.726562 328.390625 183.625 324.78125 181.65625 329.046875 C 181.65625 329.046875 187.238281 325.109375 187.566406 327.734375 C 187.898438 330.363281 181.65625 345.789062 163.253906 338.898438 C 144.851562 332.003906 147.152344 284.734375 142.554688 272.914062 C 137.953125 261.097656 125.136719 244.027344 126.78125 224.660156 C 128.421875 205.292969 138.9375 207.589844 138.9375 207.589844 C 138.9375 207.589844 138.28125 196.429688 144.527344 192.820312 C 150.769531 189.207031 155.367188 191.835938 156.023438 187.894531 C 156.679688 183.957031 158.324219 171.808594 166.867188 167.542969 C 175.410156 163.273438 177.382812 167.214844 177.382812 167.214844 C 177.382812 167.214844 176.066406 161.304688 181.324219 161.632812 C 181.324219 161.632812 184.285156 160.976562 186.253906 153.425781 C 188.226562 145.875 192.496094 130.777344 210.242188 128.148438 " fill-opacity="1" fill-rule="nonzero"/><path fill="#e08623" d="M 223.714844 223.457031 C 223.722656 223.480469 219.035156 223.96875 211.496094 223.167969 C 204.199219 222.304688 192.980469 219.914062 185.183594 210.847656 C 177.449219 201.734375 176.8125 190.285156 177.257812 182.941406 C 177.785156 175.367188 179.378906 170.890625 179.464844 170.933594 C 179.617188 170.960938 178.253906 175.472656 177.894531 182.976562 C 177.609375 190.265625 178.375 201.449219 185.871094 210.265625 C 193.40625 219.042969 204.347656 221.519531 211.574219 222.535156 C 219.023438 223.488281 223.71875 223.234375 223.714844 223.457031 " fill-opacity="1" fill-rule="nonzero"/><path fill="#e08623" d="M 210.570312 263.285156 C 210.714844 263.421875 205.40625 267.335938 195.429688 270.382812 C 190.472656 271.890625 184.351562 273.253906 177.441406 273.25 C 170.625 273.25 162.632812 271.539062 156.5625 266.097656 C 145 254.574219 142.46875 239.273438 141.332031 229.253906 C 140.375 218.910156 141.261719 212.492188 141.347656 212.515625 C 141.507812 212.511719 140.855469 218.925781 141.96875 229.1875 C 143.234375 239.117188 145.929688 254.253906 157.164062 265.425781 C 163.007812 270.667969 170.742188 272.371094 177.445312 272.414062 C 184.238281 272.46875 190.308594 271.191406 195.25 269.773438 C 205.191406 266.90625 210.558594 263.226562 210.570312 263.285156 " fill-opacity="1" fill-rule="nonzero"/><path fill="#e08623" d="M 191.296875 255.40625 C 191.3125 255.449219 187.789062 256.753906 181.796875 257.554688 C 175.96875 258.292969 166.839844 258.378906 159.074219 252.851562 C 151.332031 247.328125 148.207031 238.847656 146.828125 233.121094 C 145.460938 227.226562 145.628906 223.445312 145.726562 223.457031 C 145.875 223.441406 145.9375 227.1875 147.449219 232.964844 C 148.964844 238.59375 152.136719 246.804688 159.597656 252.117188 C 167.066406 257.445312 175.9375 257.492188 181.726562 256.917969 C 187.667969 256.292969 191.246094 255.210938 191.296875 255.40625 " fill-opacity="1" fill-rule="nonzero"/><path fill="#e08623" d="M 189.539062 240.085938 C 189.519531 239.714844 200.050781 242.640625 212.605469 239.085938 C 225.105469 235.773438 233.6875 229.332031 233.789062 229.585938 C 234 229.714844 225.546875 236.582031 212.835938 239.957031 C 200.039062 243.574219 189.34375 240.1875 189.539062 240.085938 " fill-opacity="1" fill-rule="nonzero"/><path fill="#e08623" d="M 215.390625 217.328125 C 215.421875 217.347656 213.183594 218.09375 209.601562 217.289062 C 206.011719 216.601562 201.554688 213.679688 198.359375 209.1875 C 191.976562 200.113281 190.710938 191.007812 190.855469 191.066406 C 191.191406 190.902344 192.867188 199.832031 199.089844 208.648438 C 202.207031 213.015625 206.359375 215.847656 209.753906 216.671875 C 213.140625 217.601562 215.390625 217.105469 215.390625 217.328125 " fill-opacity="1" fill-rule="nonzero"/><path fill="#e08623" d="M 219.332031 215.578125 C 219.375 215.585938 216.824219 216.0625 213.152344 214.507812 C 209.417969 213.074219 205.445312 208.820312 203.21875 203.289062 C 198.78125 192.128906 199.496094 182.226562 199.617188 182.3125 C 199.988281 182.226562 199.710938 192.050781 204.050781 202.933594 C 206.238281 208.332031 209.921875 212.40625 213.414062 213.929688 C 216.855469 215.566406 219.371094 215.347656 219.332031 215.578125 " fill-opacity="1" fill-rule="nonzero"/><path fill="#e08623" d="M 247.8125 197.195312 C 247.859375 196.855469 243.332031 201.683594 233.894531 201.207031 C 224.160156 200.789062 214.480469 190.046875 209.949219 177.09375 C 205.046875 164.148438 204.101562 150.875 207.558594 142.261719 C 210.769531 133.503906 216.367188 130.511719 216.265625 130.667969 C 216.484375 130.726562 211.136719 133.855469 208.160156 142.476562 C 204.933594 150.953125 205.945312 163.945312 210.796875 176.777344 C 215.300781 189.589844 224.625 200.019531 233.960938 200.574219 C 243.042969 201.21875 247.734375 196.671875 247.8125 197.195312 " fill-opacity="1" fill-rule="nonzero"/><path fill="#e08623" d="M 274.359375 149.609375 C 274.152344 149.621094 274.304688 146.003906 273.300781 140.339844 C 272.398438 134.808594 269.5 126.640625 261.976562 121.925781 C 254.496094 117.285156 246.050781 117.226562 240.417969 117.582031 C 234.660156 117.996094 231.191406 118.992188 231.164062 118.847656 C 231.125 118.753906 234.554688 117.53125 240.363281 116.945312 C 246.039062 116.429688 254.671875 116.34375 262.460938 121.164062 C 270.300781 126.089844 273.1875 134.617188 273.925781 140.230469 C 274.78125 146.007812 274.398438 149.621094 274.359375 149.609375 " fill-opacity="1" fill-rule="nonzero"/><path fill="#e08623" d="M 196.988281 159.554688 C 196.871094 159.617188 196.175781 152.464844 199.046875 144.261719 C 201.800781 136.007812 206.886719 130.839844 207.066406 131.105469 C 207.226562 131.210938 202.585938 136.488281 199.898438 144.554688 C 197.09375 152.5625 197.367188 159.589844 196.988281 159.554688 " fill-opacity="1" fill-rule="nonzero"/><path fill="#e08623" d="M 265.445312 193.800781 C 265.679688 193.820312 263.519531 198.976562 258.035156 202.679688 C 252.671875 206.414062 247.394531 207.503906 247.375 207.261719 C 247.285156 207.023438 252.324219 205.566406 257.515625 201.9375 C 262.8125 198.375 265.203125 193.648438 265.445312 193.800781 " fill-opacity="1" fill-rule="nonzero"/><path fill="#e08623" d="M 254.382812 197.195312 C 254.601562 197.011719 247.4375 204.714844 235.351562 205.179688 C 223.308594 205.441406 215.503906 198.507812 215.828125 198.507812 C 215.835938 198.144531 223.703125 204.550781 235.324219 204.277344 C 246.960938 203.863281 254.253906 196.671875 254.382812 197.195312 " fill-opacity="1" fill-rule="nonzero"/><path fill="#e08623" d="M 165.007812 224.332031 C 165 224.625 158 219.429688 155.65625 209.554688 C 153.21875 199.921875 154.722656 191.847656 154.929688 191.941406 C 155.214844 191.929688 154.144531 199.925781 156.527344 209.324219 C 158.800781 218.921875 165.265625 224.183594 165.007812 224.332031 " fill-opacity="1" fill-rule="nonzero"/><path fill="#e08623" d="M 172.453125 220.394531 C 172.441406 220.53125 167.417969 218.402344 163.253906 213.28125 C 158.976562 208.125 158.929688 202.332031 159.3125 202.449219 C 159.441406 202.394531 159.863281 207.785156 163.960938 212.71875 C 167.945312 217.640625 172.667969 220.09375 172.453125 220.394531 " fill-opacity="1" fill-rule="nonzero"/><path fill="#e08623" d="M 214.074219 247.089844 C 214.023438 246.957031 220.769531 245.003906 226.726562 238.839844 C 232.8125 233 236.632812 227.230469 236.859375 227.398438 C 237.054688 227.496094 233.539062 233.550781 227.347656 239.496094 C 221.285156 245.78125 214.058594 247.480469 214.074219 247.089844 " fill-opacity="1" fill-rule="nonzero"/><path fill="#e08623" d="M 178.152344 333.753906 C 178.25 333.660156 176.921875 334.847656 174.824219 333.625 C 172.84375 332.417969 171.148438 329.535156 169.625 325.933594 C 166.585938 318.652344 164.082031 308.0625 161.84375 296.332031 C 160.230469 284.464844 156.613281 274.199219 151.820312 267.949219 C 147.238281 261.617188 143 259 143.101562 258.910156 C 143.121094 258.789062 147.550781 261.246094 152.335938 267.574219 C 157.324219 273.761719 161.140625 284.347656 162.734375 296.164062 C 164.964844 307.875 167.363281 318.441406 170.21875 325.695312 C 171.644531 329.28125 173.230469 332.128906 175.011719 333.328125 C 176.859375 334.550781 178.179688 333.570312 178.152344 333.753906 " fill-opacity="1" fill-rule="nonzero"/><path fill="#e08623" d="M 178.152344 291.300781 C 178.214844 291.347656 176.140625 291.984375 173.203125 290.671875 C 170.273438 289.433594 167.035156 286.410156 164.242188 282.625 C 158.667969 274.972656 156.050781 267.71875 156.246094 267.664062 C 156.507812 267.527344 159.488281 274.566406 164.964844 282.085938 C 167.714844 285.808594 170.769531 288.78125 173.472656 290.097656 C 176.167969 291.480469 178.160156 291.109375 178.152344 291.300781 " fill-opacity="1" fill-rule="nonzero"/><path fill="#9c4525" d="M 240.800781 196.101562 C 230.414062 195.027344 220.097656 189.207031 216.8125 177.058594 C 213.527344 164.914062 214.515625 150.144531 218.785156 141.28125 C 223.058594 132.417969 234.554688 116.332031 251.644531 121.585938 C 268.730469 126.835938 274.648438 141.9375 269.058594 166.226562 C 263.476562 190.519531 259.859375 198.070312 240.800781 196.101562 " fill-opacity="1" fill-rule="nonzero"/><path fill="#9f8067" d="M 217.273438 145.066406 C 214.332031 153.988281 213.960938 166.511719 216.8125 177.058594 C 220.097656 189.207031 230.414062 195.027344 240.800781 196.101562 C 252.453125 197.304688 258.328125 194.941406 262.417969 187.375 C 260.058594 176.988281 253.40625 167.753906 245.402344 159.335938 C 238.136719 152.078125 228.011719 144.421875 217.273438 145.066406 " fill-opacity="1" fill-rule="nonzero"/><path fill="#3e5254" d="M 276.492188 154.183594 C 276.324219 152.777344 275.105469 150.835938 274.359375 149.609375 C 274.769531 149.800781 275.300781 149.691406 275.707031 149.515625 C 274.660156 149.324219 273.105469 147.753906 272.308594 146.328125 C 271.78125 144.164062 271.164062 141.898438 270.476562 139.542969 C 267.570312 129.578125 265.46875 130.441406 265.46875 130.441406 C 265.46875 130.441406 262.273438 137.640625 261.621094 141.242188 C 260.972656 144.84375 255.648438 156.066406 256.898438 169.800781 C 257.34375 174.695312 258.707031 177.441406 260.394531 178.878906 C 260.625 179.816406 260.523438 181.136719 260.511719 181.949219 C 260.871094 181.414062 261.144531 180.753906 261.28125 180.21875 C 261.695312 180.960938 261.980469 181.839844 262.574219 182.523438 C 262.617188 181.953125 262.585938 181.363281 262.613281 180.792969 C 263.125 181.019531 263.40625 181.652344 263.890625 181.863281 C 263.941406 181.414062 264.0625 180.992188 264.148438 180.570312 C 264.832031 180.941406 264.585938 181.839844 264.925781 182.40625 C 265.351562 181.851562 265.785156 181.179688 266.300781 180.679688 C 266.351562 181.5 266.421875 182.410156 265.894531 183.0625 C 267.644531 182.816406 268.523438 180.679688 268.910156 178.84375 C 269.035156 178.769531 269.15625 178.691406 269.261719 178.621094 C 271.910156 176.832031 273.40625 169.765625 274.210938 163.8125 C 274.304688 163.105469 274.363281 162.355469 274.394531 161.582031 C 274.570312 161.960938 274.746094 162.335938 274.953125 162.691406 C 275.058594 161.105469 274.574219 158.59375 275.214844 157.15625 C 275.746094 157.574219 275.859375 158.578125 276.261719 159.105469 C 276.304688 156.988281 275.476562 154.890625 275.1875 152.808594 C 275.761719 153.183594 275.996094 153.835938 276.492188 154.183594 " fill-opacity="1" fill-rule="nonzero"/><path fill="#f5e7d5" d="M 226.679688 185.835938 C 226.679688 185.835938 226.523438 191.511719 230.394531 194.328125 C 234.269531 197.148438 245.113281 199.421875 249.191406 196.882812 C 253.277344 194.347656 253.089844 190.894531 253.089844 190.894531 C 253.089844 190.894531 238.625 179.613281 226.679688 185.835938 " fill-opacity="1" fill-rule="nonzero"/><path fill="#dfcfc0" d="M 253.089844 190.894531 C 253.089844 190.894531 238.625 179.613281 226.679688 185.835938 C 226.679688 185.835938 226.636719 187.585938 227.253906 189.621094 C 231.917969 192.304688 237.238281 192.472656 242.117188 190.847656 C 242.773438 193.476562 244.742188 195.445312 246.714844 196.101562 C 247.570312 196.441406 248.425781 196.695312 249.269531 196.835938 C 253.265625 194.304688 253.089844 190.894531 253.089844 190.894531 " fill-opacity="1" fill-rule="nonzero"/><path fill="#ffffff" d="M 240.144531 121.773438 C 239.777344 121.5625 239.417969 121.390625 239.128906 121.335938 C 239.4375 121.527344 239.785156 121.664062 240.144531 121.773438 " fill-opacity="1" fill-rule="nonzero"/><path stroke-linecap="butt" transform="matrix(0.0642536, 0, 0, -0.0641903, 26.18875, 374.999975)" fill="none" stroke-linejoin="miter" d="M 3329.865621 3944.931996 C 3324.150959 3948.218121 3318.557885 3950.895705 3314.059109 3951.747663 C 3318.861857 3948.765809 3324.272548 3946.635913 3329.865621 3944.931996 Z M 3329.865621 3944.931996 " stroke="#231f20" stroke-width="9.875" stroke-opacity="1" stroke-miterlimit="4"/><path fill="#cfad94" d="M 271.136719 158.363281 C 273.355469 152.664062 267.6875 133.710938 265.46875 130.441406 C 264.785156 129.4375 262.972656 128.640625 260.792969 128.015625 C 261.277344 127.675781 261.679688 127.234375 261.925781 126.636719 C 261.257812 126.683594 260.566406 126.746094 259.867188 126.710938 C 260.210938 126.289062 260.75 125.917969 261.242188 125.628906 C 259.660156 125.867188 257.523438 125.757812 256.210938 126.496094 C 256.65625 125.734375 257.09375 124.914062 257.652344 124.25 C 256.667969 125.46875 254.621094 126.140625 252.679688 126.46875 C 250.585938 126.199219 249.085938 126.085938 249.085938 126.085938 C 249.085938 126.085938 248.324219 125.679688 247.109375 125.128906 C 246.691406 124.410156 246.667969 123.394531 247.300781 122.875 C 246.847656 123.085938 246.570312 123.566406 246.308594 123.945312 C 245.605469 123.148438 245.171875 122.34375 244.9375 121.308594 C 244.765625 121.953125 244.929688 122.679688 244.9375 123.347656 C 243.800781 123.117188 244 121.203125 243.171875 120.964844 C 243.183594 121.5625 243.246094 122.179688 243.25 122.773438 C 242.363281 122.179688 241.1875 122.089844 240.144531 121.773438 C 240.6875 122.089844 241.25 122.507812 241.625 122.800781 C 241.746094 122.894531 241.859375 123.011719 241.972656 123.144531 C 238.746094 122.128906 235.105469 121.480469 232.601562 122.519531 C 227.101562 124.804688 216.769531 144.863281 216.761719 151.511719 C 216.75 158.15625 225.019531 167.1875 225.132812 170.160156 C 225.246094 173.128906 222.878906 182.34375 226.355469 187.058594 C 229.828125 191.769531 242.5625 189.5625 242.5625 189.5625 C 247.875 197.28125 255.085938 192.707031 257.65625 189.273438 C 260.222656 185.835938 258.109375 176.566406 258.714844 173.804688 C 259.324219 171.042969 268.917969 164.066406 271.136719 158.363281 " fill-opacity="1" fill-rule="nonzero"/><path fill="#c3a189" d="M 257.230469 144.234375 C 253.945312 150.800781 257.230469 156.710938 255.261719 163.273438 C 254.183594 168.117188 254.875 174.714844 258.773438 178.75 C 258.632812 176.640625 258.5 174.800781 258.714844 173.804688 C 259.324219 171.042969 268.917969 164.066406 271.136719 158.363281 C 271.289062 157.972656 271.398438 157.515625 271.480469 157.011719 C 265.027344 157.097656 259.003906 150.136719 257.230469 144.234375 " fill-opacity="1" fill-rule="nonzero"/><path fill="#c3a189" d="M 238.171875 139.640625 C 237.527344 146.707031 231.21875 151.875 224.175781 152.089844 C 221.917969 153.851562 220.035156 155.957031 218.785156 158.40625 C 221.238281 163.355469 225.054688 168.148438 225.132812 170.160156 C 225.152344 170.761719 225.074219 171.632812 224.964844 172.664062 C 228.320312 168.214844 230.820312 163.25 234.886719 158.679688 C 239.488281 154.082031 241.457031 146.203125 238.171875 139.640625 " fill-opacity="1" fill-rule="nonzero"/><path fill="#f5e7d5" d="M 250.878906 158.679688 C 251.785156 149.660156 251.980469 140.421875 248.394531 139.492188 C 244.8125 138.5625 243.625 149.066406 240.582031 159.117188 C 237.539062 169.167969 233.375 171.472656 228.476562 175.421875 C 224.328125 178.769531 224.886719 185.582031 229.007812 188.976562 C 234.007812 191.042969 242.5625 189.5625 242.5625 189.5625 C 247.875 197.28125 255.085938 192.707031 257.65625 189.273438 C 258.945312 187.550781 259.054688 184.355469 258.917969 181.253906 C 257.429688 177.417969 255.074219 176.285156 253.78125 174.433594 C 251.429688 171.078125 249.972656 167.695312 250.878906 158.679688 " fill-opacity="1" fill-rule="nonzero"/><path fill="#3e5254" d="M 236.132812 177.074219 C 236.84375 175.507812 251.1875 178.78125 251.988281 180.636719 C 252.792969 182.492188 251.152344 185.265625 250.007812 185.632812 C 248.859375 185.996094 247.496094 186.066406 246.539062 186.566406 C 245.582031 187.066406 244.839844 191.179688 241.742188 190.054688 C 238.644531 188.929688 239.960938 185.433594 238.886719 184.902344 C 236.652344 183.796875 233.4375 183.023438 236.132812 177.074219 " fill-opacity="1" fill-rule="nonzero"/><path fill="#586b6f" d="M 237.496094 178.085938 C 239.148438 182.671875 245.320312 184.082031 249.082031 182.3125 C 249.640625 182.109375 250.257812 181.765625 250.878906 181.324219 C 248.421875 179.644531 239.617188 177.464844 237.496094 178.085938 " fill-opacity="1" fill-rule="nonzero"/><path fill="#3e5254" d="M 232.097656 122.609375 C 232.097656 122.609375 227.230469 122.289062 221.453125 129.433594 C 215.667969 136.582031 211.300781 151.792969 210.960938 155.171875 C 210.617188 158.554688 210.773438 172.980469 214.734375 174.121094 C 218.695312 175.261719 221.585938 166.125 222.050781 154.582031 C 222.511719 143.039062 225.832031 128.84375 232.097656 122.609375 " fill-opacity="1" fill-rule="nonzero"/><path fill="#3e5254" d="M 228.058594 151.046875 C 228.050781 151.125 228.039062 151.195312 228.03125 151.269531 C 227.765625 153.925781 229.160156 156.1875 231.144531 156.3125 C 233.128906 156.445312 234.957031 154.394531 235.222656 151.738281 C 235.347656 150.441406 235.082031 149.242188 234.546875 148.335938 C 232.476562 149.460938 230.378906 150.5 228.058594 151.046875 " fill-opacity="1" fill-rule="nonzero"/><path fill="#3e5254" d="M 264.945312 155.113281 C 264.929688 155.1875 264.921875 155.261719 264.90625 155.332031 C 264.324219 157.953125 262.277344 159.792969 260.328125 159.445312 C 258.375 159.09375 257.261719 156.6875 257.839844 154.066406 C 258.125 152.792969 258.753906 151.703125 259.554688 150.960938 C 261.195312 152.535156 262.886719 154.03125 264.945312 155.113281 " fill-opacity="1" fill-rule="nonzero"/><path fill="#217db5" d="M 179.355469 205.292969 C 179.355469 205.292969 189.539062 214.15625 220.757812 213.5 C 251.972656 212.839844 264.128906 202.996094 264.128906 202.996094 C 264.128906 202.996094 276.398438 211.96875 274.101562 222.144531 C 271.796875 232.320312 207.285156 248.621094 170.8125 213.5 L 179.355469 205.292969 " fill-opacity="1" fill-rule="nonzero"/><path fill="#f9eccc" d="M 181 204.855469 C 181 204.855469 182.3125 199.164062 179.464844 193.914062 C 176.617188 188.660156 174.207031 184.503906 173.550781 181.875 C 172.894531 179.25 169.167969 180.34375 169.605469 183.84375 C 170.042969 187.347656 171.363281 194.566406 171.140625 196.320312 C 170.921875 198.070312 166.101562 197.195312 162.816406 193.476562 C 159.53125 189.753906 156.246094 186.472656 156.683594 180.125 C 156.683594 180.125 154.488281 178.375 153.613281 181 C 152.738281 183.628906 152.738281 187.128906 152.738281 187.128906 C 152.738281 187.128906 150.769531 185.378906 149.453125 186.472656 C 148.140625 187.566406 149.234375 192.820312 149.234375 192.820312 C 149.234375 192.820312 146.605469 190.191406 145.730469 193.035156 C 144.855469 195.882812 147.699219 201.351562 147.699219 201.351562 C 147.699219 201.351562 146.167969 199.601562 145.730469 201.351562 C 145.292969 203.105469 150.109375 213.171875 163.472656 214.703125 C 176.835938 216.234375 180.558594 209.230469 181 204.855469 " fill-opacity="1" fill-rule="nonzero"/><path fill="#f9eccc" d="M 202.203125 260.355469 C 203.78125 257.207031 206.339844 253.859375 212.25 252.878906 C 218.160156 251.894531 221.113281 252.679688 223.476562 251.105469 C 225.839844 249.53125 226.828125 253.859375 224.855469 255.433594 C 222.886719 257.011719 218.554688 258.585938 218.554688 258.585938 C 218.554688 258.585938 220.328125 259.960938 222.492188 259.960938 C 224.660156 259.960938 227.617188 258.78125 227.617188 258.78125 C 227.617188 258.78125 231.359375 260.550781 231.753906 262.519531 C 232.144531 264.488281 230.964844 266.0625 230.964844 266.0625 C 230.964844 266.0625 231.554688 268.621094 230.175781 271.179688 C 228.796875 273.738281 227.417969 275.703125 226.628906 276.292969 C 225.839844 276.882812 225.839844 279.25 220.917969 278.851562 C 215.992188 278.460938 201.613281 276.492188 200.429688 272.359375 C 199.25 268.226562 202.203125 260.355469 202.203125 260.355469 " fill-opacity="1" fill-rule="nonzero"/><path fill="#217db5" d="M 126.890625 168.308594 C 113.5625 179.347656 100.820312 224.660156 120.863281 250.59375 C 140.910156 276.527344 199.070312 275.214844 202.027344 272.914062 C 204.984375 270.617188 204.679688 260.597656 202.203125 260.355469 C 199.726562 260.113281 150.109375 256.828125 136.308594 235.492188 C 122.507812 214.15625 137.53125 198.167969 139.925781 185.925781 C 142.554688 172.46875 135.871094 160.867188 126.890625 168.308594 " fill-opacity="1" fill-rule="nonzero"/><path fill="#576a6d" d="M 213.371094 141.839844 C 214.292969 142.019531 216.152344 141.007812 216.652344 140.242188 C 216.636719 141.199219 216.621094 141.988281 217.042969 142.828125 C 216.820312 142.265625 217.113281 141.472656 217.78125 141.289062 C 217.914062 142.0625 218.582031 142.46875 218.996094 143.0625 C 218.421875 142.28125 218.371094 141.1875 218.023438 140.292969 C 217.671875 139.375 217.222656 138.242188 217.71875 137.261719 L 217.632812 135.617188 C 216.925781 136.433594 214.828125 139.277344 213.957031 137.101562 C 213.945312 137.9375 214.710938 139.335938 215.738281 139.246094 C 215.027344 139.957031 213.820312 140.9375 213.371094 141.839844 " fill-opacity="1" fill-rule="nonzero"/><path fill="#3e5254" d="M 218.769531 170.421875 C 218.664062 170.503906 218.578125 170.460938 218.457031 170.496094 L 211.96875 169.101562 C 211.777344 169.542969 211.898438 169.933594 211.535156 170.390625 C 211.121094 170.921875 210.667969 171.03125 210.007812 171 C 210.015625 171.035156 210.015625 171.1875 210.007812 171.222656 C 210.617188 171.492188 211.34375 171.496094 211.867188 171.078125 C 211.945312 172.195312 211.523438 173.5625 212.03125 174.574219 C 212.054688 174.066406 212.375 173.476562 212.523438 173.046875 C 212.597656 173.785156 213.066406 174.421875 213.136719 175.167969 C 213.308594 174.8125 213.300781 174.269531 213.59375 173.949219 C 213.660156 174.890625 213.574219 175.8125 213.390625 176.722656 C 214.113281 176.65625 215.347656 175.746094 215.335938 174.953125 C 215.335938 175.453125 215.324219 175.964844 215.34375 176.460938 C 216.195312 175.996094 216.199219 174.75 216.875 174.203125 C 217.3125 174.589844 217.796875 174.96875 218.199219 175.394531 C 218.089844 174.734375 218.097656 173.964844 218.125 173.265625 C 218.171875 172.253906 218.691406 171.359375 218.769531 170.421875 " fill-opacity="1" fill-rule="nonzero"/><path fill="#576a6d" d="M 212.136719 152.882812 C 211.972656 154.214844 211.683594 155.886719 212.152344 157.179688 C 212.496094 156.382812 212.675781 155.457031 213.039062 154.6875 C 212.96875 156.269531 213.742188 157.664062 214.519531 158.980469 C 214.285156 157.945312 214.117188 156.886719 214.101562 155.804688 C 214.089844 154.761719 214.421875 153.984375 214.667969 153.027344 C 214.023438 153 213.65625 153.695312 213.132812 153.992188 C 213.046875 153.402344 212.914062 152.8125 212.9375 152.203125 C 212.867188 152.253906 212.546875 152.425781 212.625 152.359375 L 211.96875 151.949219 C 211.441406 152.609375 210.480469 153.269531 209.574219 153.347656 C 209.902344 153.390625 210.214844 153.519531 210.570312 153.507812 C 211.191406 153.484375 211.613281 153.164062 212.136719 152.882812 " fill-opacity="1" fill-rule="nonzero"/><path fill="#576a6d" d="M 268.867188 173.222656 C 268.265625 172.019531 267.367188 170.941406 266.867188 169.765625 C 266.726562 170.273438 266.761719 170.800781 266.761719 171.339844 C 266.375 170.5625 266.050781 169.582031 265.863281 168.757812 C 265.546875 168.910156 265.28125 169.332031 265.027344 169.609375 C 265 169.21875 265.007812 168.816406 265.007812 168.417969 L 264.789062 167.761719 C 264.074219 168.714844 263.933594 170.960938 264.046875 172.128906 C 264.515625 171.429688 264.929688 170.378906 265.640625 169.851562 C 265.894531 170.949219 266.785156 172.347656 266.757812 173.421875 C 266.839844 172.859375 266.867188 172.195312 267.195312 171.722656 C 267.871094 172.941406 268.882812 173.828125 268.972656 175.277344 C 269.664062 173.621094 269.753906 171.855469 269.9375 170.09375 C 269.761719 170.953125 269.4375 172.605469 268.867188 173.222656 " fill-opacity="1" fill-rule="nonzero"/><path fill="#aa8c73" d="M 240.992188 127.789062 C 240.742188 127.414062 240.519531 127.21875 240.472656 127.277344 C 240.441406 127.308594 240.539062 127.511719 240.683594 127.839844 C 240.210938 127.917969 239.648438 128.023438 239.035156 128.152344 C 238.761719 126.882812 238.453125 126.042969 238.390625 126.070312 C 238.292969 126.105469 238.457031 126.960938 238.648438 128.234375 C 238.632812 128.238281 238.617188 128.242188 238.597656 128.246094 C 238.121094 128.371094 237.664062 128.492188 237.25 128.613281 C 236.851562 126.792969 236.070312 125.554688 235.875 125.742188 C 235.953125 125.761719 236.496094 126.910156 236.828125 128.738281 C 235.839844 129.03125 235.191406 129.277344 235.214844 129.351562 C 235.242188 129.429688 235.910156 129.328125 236.894531 129.117188 C 236.9375 129.40625 236.980469 129.710938 237.011719 130.03125 C 237.042969 130.191406 237.074219 130.347656 237.105469 130.503906 C 236.417969 130.667969 235.972656 130.8125 235.980469 130.886719 C 235.992188 130.957031 236.460938 130.945312 237.167969 130.863281 C 237.519531 132.917969 237.5625 134.496094 237.734375 134.496094 C 237.785156 134.515625 237.921875 132.886719 237.605469 130.808594 C 237.980469 130.757812 238.394531 130.695312 238.832031 130.617188 C 238.875 130.609375 238.914062 130.601562 238.957031 130.589844 C 239.230469 132.820312 239.835938 134.535156 239.925781 134.496094 C 240.0625 134.445312 239.652344 132.726562 239.398438 130.488281 C 240.300781 130.28125 241.035156 130.066406 241.371094 129.921875 C 241.675781 131.183594 241.78125 132.195312 241.898438 132.199219 C 242.023438 132.207031 242.117188 130.992188 241.75 129.570312 C 241.617188 128.976562 241.394531 128.46875 241.171875 128.078125 C 241.765625 127.90625 242.128906 127.773438 242.117188 127.710938 C 242.101562 127.648438 241.667969 127.683594 240.992188 127.789062 Z M 238.738281 130.175781 C 238.308594 130.25 237.90625 130.328125 237.542969 130.40625 C 237.515625 130.257812 237.488281 130.105469 237.453125 129.953125 C 237.429688 129.628906 237.382812 129.320312 237.332031 129.019531 C 237.753906 128.921875 238.214844 128.8125 238.699219 128.6875 C 238.703125 128.683594 238.710938 128.683594 238.71875 128.683594 C 238.78125 129.132812 238.847656 129.625 238.90625 130.144531 C 238.851562 130.152344 238.796875 130.164062 238.738281 130.175781 Z M 241.3125 129.683594 C 241.316406 129.707031 241.324219 129.730469 241.328125 129.753906 C 240.96875 129.761719 240.234375 129.875 239.347656 130.046875 C 239.289062 129.53125 239.210938 129.039062 239.125 128.59375 C 239.765625 128.445312 240.347656 128.304688 240.824219 128.171875 C 240.988281 128.570312 241.175781 129.082031 241.3125 129.683594 " fill-opacity="1" fill-rule="nonzero"/><path fill="#aa8c73" d="M 264.78125 140.605469 C 264.664062 140.023438 264.542969 139.632812 264.460938 139.640625 C 264.378906 139.648438 264.359375 140.058594 264.398438 140.660156 C 264.207031 140.691406 264.007812 140.71875 263.804688 140.746094 C 263.699219 140.757812 263.609375 140.769531 263.511719 140.78125 C 263.421875 140.097656 263.34375 139.640625 263.257812 139.640625 C 263.179688 139.636719 263.121094 140.117188 263.132812 140.824219 C 262.925781 140.847656 262.726562 140.867188 262.535156 140.886719 C 262.386719 139.691406 262.253906 138.871094 262.160156 138.871094 C 262.074219 138.875 262.058594 139.71875 262.128906 140.929688 C 261.050781 141.03125 260.308594 141.078125 260.296875 141.171875 C 260.289062 141.25 261.046875 141.351562 262.15625 141.324219 C 262.183594 141.691406 262.21875 142.089844 262.265625 142.503906 C 262.269531 142.527344 262.269531 142.554688 262.273438 142.578125 C 262.070312 142.613281 261.949219 142.652344 261.941406 142.703125 C 261.929688 142.742188 262.066406 142.792969 262.296875 142.828125 C 262.480469 144.65625 262.578125 146.089844 262.707031 146.09375 C 262.8125 146.097656 262.90625 144.671875 262.753906 142.859375 C 262.914062 142.863281 263.097656 142.863281 263.292969 142.847656 C 263.40625 143.894531 263.46875 144.664062 263.585938 144.671875 C 263.675781 144.683594 263.785156 143.875 263.726562 142.796875 C 263.820312 142.785156 263.914062 142.769531 264.011719 142.75 C 264.222656 142.707031 264.421875 142.667969 264.609375 142.632812 C 264.699219 143.253906 264.8125 143.6875 264.898438 143.6875 C 264.984375 143.6875 265.023438 143.226562 265.003906 142.554688 C 265.589844 142.441406 265.984375 142.359375 265.996094 142.265625 C 266.003906 142.191406 265.585938 142.132812 264.984375 142.167969 C 264.980469 141.992188 264.964844 141.816406 264.949219 141.628906 C 264.921875 141.417969 264.894531 141.21875 264.859375 141.027344 C 266.308594 140.753906 267.339844 140.378906 267.308594 140.296875 C 267.273438 140.183594 266.222656 140.390625 264.78125 140.605469 Z M 262.71875 142.507812 C 262.714844 142.492188 262.714844 142.476562 262.714844 142.457031 C 262.667969 142.054688 262.625 141.667969 262.585938 141.308594 C 262.765625 141.296875 262.953125 141.285156 263.144531 141.269531 C 263.160156 141.554688 263.183594 141.859375 263.222656 142.179688 C 263.230469 142.261719 263.242188 142.34375 263.25 142.429688 C 263.054688 142.457031 262.878906 142.484375 262.71875 142.507812 Z M 264.5 141.691406 C 264.515625 141.867188 264.535156 142.039062 264.554688 142.207031 C 264.355469 142.230469 264.148438 142.261719 263.929688 142.304688 C 263.847656 142.324219 263.769531 142.335938 263.691406 142.351562 C 263.683594 142.277344 263.679688 142.207031 263.671875 142.132812 C 263.632812 141.8125 263.597656 141.507812 263.566406 141.226562 C 263.664062 141.214844 263.761719 141.203125 263.859375 141.191406 C 264.058594 141.167969 264.25 141.136719 264.4375 141.105469 C 264.453125 141.292969 264.476562 141.484375 264.5 141.691406 " fill-opacity="1" fill-rule="nonzero"/><path fill="#aa8c73" d="M 265.3125 144.414062 C 264.902344 144.5625 264.621094 144.78125 264.679688 144.890625 C 264.738281 145 265.070312 144.988281 265.421875 144.851562 C 265.785156 144.824219 266.085938 144.6875 266.101562 144.5625 C 266.117188 144.4375 265.765625 144.367188 265.3125 144.414062 " fill-opacity="1" fill-rule="nonzero"/><path fill="#aa8c73" d="M 269.824219 151.039062 C 269.703125 150.488281 269.5 150.082031 269.386719 150.144531 C 269.277344 150.207031 269.269531 150.625 269.375 151.09375 C 269.441406 151.621094 269.597656 152.027344 269.71875 152.003906 C 269.835938 151.980469 269.886719 151.542969 269.824219 151.039062 " fill-opacity="1" fill-rule="nonzero"/><path fill="#aa8c73" d="M 268.292969 151.019531 C 268.167969 151.019531 268.066406 151.285156 268.066406 151.621094 C 268.066406 151.953125 268.167969 152.222656 268.292969 152.222656 C 268.417969 152.222656 268.519531 151.953125 268.519531 151.621094 C 268.519531 151.285156 268.417969 151.019531 268.292969 151.019531 " fill-opacity="1" fill-rule="nonzero"/><path fill="#aa8c73" d="M 264.570312 132.746094 C 264.675781 132.683594 264.625 132.25 264.445312 131.777344 C 264.191406 131.25 263.886719 130.902344 263.804688 130.992188 C 263.71875 131.085938 263.804688 131.5 264.019531 131.921875 C 264.214844 132.4375 264.460938 132.808594 264.570312 132.746094 " fill-opacity="1" fill-rule="nonzero"/><path fill="#aa8c73" d="M 263.695312 132.636719 C 263.808594 132.597656 263.835938 132.300781 263.746094 131.972656 C 263.660156 131.652344 263.484375 131.40625 263.363281 131.433594 C 263.246094 131.457031 263.21875 131.753906 263.308594 132.09375 C 263.40625 132.429688 263.574219 132.675781 263.695312 132.636719 " fill-opacity="1" fill-rule="nonzero"/><path fill="#aa8c73" d="M 262.597656 132.308594 C 262.710938 132.25 262.734375 131.949219 262.648438 131.636719 C 262.5625 131.328125 262.390625 131.089844 262.269531 131.105469 C 262.144531 131.121094 262.121094 131.421875 262.21875 131.773438 C 262.316406 132.128906 262.488281 132.367188 262.597656 132.308594 " fill-opacity="1" fill-rule="nonzero"/><path fill="#aa8c73" d="M 225.769531 139.867188 C 225.660156 140.328125 225.671875 140.714844 225.796875 140.734375 C 225.917969 140.75 226.101562 140.425781 226.199219 140.007812 C 226.382812 139.640625 226.441406 139.277344 226.34375 139.199219 C 226.246094 139.121094 225.980469 139.417969 225.769531 139.867188 " fill-opacity="1" fill-rule="nonzero"/><path fill="#aa8c73" d="M 227.175781 140.265625 C 227.128906 140.65625 227.207031 140.96875 227.328125 140.953125 C 227.453125 140.9375 227.585938 140.683594 227.609375 140.382812 C 227.742188 140.109375 227.753906 139.824219 227.660156 139.746094 C 227.5625 139.671875 227.335938 139.898438 227.175781 140.265625 " fill-opacity="1" fill-rule="nonzero"/><path fill="#aa8c73" d="M 228.753906 139.746094 C 228.628906 139.746094 228.527344 140.042969 228.527344 140.40625 C 228.527344 140.769531 228.628906 141.0625 228.753906 141.0625 C 228.878906 141.0625 228.980469 140.769531 228.980469 140.40625 C 228.980469 140.042969 228.878906 139.746094 228.753906 139.746094 " fill-opacity="1" fill-rule="nonzero"/><path fill="#aa8c73" d="M 231.601562 139.199219 C 231.484375 139.242188 231.339844 139.320312 231.328125 139.359375 C 231.324219 139.40625 231.410156 139.546875 231.492188 139.640625 C 231.574219 139.730469 231.707031 139.675781 231.765625 139.480469 C 231.808594 139.277344 231.71875 139.164062 231.601562 139.199219 " fill-opacity="1" fill-rule="nonzero"/><path fill="#6d727d" d="M 225.246094 151.785156 C 225.125 151.460938 228.816406 150.484375 232.71875 148.25 C 237.175781 146.046875 236.429688 141.757812 236.527344 141.824219 C 236.578125 141.789062 237.144531 142.683594 236.941406 144.304688 C 236.761719 145.96875 235.230469 147.832031 233.1875 149.015625 C 229.058594 151.375 225.28125 151.921875 225.246094 151.785156 " fill-opacity="1" fill-rule="nonzero"/><path fill="#6d727d" d="M 267.636719 156.816406 C 267.566406 156.832031 264.523438 155.839844 261.203125 153.171875 C 257.789062 150.484375 257.738281 146.5 258.105469 146.644531 C 258.316406 146.679688 258.566406 149.914062 261.835938 152.527344 C 264.796875 154.917969 267.921875 156.480469 267.636719 156.816406 " fill-opacity="1" fill-rule="nonzero"/><path fill="#cfad94" d="M 242.773438 165.902344 C 242.636719 165.863281 242.90625 164.484375 243.125 162.78125 C 243.316406 161.074219 243.28125 159.675781 243.429688 159.664062 C 243.527344 159.648438 243.769531 161.074219 243.574219 162.832031 C 243.351562 164.582031 242.878906 165.929688 242.773438 165.902344 " fill-opacity="1" fill-rule="nonzero"/><path fill="#cfad94" d="M 244.25 164.585938 C 244.125 164.585938 244.027344 163.851562 244.027344 162.945312 C 244.027344 162.039062 244.125 161.304688 244.25 161.304688 C 244.375 161.304688 244.476562 162.039062 244.476562 162.945312 C 244.476562 163.851562 244.375 164.585938 244.25 164.585938 " fill-opacity="1" fill-rule="nonzero"/><path fill="#cfad94" d="M 245.730469 163.765625 C 245.609375 163.734375 245.609375 163.28125 245.730469 162.75 C 245.785156 162.226562 245.933594 161.800781 246.058594 161.796875 C 246.183594 161.792969 246.238281 162.257812 246.175781 162.832031 C 246.050781 163.378906 245.851562 163.796875 245.730469 163.765625 " fill-opacity="1" fill-rule="nonzero"/><path fill="#cfad94" d="M 247.046875 164.914062 C 246.925781 164.871094 246.960938 164.136719 247.105469 163.269531 C 247.128906 162.367188 247.25 161.636719 247.375 161.632812 C 247.496094 161.628906 247.578125 162.378906 247.558594 163.300781 C 247.40625 164.238281 247.15625 164.960938 247.046875 164.914062 " fill-opacity="1" fill-rule="nonzero"/><path fill="#cfad94" d="M 248.523438 161.960938 C 248.484375 162.097656 247.1875 161.828125 245.570312 161.714844 C 243.949219 161.636719 242.636719 161.78125 242.609375 161.632812 C 242.582031 161.535156 243.914062 161.179688 245.597656 161.265625 C 247.269531 161.382812 248.554688 161.863281 248.523438 161.960938 " fill-opacity="1" fill-rule="nonzero"/><path fill="#cfad94" d="M 246.714844 163.109375 C 246.703125 163.234375 245.824219 163.183594 244.765625 162.988281 C 243.71875 162.726562 242.902344 162.40625 242.9375 162.289062 C 242.972656 162.167969 243.832031 162.292969 244.859375 162.546875 C 245.898438 162.734375 246.730469 162.984375 246.714844 163.109375 " fill-opacity="1" fill-rule="nonzero"/><path fill="#aa8c73" d="M 228.152344 171.152344 C 228.03125 171.171875 227.917969 170.15625 227.933594 168.882812 C 228.207031 167.644531 228.523438 166.675781 228.644531 166.71875 C 228.761719 166.765625 228.644531 167.757812 228.382812 168.9375 C 228.371094 170.140625 228.277344 171.136719 228.152344 171.152344 " fill-opacity="1" fill-rule="nonzero"/><path fill="#aa8c73" d="M 229.628906 170.988281 C 229.511719 170.953125 229.566406 170.246094 229.757812 169.40625 C 229.851562 168.566406 229.992188 167.875 230.121094 167.871094 C 230.242188 167.867188 230.300781 168.589844 230.203125 169.484375 C 230.003906 170.351562 229.75 171.023438 229.628906 170.988281 " fill-opacity="1" fill-rule="nonzero"/><path fill="#aa8c73" d="M 231.929688 169.183594 C 231.8125 169.140625 231.769531 168.800781 231.84375 168.433594 C 231.859375 168.035156 231.96875 167.707031 232.09375 167.707031 C 232.21875 167.703125 232.3125 168.046875 232.296875 168.46875 C 232.214844 168.910156 232.046875 169.226562 231.929688 169.183594 " fill-opacity="1" fill-rule="nonzero"/><path fill="#aa8c73" d="M 231.597656 169.183594 C 231.632812 169.300781 230.769531 169.578125 229.675781 169.792969 C 228.574219 169.945312 227.671875 169.960938 227.660156 169.839844 C 227.644531 169.714844 228.515625 169.5 229.605469 169.347656 C 230.671875 169.132812 231.570312 169.0625 231.597656 169.183594 " fill-opacity="1" fill-rule="nonzero"/><path fill="#aa8c73" d="M 230.285156 170.496094 C 230.3125 170.617188 229.777344 170.820312 229.09375 170.945312 C 228.390625 171.003906 227.816406 170.949219 227.820312 170.824219 C 227.824219 170.699219 228.363281 170.550781 229.027344 170.496094 C 229.699219 170.375 230.261719 170.375 230.285156 170.496094 " fill-opacity="1" fill-rule="nonzero"/><path fill="#cfad94" d="M 253.617188 185.925781 C 253.523438 185.839844 253.875 185.039062 254.398438 184.140625 C 254.652344 183.121094 254.972656 182.304688 255.09375 182.3125 C 255.21875 182.324219 255.101562 183.214844 254.816406 184.304688 C 254.257812 185.292969 253.703125 186.007812 253.617188 185.925781 " fill-opacity="1" fill-rule="nonzero"/><path fill="#cfad94" d="M 254.273438 186.746094 C 254.175781 186.636719 254.664062 186.011719 255.085938 185.109375 C 255.484375 184.199219 255.785156 183.425781 255.914062 183.460938 C 256.027344 183.492188 255.914062 184.332031 255.492188 185.300781 C 255.046875 186.269531 254.335938 186.832031 254.273438 186.746094 " fill-opacity="1" fill-rule="nonzero"/><path fill="#cfad94" d="M 257.558594 184.9375 C 257.433594 184.9375 257.332031 184.902344 257.332031 184.859375 C 257.332031 184.8125 257.433594 184.777344 257.558594 184.777344 C 257.683594 184.777344 257.785156 184.8125 257.785156 184.859375 C 257.785156 184.902344 257.683594 184.9375 257.558594 184.9375 " fill-opacity="1" fill-rule="nonzero"/><path fill="#cfad94" d="M 255.753906 185.433594 C 255.660156 185.515625 255.085938 185.226562 254.476562 184.773438 C 253.777344 184.4375 253.242188 184.070312 253.289062 183.957031 C 253.332031 183.839844 253.964844 184.023438 254.703125 184.378906 C 255.378906 184.875 255.84375 185.351562 255.753906 185.433594 " fill-opacity="1" fill-rule="nonzero"/><path fill="#cfad94" d="M 230.285156 186.910156 C 230.183594 186.949219 229.828125 186.292969 229.734375 185.378906 C 229.671875 184.449219 230.027344 183.742188 230.121094 183.789062 C 230.257812 183.84375 230.128906 184.511719 230.183594 185.34375 C 230.273438 186.175781 230.417969 186.863281 230.285156 186.910156 " fill-opacity="1" fill-rule="nonzero"/><path fill="#cfad94" d="M 231.4375 187.238281 C 231.316406 187.273438 231.015625 186.570312 230.769531 185.671875 C 230.640625 184.722656 230.65625 183.949219 230.777344 183.957031 C 230.902344 183.960938 231.09375 184.683594 231.210938 185.566406 C 231.457031 186.453125 231.554688 187.203125 231.4375 187.238281 " fill-opacity="1" fill-rule="nonzero"/><path fill="#cfad94" d="M 232.421875 186.253906 C 232.296875 186.253906 232.203125 185.945312 232.214844 185.566406 C 232.285156 185.160156 232.484375 184.875 232.585938 184.9375 C 232.695312 185.007812 232.722656 185.296875 232.667969 185.605469 C 232.65625 185.960938 232.546875 186.25 232.421875 186.253906 " fill-opacity="1" fill-rule="nonzero"/><path fill="#cfad94" d="M 230.777344 185.433594 C 230.804688 185.554688 230.226562 185.722656 229.480469 185.800781 C 228.742188 185.8125 228.148438 185.722656 228.152344 185.597656 C 228.152344 185.46875 228.734375 185.359375 229.457031 185.351562 C 230.160156 185.273438 230.75 185.308594 230.777344 185.433594 " fill-opacity="1" fill-rule="nonzero"/><path fill="#cfad94" d="M 232.914062 186.746094 C 232.933594 186.867188 232.328125 187.078125 231.558594 187.214844 C 230.785156 187.347656 230.144531 187.359375 230.121094 187.238281 C 230.101562 187.117188 230.707031 186.90625 231.480469 186.769531 C 232.25 186.632812 232.894531 186.625 232.914062 186.746094 " fill-opacity="1" fill-rule="nonzero"/><path fill="#f3ba20" d="M 235.871094 111.050781 C 236.339844 110.765625 236.75 110.417969 237.105469 109.996094 C 237.394531 109.652344 237.820312 109.050781 237.6875 108.578125 C 237.644531 108.433594 237.511719 108.378906 237.371094 108.429688 C 236.984375 108.566406 236.765625 109.066406 236.542969 109.386719 C 236.226562 109.84375 235.964844 110.34375 235.683594 110.820312 C 235.617188 110.9375 235.726562 111.136719 235.871094 111.050781 " fill-opacity="1" fill-rule="nonzero"/><path fill="#f3ba20" d="M 240.097656 109.089844 C 239.582031 109.339844 239.152344 109.644531 238.738281 110.019531 C 238.507812 110.019531 238.300781 110.085938 238.148438 110.300781 C 237.96875 110.558594 237.984375 110.910156 238.183594 111.152344 C 238.667969 111.71875 239.65625 111.148438 239.371094 110.480469 C 239.617188 110.070312 239.9375 109.699219 240.285156 109.382812 C 240.433594 109.25 240.285156 109 240.097656 109.089844 " fill-opacity="1" fill-rule="nonzero"/><path fill="#f3ba20" d="M 244.757812 108.539062 C 243.871094 108.578125 242.996094 108.972656 242.167969 109.242188 C 241.277344 109.53125 242.019531 111.046875 242.910156 110.402344 C 243.570312 109.925781 244.167969 109.464844 244.890625 109.089844 C 245.144531 108.960938 245.058594 108.523438 244.757812 108.539062 " fill-opacity="1" fill-rule="nonzero"/><path fill="#f3ba20" d="M 259.65625 115.691406 C 259.671875 114.652344 259.859375 113.519531 259.59375 112.503906 C 259.519531 112.234375 259.109375 112.199219 259.03125 112.488281 C 258.757812 113.507812 258.941406 114.640625 258.960938 115.6875 C 258.96875 116.132812 259.644531 116.136719 259.65625 115.691406 " fill-opacity="1" fill-rule="nonzero"/><path fill="#f3ba20" d="M 261.980469 114.691406 C 261.71875 114.824219 261.488281 115.039062 261.339844 115.289062 C 261.152344 115.601562 261.179688 115.902344 261.109375 116.246094 C 261.003906 116.78125 261.65625 117.152344 262.101562 116.941406 C 262.558594 116.726562 262.640625 115.953125 262.175781 115.714844 C 262.234375 115.601562 262.363281 115.496094 262.464844 115.4375 C 262.964844 115.136719 262.480469 114.441406 261.980469 114.691406 " fill-opacity="1" fill-rule="nonzero"/><path fill="#f3ba20" d="M 266.59375 116.628906 C 266.074219 116.546875 265.59375 116.515625 265.125 116.800781 C 264.640625 117.09375 264.5 117.667969 264.496094 118.199219 C 264.496094 118.753906 265.335938 118.710938 265.351562 118.164062 C 265.359375 117.890625 265.410156 117.65625 265.65625 117.507812 C 265.9375 117.347656 266.347656 117.285156 266.664062 117.234375 C 267.035156 117.171875 266.90625 116.675781 266.59375 116.628906 " fill-opacity="1" fill-rule="nonzero"/><path fill="#f3ba20" d="M 270.234375 118.871094 C 269.679688 118.957031 269.21875 119.144531 268.71875 119.390625 C 268.089844 119.691406 268.523438 120.566406 269.148438 120.246094 C 269.605469 120.007812 270.066406 119.785156 270.519531 119.53125 C 270.902344 119.316406 270.613281 118.816406 270.234375 118.871094 " fill-opacity="1" fill-rule="nonzero"/><path fill="#f3ba20" d="M 226.1875 113.054688 C 225.949219 112.589844 225.730469 112.171875 225.390625 111.773438 C 225.253906 111.605469 224.921875 111.707031 224.9375 111.9375 C 224.972656 112.472656 225.113281 112.90625 225.351562 113.386719 C 225.625 113.945312 226.117188 114.3125 226.503906 114.777344 C 226.644531 114.945312 226.957031 114.753906 226.832031 114.566406 C 226.53125 114.097656 226.433594 113.546875 226.1875 113.054688 " fill-opacity="1" fill-rule="nonzero"/><path fill="#f3ba20" d="M 225.054688 114.945312 C 224.941406 114.601562 224.753906 114.324219 224.5625 114.019531 C 224.335938 113.664062 223.777344 113.796875 223.691406 114.195312 C 223.628906 114.464844 223.714844 114.730469 223.671875 115 C 223.617188 115.371094 223.9375 115.722656 224.296875 115.757812 C 224.703125 115.796875 225.195312 115.386719 225.054688 114.945312 " fill-opacity="1" fill-rule="nonzero"/><path fill="#f3ba20" d="M 223.78125 125.808594 C 223.578125 126.226562 223.367188 126.636719 223.1875 127.0625 C 223.125 127.214844 223.359375 127.351562 223.445312 127.207031 C 223.691406 126.792969 223.902344 126.359375 224.121094 125.933594 C 224.226562 125.726562 223.882812 125.601562 223.78125 125.808594 " fill-opacity="1" fill-rule="nonzero"/><path fill="#f3ba20" d="M 225.097656 124.203125 C 225.046875 125.058594 224.964844 125.957031 225.25 126.773438 C 225.304688 126.917969 225.519531 126.890625 225.566406 126.761719 C 225.855469 125.953125 225.765625 125.0625 225.714844 124.214844 C 225.6875 123.824219 225.125 123.800781 225.097656 124.203125 " fill-opacity="1" fill-rule="nonzero"/><path fill="#f3ba20" d="M 212.738281 147.152344 C 212.472656 146.539062 212.4375 145.863281 212.382812 145.203125 C 212.351562 144.84375 211.839844 144.808594 211.8125 145.1875 C 211.742188 145.988281 211.785156 146.804688 212.320312 147.445312 C 212.519531 147.679688 212.851562 147.40625 212.738281 147.152344 " fill-opacity="1" fill-rule="nonzero"/><path fill="#f3ba20" d="M 212.699219 151.390625 C 212.484375 150.621094 212.304688 149.960938 212.539062 149.179688 C 212.910156 147.9375 210.894531 148.070312 211.203125 149.050781 C 211.46875 149.90625 211.84375 150.824219 212.367188 151.550781 C 212.476562 151.707031 212.753906 151.574219 212.699219 151.390625 " fill-opacity="1" fill-rule="nonzero"/><path fill="#f3ba20" d="M 210.21875 160.886719 C 210.132812 160.644531 209.714844 160.789062 209.796875 161.03125 C 210.035156 161.734375 210.46875 162.523438 211.21875 162.761719 C 211.332031 162.792969 211.4375 162.671875 211.359375 162.574219 C 210.925781 162.019531 210.460938 161.5625 210.21875 160.886719 " fill-opacity="1" fill-rule="nonzero"/><path fill="#f3ba20" d="M 215.609375 177.648438 C 215.390625 177.457031 215.09375 177.65625 215.199219 177.929688 C 215.507812 178.730469 216.238281 179.09375 216.945312 179.492188 C 217.246094 179.660156 217.496094 179.257812 217.230469 179.050781 C 216.664062 178.613281 216.152344 178.109375 215.609375 177.648438 " fill-opacity="1" fill-rule="nonzero"/><path fill="#f3ba20" d="M 216.6875 181.808594 C 216.476562 181.808594 216.445312 182.136719 216.65625 182.136719 C 216.867188 182.136719 216.898438 181.808594 216.6875 181.808594 " fill-opacity="1" fill-rule="nonzero"/><path fill="#f3ba20" d="M 201.1875 145.78125 C 200.84375 145.375 200.203125 145.511719 200.003906 145.992188 C 199.671875 146.789062 199.488281 147.480469 199.628906 148.347656 C 199.667969 148.582031 199.980469 148.53125 200.023438 148.324219 C 200.136719 147.738281 200.375 147.125 200.953125 146.863281 C 201.363281 146.679688 201.476562 146.125 201.1875 145.78125 " fill-opacity="1" fill-rule="nonzero"/><path fill="#f3ba20" d="M 202.804688 145.957031 C 202.242188 145.902344 201.925781 146.460938 202.105469 146.945312 C 202.144531 147.042969 201.976562 147.410156 201.917969 147.589844 C 201.800781 147.972656 202.367188 148.292969 202.621094 147.96875 C 202.902344 147.609375 203.191406 147.308594 203.386719 146.890625 C 203.582031 146.480469 203.226562 145.996094 202.804688 145.957031 " fill-opacity="1" fill-rule="nonzero"/><path fill="#f3ba20" d="M 205.621094 147.660156 C 205.613281 147.671875 205.824219 147.441406 205.738281 147.484375 C 206.195312 147.246094 206.28125 146.597656 205.84375 146.285156 C 205.351562 145.941406 204.640625 146.378906 204.753906 146.976562 C 204.734375 146.875 204.75 147.140625 204.75 147.132812 C 204.742188 147.316406 204.742188 147.496094 204.734375 147.679688 C 204.71875 147.972656 204.761719 148.269531 204.855469 148.550781 C 204.902344 148.703125 205.121094 148.757812 205.191406 148.582031 C 205.265625 148.371094 205.355469 148.175781 205.445312 147.972656 C 205.492188 147.863281 205.550781 147.757812 205.621094 147.660156 " fill-opacity="1" fill-rule="nonzero"/><path fill="#f3ba20" d="M 208.027344 129.410156 C 208.511719 129.179688 208.542969 128.523438 208.128906 128.210938 C 207.558594 127.777344 207.53125 127.167969 207.519531 126.507812 C 207.515625 126.265625 207.214844 126.210938 207.117188 126.425781 C 206.753906 127.1875 206.914062 128.097656 207.042969 128.898438 C 207.113281 129.347656 207.621094 129.601562 208.027344 129.410156 " fill-opacity="1" fill-rule="nonzero"/><path fill="#f3ba20" d="M 205.484375 130.585938 C 205.683594 130.785156 206.011719 130.496094 205.8125 130.296875 C 205.742188 130.230469 205.675781 130.160156 205.605469 130.089844 C 205.40625 129.890625 205.074219 130.179688 205.277344 130.378906 C 205.34375 130.449219 205.414062 130.515625 205.484375 130.585938 " fill-opacity="1" fill-rule="nonzero"/><path fill="#f3ba20" d="M 201.847656 132.710938 C 202.167969 132.261719 201.855469 131.699219 201.347656 131.617188 L 201.234375 131.609375 C 201.203125 131.535156 201.246094 131.441406 201.269531 131.371094 C 201.429688 130.914062 200.714844 130.667969 200.5 131.074219 C 200.207031 131.621094 200.390625 132.089844 200.648438 132.609375 C 200.882812 133.074219 201.542969 133.148438 201.847656 132.710938 " fill-opacity="1" fill-rule="nonzero"/><path fill="#f3ba20" d="M 198.4375 134.53125 C 198.253906 133.78125 198.261719 133.027344 198.167969 132.269531 C 198.136719 132.007812 197.761719 132.0625 197.734375 132.296875 C 197.636719 133.089844 197.703125 133.886719 197.882812 134.664062 C 197.964844 135.019531 198.523438 134.886719 198.4375 134.53125 " fill-opacity="1" fill-rule="nonzero"/><path fill="#f3ba20" d="M 276.558594 135.691406 C 276.480469 135.640625 276.488281 135.34375 276.554688 135.191406 C 276.667969 134.933594 276.914062 134.726562 277.132812 134.554688 C 277.300781 134.425781 277.152344 134.109375 276.945312 134.175781 C 276.570312 134.292969 276.253906 134.460938 276.015625 134.773438 C 275.726562 135.148438 275.714844 135.613281 275.503906 136.015625 C 275.25 136.5 275.804688 137.027344 276.277344 136.945312 C 276.859375 136.84375 277.070312 136.027344 276.558594 135.691406 " fill-opacity="1" fill-rule="nonzero"/><path fill="#f3ba20" d="M 278.628906 137.0625 C 278.34375 137.042969 278.046875 137.058594 277.777344 137.171875 C 277.636719 137.234375 277.535156 137.316406 277.429688 137.421875 C 277.371094 137.476562 277.335938 137.550781 277.300781 137.617188 L 277.257812 137.75 L 277.25 137.730469 C 276.855469 138.210938 277.371094 138.914062 277.9375 138.816406 C 278.242188 138.761719 278.480469 138.507812 278.511719 138.199219 C 278.519531 138.125 278.511719 138.050781 278.496094 137.972656 C 278.550781 137.960938 278.613281 137.953125 278.671875 137.949219 C 279.253906 137.890625 279.195312 137.097656 278.628906 137.0625 " fill-opacity="1" fill-rule="nonzero"/><path fill="#f3ba20" d="M 274.472656 177.058594 C 273.875 176.691406 273.195312 176.527344 272.507812 176.410156 C 272.105469 176.34375 271.820312 176.898438 272.226562 177.105469 C 272.886719 177.445312 273.546875 177.71875 274.289062 177.789062 C 274.703125 177.832031 274.773438 177.246094 274.472656 177.058594 " fill-opacity="1" fill-rule="nonzero"/><path fill="#f3ba20" d="M 271.738281 179.714844 C 271.804688 180.304688 272.738281 180.257812 272.667969 179.660156 C 272.652344 179.53125 272.632812 179.421875 272.582031 179.304688 C 272.542969 179.21875 272.472656 179.128906 272.460938 179.035156 C 272.394531 178.441406 271.460938 178.492188 271.53125 179.089844 C 271.542969 179.214844 271.570312 179.328125 271.621094 179.445312 C 271.65625 179.53125 271.726562 179.617188 271.738281 179.714844 " fill-opacity="1" fill-rule="nonzero"/><path fill="#f3ba20" d="M 272.765625 182.984375 C 272.371094 182.734375 271.972656 182.472656 271.96875 181.964844 C 271.964844 181.460938 271.164062 181.480469 271.191406 181.980469 C 271.234375 182.800781 271.796875 183.398438 272.609375 183.492188 C 272.890625 183.523438 272.984375 183.128906 272.765625 182.984375 " fill-opacity="1" fill-rule="nonzero"/><path fill="#f3ba20" d="M 270.609375 185.949219 C 270.394531 185.324219 269.414062 185.679688 269.640625 186.304688 C 269.929688 187.109375 270.433594 187.839844 271.28125 188.109375 C 271.628906 188.222656 271.804688 187.796875 271.609375 187.554688 C 271.21875 187.0625 270.8125 186.554688 270.609375 185.949219 " fill-opacity="1" fill-rule="nonzero"/><path fill="#f3ba20" d="M 274.941406 166.882812 C 274.816406 166.59375 274.359375 166.777344 274.433594 167.074219 C 274.613281 167.789062 274.945312 168.308594 275.601562 168.679688 C 275.890625 168.839844 276.125 168.460938 275.875 168.253906 C 275.429688 167.886719 275.164062 167.40625 274.941406 166.882812 " fill-opacity="1" fill-rule="nonzero"/><path fill="#f3ba20" d="M 261.039062 195.582031 C 260.683594 195.898438 260.503906 196.777344 260.890625 197.136719 C 261.003906 197.242188 261.164062 197.277344 261.308594 197.230469 C 261.398438 197.203125 261.621094 197.050781 261.59375 196.925781 C 261.574219 196.851562 261.6875 196.535156 261.699219 196.429688 C 261.714844 196.316406 261.742188 196.203125 261.804688 196.105469 C 261.914062 195.929688 261.847656 195.675781 261.699219 195.546875 C 261.492188 195.359375 261.230469 195.414062 261.039062 195.582031 " fill-opacity="1" fill-rule="nonzero"/><path fill="#f3ba20" d="M 263.160156 193.933594 C 262.953125 194.453125 262.984375 194.96875 263.132812 195.496094 C 263.160156 195.609375 263.34375 195.664062 263.382812 195.523438 C 263.503906 195.089844 263.523438 194.589844 263.746094 194.1875 C 263.96875 193.78125 263.328125 193.492188 263.160156 193.933594 " fill-opacity="1" fill-rule="nonzero"/><path fill="#f3ba20" d="M 263.449219 201.105469 C 263.457031 201.917969 263.644531 202.664062 263.777344 203.453125 C 263.847656 203.84375 264.375 203.710938 264.417969 203.378906 C 264.515625 202.589844 264.339844 201.855469 264.320312 201.066406 C 264.3125 200.503906 263.441406 200.542969 263.449219 201.105469 " fill-opacity="1" fill-rule="nonzero"/><path fill="#f3ba20" d="M 260.332031 204.882812 C 259.921875 204.589844 259.265625 204.851562 259.238281 205.382812 C 259.226562 205.59375 259.160156 205.734375 259.074219 205.925781 C 258.925781 206.246094 258.835938 206.546875 258.816406 206.898438 C 258.800781 207.195312 259.183594 207.277344 259.339844 207.058594 C 259.496094 206.847656 259.667969 206.644531 259.84375 206.449219 C 260.011719 206.261719 260.1875 206.136719 260.382812 205.980469 C 260.738281 205.703125 260.691406 205.132812 260.332031 204.882812 " fill-opacity="1" fill-rule="nonzero"/><path fill="#f3ba20" d="M 252.5 207.464844 C 251.980469 207.820312 251.78125 208.292969 251.5625 208.878906 C 251.339844 209.464844 251.070312 210.171875 251.386719 210.765625 C 251.464844 210.917969 251.660156 210.9375 251.785156 210.835938 C 252.277344 210.441406 252.40625 209.753906 252.59375 209.179688 C 252.710938 208.820312 253.015625 208.257812 252.9375 207.835938 C 252.992188 207.589844 252.769531 207.28125 252.5 207.464844 " fill-opacity="1" fill-rule="nonzero"/><path fill="#f3ba20" d="M 254.910156 206.789062 L 254.859375 206.84375 C 254.320312 207.21875 253.941406 207.757812 254.179688 208.457031 C 254.234375 208.605469 254.359375 208.71875 254.527344 208.71875 C 254.589844 208.714844 254.648438 208.699219 254.707031 208.667969 L 254.867188 208.453125 C 254.902344 208.449219 255.066406 208.09375 255.117188 208.035156 L 255.160156 207.996094 C 255.550781 208.113281 256.011719 207.800781 256.050781 207.386719 C 256.105469 206.832031 255.34375 206.320312 254.910156 206.789062 " fill-opacity="1" fill-rule="nonzero"/><path fill="#f3ba20" d="M 207.242188 212.449219 C 207.21875 212.664062 206.6875 212.917969 206.523438 213.015625 C 206.203125 213.203125 205.855469 213.371094 205.515625 213.511719 C 205.191406 213.644531 205.421875 214.074219 205.714844 214.039062 C 206.121094 213.988281 206.480469 213.90625 206.859375 213.753906 C 207.242188 213.597656 207.652344 213.234375 208.054688 213.199219 C 208.59375 213.148438 208.789062 212.445312 208.46875 212.066406 C 208.078125 211.601562 207.304688 211.851562 207.242188 212.449219 " fill-opacity="1" fill-rule="nonzero"/><path fill="#f3ba20" d="M 211.902344 212.527344 C 211.652344 212.527344 211.617188 212.917969 211.871094 212.917969 C 212.125 212.917969 212.15625 212.527344 211.902344 212.527344 " fill-opacity="1" fill-rule="nonzero"/><path fill="#f3ba20" d="M 215.871094 212.730469 C 215.871094 213.449219 215.855469 214.160156 215.957031 214.875 C 216.011719 215.25 216.515625 215.117188 216.5625 214.808594 C 216.664062 214.113281 216.640625 213.417969 216.640625 212.714844 C 216.640625 212.222656 215.871094 212.234375 215.871094 212.730469 " fill-opacity="1" fill-rule="nonzero"/><path fill="#f3ba20" d="M 181.8125 161.347656 C 181.703125 161.296875 181.566406 161.125 181.46875 161.039062 C 181.324219 160.917969 181.214844 160.765625 181.09375 160.621094 C 180.964844 160.464844 180.882812 160.28125 180.765625 160.121094 C 180.652344 159.980469 180.53125 159.890625 180.386719 159.785156 C 180.277344 159.707031 180.140625 159.765625 180.089844 159.878906 C 179.851562 160.429688 180.171875 160.953125 180.550781 161.332031 C 180.699219 161.488281 180.894531 161.609375 181.078125 161.71875 C 181.261719 161.824219 181.453125 161.816406 181.648438 161.871094 C 181.992188 161.96875 182.128906 161.488281 181.8125 161.347656 " fill-opacity="1" fill-rule="nonzero"/><path fill="#f3ba20" d="M 182.886719 159.5 C 182.703125 159.316406 182.679688 159.035156 182.625 158.792969 C 182.574219 158.566406 182.5 158.359375 182.386719 158.15625 C 182.292969 157.984375 182.015625 157.953125 181.914062 158.136719 C 181.789062 158.367188 181.703125 158.601562 181.671875 158.863281 C 181.632812 159.199219 181.710938 159.542969 181.660156 159.878906 C 181.59375 160.332031 182.042969 160.707031 182.472656 160.632812 C 182.960938 160.546875 183.269531 159.882812 182.886719 159.5 " fill-opacity="1" fill-rule="nonzero"/><path fill="#f3ba20" d="M 185.398438 158.699219 C 185.222656 158.429688 185.074219 158.160156 184.964844 157.859375 C 184.851562 157.539062 184.835938 157.203125 184.707031 156.886719 C 184.597656 156.613281 184.214844 156.722656 184.132812 156.949219 C 183.886719 157.652344 184.34375 158.53125 184.71875 159.117188 C 184.992188 159.554688 185.683594 159.128906 185.398438 158.699219 " fill-opacity="1" fill-rule="nonzero"/><path fill="#f3ba20" d="M 165.085938 168.988281 C 164.675781 168.363281 164.539062 167.710938 164.394531 166.988281 C 164.363281 166.832031 164.148438 166.84375 164.125 167 C 163.992188 167.789062 164.257812 168.523438 164.683594 169.191406 C 164.839844 169.433594 165.242188 169.230469 165.085938 168.988281 " fill-opacity="1" fill-rule="nonzero"/><path fill="#f3ba20" d="M 167.796875 164.589844 C 167.882812 164.34375 167.558594 164.210938 167.40625 164.394531 C 166.601562 165.382812 166.421875 166.679688 166.71875 167.894531 C 166.792969 168.21875 167.242188 168.105469 167.210938 167.789062 C 167.089844 166.679688 167.421875 165.617188 167.796875 164.589844 " fill-opacity="1" fill-rule="nonzero"/><path fill="#f3ba20" d="M 170.046875 165.859375 C 169.902344 165.234375 170.082031 164.710938 170.429688 164.199219 C 170.507812 164.085938 170.414062 163.898438 170.261719 163.933594 C 169.242188 164.199219 169.085938 165.1875 169.289062 166.085938 C 169.402344 166.578125 170.160156 166.355469 170.046875 165.859375 " fill-opacity="1" fill-rule="nonzero"/><path fill="#f3ba20" d="M 139.277344 197.296875 C 139.402344 197.667969 139.535156 198.085938 139.777344 198.402344 C 140.023438 198.730469 140.558594 198.601562 140.554688 198.164062 C 140.550781 197.507812 140.265625 196.738281 139.960938 196.164062 C 139.738281 195.730469 139.003906 196 139.058594 196.464844 C 139.078125 196.570312 139.101562 196.722656 139.109375 196.753906 C 139.15625 196.941406 139.21875 197.117188 139.277344 197.296875 " fill-opacity="1" fill-rule="nonzero"/><path fill="#f3ba20" d="M 139.058594 196.476562 C 139.058594 196.472656 139.058594 196.46875 139.058594 196.464844 C 139.042969 196.359375 139.03125 196.300781 139.058594 196.476562 " fill-opacity="1" fill-rule="nonzero"/><path fill="#f3ba20" d="M 140.792969 202.304688 C 140.335938 202.15625 139.980469 201.804688 139.601562 201.523438 C 139.265625 201.273438 138.953125 201.128906 138.554688 201.019531 C 138.214844 200.921875 138.074219 201.34375 138.316406 201.539062 C 138.90625 202.027344 139.652344 202.507812 139.921875 203.253906 C 140.070312 203.683594 140.679688 203.757812 140.996094 203.488281 C 141.386719 203.164062 141.296875 202.472656 140.792969 202.304688 " fill-opacity="1" fill-rule="nonzero"/><path fill="#f3ba20" d="M 138.664062 204.882812 C 138.046875 204.535156 137.34375 203.828125 136.597656 203.863281 C 136.390625 203.875 136.195312 204.074219 136.269531 204.292969 C 136.390625 204.648438 136.648438 204.933594 136.921875 205.1875 C 137.230469 205.476562 137.53125 205.757812 137.859375 206.019531 C 138.570312 206.589844 139.441406 205.320312 138.664062 204.882812 " fill-opacity="1" fill-rule="nonzero"/><path fill="#f3ba20" d="M 135.667969 208.421875 C 136.273438 208.589844 136.472656 207.617188 135.863281 207.464844 C 135.554688 207.390625 135.25 207.28125 134.988281 207.097656 C 134.636719 206.851562 134.394531 206.492188 134.054688 206.226562 C 133.871094 206.085938 133.578125 206.265625 133.585938 206.484375 C 133.628906 207.5625 134.738281 208.167969 135.667969 208.421875 " fill-opacity="1" fill-rule="nonzero"/><path fill="#f3ba20" d="M 144.410156 192.632812 C 144.816406 192.5625 145.171875 192.039062 144.921875 191.648438 C 144.601562 191.140625 144.652344 190.585938 144.558594 190.011719 C 144.527344 189.8125 144.246094 189.734375 144.105469 189.875 C 143.550781 190.441406 143.613281 191.140625 143.601562 191.878906 C 143.589844 192.324219 143.941406 192.710938 144.410156 192.632812 " fill-opacity="1" fill-rule="nonzero"/><path fill="#f3ba20" d="M 134.820312 231.882812 C 133.996094 231.585938 133.023438 231.546875 132.300781 232.097656 C 132.140625 232.222656 132.265625 232.429688 132.421875 232.460938 C 133.152344 232.613281 133.898438 232.445312 134.628906 232.625 C 135.117188 232.75 135.277344 232.046875 134.820312 231.882812 " fill-opacity="1" fill-rule="nonzero"/><path fill="#f3ba20" d="M 135.9375 234.839844 C 135.699219 235.050781 135.496094 235.304688 135.414062 235.617188 C 135.339844 235.90625 135.371094 236.128906 135.460938 236.40625 C 135.546875 236.652344 135.890625 236.742188 136.039062 236.492188 C 136.121094 236.347656 136.34375 236.101562 136.507812 236.058594 C 136.9375 235.933594 137.226562 235.515625 137.019531 235.074219 C 136.832031 234.675781 136.277344 234.539062 135.9375 234.839844 " fill-opacity="1" fill-rule="nonzero"/><path fill="#f3ba20" d="M 138.574219 237.355469 C 138.382812 238.148438 138.148438 238.917969 138.03125 239.722656 C 137.992188 239.988281 138.390625 240.042969 138.480469 239.808594 C 138.753906 239.0625 138.988281 238.308594 139.195312 237.539062 C 139.304688 237.136719 138.671875 236.953125 138.574219 237.355469 " fill-opacity="1" fill-rule="nonzero"/><path fill="#f3ba20" d="M 157.800781 250.214844 C 157.769531 250.101562 157.664062 249.984375 157.542969 249.960938 C 157.453125 249.945312 157.355469 249.910156 157.277344 249.980469 C 157.0625 250.171875 156.960938 250.476562 156.777344 250.703125 C 156.566406 250.960938 156.261719 251.207031 156.289062 251.566406 C 156.300781 251.695312 156.355469 251.792969 156.480469 251.839844 C 157.253906 252.113281 157.964844 250.859375 157.800781 250.214844 " fill-opacity="1" fill-rule="nonzero"/><path fill="#f3ba20" d="M 161.519531 251.207031 C 160.992188 251.519531 160.769531 252.222656 161.078125 252.765625 C 161.1875 252.960938 161.492188 252.980469 161.609375 252.777344 C 161.765625 252.507812 161.714844 252.109375 162.003906 251.949219 C 162.503906 251.675781 162.015625 250.914062 161.519531 251.207031 " fill-opacity="1" fill-rule="nonzero"/><path fill="#f3ba20" d="M 164.535156 252.546875 C 163.925781 252.488281 163.539062 253.222656 163.933594 253.691406 L 163.972656 253.722656 C 164.128906 254.042969 164.25 254.371094 164.515625 254.628906 C 164.628906 254.742188 164.902344 254.707031 164.886719 254.5 C 164.875 254.25 164.886719 254.003906 164.945312 253.761719 C 164.972656 253.71875 165.003906 253.679688 165.035156 253.640625 C 165.371094 253.222656 165.035156 252.597656 164.535156 252.546875 " fill-opacity="1" fill-rule="nonzero"/><path fill="#f3ba20" d="M 169.113281 254.347656 C 169.175781 253.816406 168.59375 253.425781 168.121094 253.648438 C 167.660156 253.867188 167.574219 254.558594 168.019531 254.847656 C 168.050781 254.867188 168.085938 254.882812 168.121094 254.898438 C 168.136719 254.910156 168.152344 254.921875 168.167969 254.929688 C 168.316406 255.164062 168.476562 255.382812 168.6875 255.554688 C 168.851562 255.6875 169.117188 255.523438 169.113281 255.328125 C 169.113281 255.085938 169.101562 254.835938 169.070312 254.597656 C 169.085938 254.519531 169.101562 254.4375 169.113281 254.347656 " fill-opacity="1" fill-rule="nonzero"/><path fill="#f3ba20" d="M 235.75 241.425781 C 235.445312 240.984375 234.730469 241.039062 234.527344 241.570312 C 234.332031 242.101562 234.898438 242.703125 235.4375 242.457031 C 236.363281 242.804688 237.5625 243.40625 238.429688 242.886719 C 238.546875 242.816406 238.632812 242.640625 238.542969 242.515625 C 237.960938 241.691406 236.71875 241.652344 235.75 241.425781 " fill-opacity="1" fill-rule="nonzero"/><path fill="#f3ba20" d="M 236.800781 237.347656 C 236.585938 237.46875 236.386719 237.601562 236.191406 237.746094 C 235.886719 237.976562 235.871094 238.449219 236.105469 238.726562 C 236.402344 239.082031 236.9375 239.035156 237.207031 238.679688 C 237.417969 238.402344 237.625 238.148438 237.804688 237.847656 C 237.960938 237.582031 237.746094 237.285156 237.460938 237.273438 C 237.28125 237.265625 236.984375 237.242188 236.800781 237.347656 " fill-opacity="1" fill-rule="nonzero"/><path fill="#f3ba20" d="M 236.4375 248.25 C 235.917969 247.917969 235.515625 248.757812 236.007812 249.089844 C 236.367188 249.328125 236.738281 249.546875 237.109375 249.765625 C 237.5 249.996094 237.828125 250.183594 238.292969 250.191406 C 238.507812 250.191406 238.632812 249.976562 238.542969 249.785156 C 238.179688 249.003906 237.132812 248.691406 236.4375 248.25 " fill-opacity="1" fill-rule="nonzero"/><path fill="#f3ba20" d="M 237.160156 254.375 C 237.199219 253.59375 236.070312 253.5625 236.105469 254.328125 C 236.128906 254.773438 236.199219 255.15625 236.527344 255.476562 C 236.917969 255.863281 237.601562 255.265625 237.25 254.835938 C 237.132812 254.695312 237.152344 254.574219 237.160156 254.375 " fill-opacity="1" fill-rule="nonzero"/><path fill="#f3ba20" d="M 233.335938 253.898438 C 233.382812 254.125 233.539062 254.289062 233.601562 254.503906 C 233.636719 254.632812 233.847656 254.65625 233.851562 254.5 C 233.863281 254.273438 233.710938 254.097656 233.707031 253.878906 C 233.695312 253.601562 233.285156 253.640625 233.335938 253.898438 " fill-opacity="1" fill-rule="nonzero"/><path fill="#f3ba20" d="M 144.574219 276.027344 C 143.832031 276 143.152344 275.484375 142.421875 275.539062 C 142.175781 275.554688 141.957031 275.828125 142.117188 276.066406 C 142.601562 276.785156 143.824219 276.980469 144.636719 276.992188 C 145.265625 277 145.183594 276.054688 144.574219 276.027344 " fill-opacity="1" fill-rule="nonzero"/><path fill="#f3ba20" d="M 145.660156 280.003906 C 146.109375 279.9375 146.359375 279.421875 146.167969 279.019531 C 145.984375 278.625 145.425781 278.480469 145.089844 278.785156 C 144.867188 278.988281 144.558594 279.066406 144.277344 279.15625 C 144.148438 279.199219 144.019531 279.242188 143.890625 279.292969 C 143.671875 279.371094 143.539062 279.605469 143.402344 279.777344 C 143.25 279.96875 143.449219 280.246094 143.664062 280.25 C 143.8125 280.253906 143.964844 280.304688 144.113281 280.292969 C 144.292969 280.277344 144.476562 280.207031 144.660156 280.175781 C 144.992188 280.117188 145.324219 280.050781 145.660156 280.003906 " fill-opacity="1" fill-rule="nonzero"/><path fill="#f3ba20" d="M 144.625 287.015625 C 144.480469 287.289062 144.550781 287.523438 144.625 287.804688 C 144.695312 288.085938 145.128906 288.113281 145.207031 287.820312 C 145.222656 287.75 145.242188 287.683594 145.265625 287.617188 C 145.273438 287.605469 145.289062 287.582031 145.320312 287.535156 C 145.324219 287.527344 145.324219 287.519531 145.328125 287.511719 C 145.785156 287.382812 145.726562 286.625 145.210938 286.679688 C 144.976562 286.707031 144.742188 286.792969 144.625 287.015625 " fill-opacity="1" fill-rule="nonzero"/><path fill="#f3ba20" d="M 145.535156 293.980469 C 144.929688 294.613281 144.433594 295.210938 144.433594 296.132812 C 144.433594 296.300781 144.632812 296.382812 144.742188 296.246094 C 145.199219 295.65625 145.628906 295.089844 146.167969 294.570312 C 146.570312 294.183594 145.921875 293.578125 145.535156 293.980469 " fill-opacity="1" fill-rule="nonzero"/><path fill="#f3ba20" d="M 148.941406 318.035156 C 148.789062 318.550781 148.585938 318.992188 148.535156 319.546875 C 148.484375 320.097656 148.496094 320.640625 148.628906 321.179688 C 148.714844 321.519531 149.230469 321.515625 149.316406 321.175781 C 149.410156 320.804688 149.4375 320.441406 149.488281 320.066406 C 149.523438 319.785156 149.589844 319.035156 149.894531 318.90625 C 150.308594 318.726562 150.410156 318.160156 150.128906 317.824219 C 149.808594 317.449219 149.09375 317.523438 148.941406 318.035156 " fill-opacity="1" fill-rule="nonzero"/><path fill="#f3ba20" d="M 150.78125 322.136719 C 150.859375 322.695312 150.71875 323.308594 150.699219 323.875 C 150.675781 324.441406 150.761719 324.953125 150.9375 325.492188 C 151 325.6875 151.296875 325.746094 151.367188 325.515625 C 151.515625 325.0625 151.609375 324.628906 151.648438 324.152344 C 151.695312 323.601562 151.710938 322.890625 152.039062 322.417969 C 152.769531 321.363281 150.601562 320.824219 150.78125 322.136719 " fill-opacity="1" fill-rule="nonzero"/><path fill="#f3ba20" d="M 152.308594 328.257812 C 152.320312 328.804688 152.378906 329.328125 152.453125 329.867188 C 152.5 330.191406 152.945312 330.097656 152.984375 329.820312 C 153.058594 329.289062 153.113281 328.773438 153.121094 328.238281 C 153.128906 327.71875 152.304688 327.738281 152.308594 328.257812 " fill-opacity="1" fill-rule="nonzero"/><path fill="#f3ba20" d="M 155.765625 331.921875 C 155.640625 332.527344 155.535156 333.125 155.667969 333.738281 C 155.804688 334.355469 156.15625 334.839844 156.546875 335.324219 C 156.777344 335.609375 157.199219 335.257812 157.046875 334.953125 C 156.625 334.125 156.40625 333.175781 157.03125 332.386719 C 157.679688 331.566406 156.015625 330.714844 155.765625 331.921875 " fill-opacity="1" fill-rule="nonzero"/><path fill="#f3ba20" d="M 178.996094 322.417969 C 178.089844 322.164062 177.105469 322.085938 176.390625 321.414062 C 176.011719 321.058594 175.464844 321.636719 175.839844 321.992188 C 176.671875 322.792969 177.847656 323.148438 178.972656 322.867188 C 179.1875 322.816406 179.234375 322.480469 178.996094 322.417969 " fill-opacity="1" fill-rule="nonzero"/><path fill="#f3ba20" d="M 177.710938 319.078125 C 177.933594 319.039062 178.1875 319.027344 178.375 318.894531 C 178.601562 318.734375 178.605469 318.4375 178.375 318.277344 C 178.300781 318.230469 178.226562 318.195312 178.144531 318.171875 C 178.019531 318.148438 177.894531 318.125 177.773438 318.105469 C 177.015625 317.96875 177.035156 319.203125 177.710938 319.078125 " fill-opacity="1" fill-rule="nonzero"/><path fill="#f3ba20" d="M 179.757812 314.183594 C 179.210938 314.363281 178.644531 314.566406 178.074219 314.632812 C 177.804688 314.667969 177.542969 314.757812 177.484375 315.0625 C 177.429688 315.34375 177.695312 315.753906 178.027344 315.667969 C 178.1875 315.625 178.398438 315.648438 178.566406 315.609375 C 178.75 315.5625 178.921875 315.507812 179.097656 315.445312 C 179.441406 315.308594 179.746094 315.058594 180.046875 314.851562 C 180.375 314.625 180.175781 314.042969 179.757812 314.183594 " fill-opacity="1" fill-rule="nonzero"/><path fill="#f3ba20" d="M 194.289062 295.902344 C 193.34375 295.605469 192.25 295.578125 191.277344 295.75 C 190.867188 295.820312 190.917969 296.484375 191.304688 296.550781 C 192.257812 296.722656 193.339844 296.691406 194.265625 296.398438 C 194.496094 296.328125 194.546875 295.984375 194.289062 295.902344 " fill-opacity="1" fill-rule="nonzero"/><path fill="#f3ba20" d="M 198.355469 293.96875 C 198.105469 293.917969 197.878906 293.855469 197.621094 293.84375 C 197.070312 293.820312 197.09375 294.738281 197.65625 294.710938 C 197.894531 294.699219 198.113281 294.632812 198.34375 294.589844 C 198.65625 294.53125 198.667969 294.027344 198.355469 293.96875 " fill-opacity="1" fill-rule="nonzero"/><path fill="#f3ba20" d="M 202.730469 292.597656 C 202.230469 292.511719 201.601562 292.441406 201.296875 292.949219 C 201.160156 293.179688 201.160156 293.527344 201.371094 293.714844 C 201.644531 293.949219 201.972656 293.820312 202.117188 293.5625 C 202.121094 293.5625 202.128906 293.558594 202.128906 293.558594 C 202.304688 293.546875 202.480469 293.503906 202.652344 293.472656 C 202.851562 293.4375 203.019531 293.339844 203.066406 293.128906 C 203.117188 292.902344 202.96875 292.636719 202.730469 292.597656 " fill-opacity="1" fill-rule="nonzero"/><path fill="#f3ba20" d="M 174.148438 278.246094 C 173.738281 277.757812 173.003906 278.0625 172.9375 278.625 C 172.6875 279.070312 172.574219 279.550781 172.765625 280.058594 C 172.855469 280.292969 173.160156 280.195312 173.238281 280.019531 C 173.351562 279.765625 173.488281 279.523438 173.730469 279.382812 C 174.234375 279.308594 174.492188 278.652344 174.148438 278.246094 Z M 172.929688 278.714844 C 172.929688 278.710938 172.933594 278.703125 172.933594 278.699219 C 172.933594 278.738281 172.925781 278.773438 172.933594 278.8125 L 172.929688 278.714844 " fill-opacity="1" fill-rule="nonzero"/><path fill="#f3ba20" d="M 179.367188 281.347656 C 179.570312 281.550781 179.855469 281.328125 179.761719 281.078125 C 179.542969 280.5 179.035156 279.390625 179.683594 278.914062 C 180.660156 278.191406 178.753906 276.9375 178.539062 278.3125 C 178.453125 278.886719 178.371094 279.355469 178.480469 279.929688 C 178.59375 280.484375 178.976562 280.960938 179.367188 281.347656 " fill-opacity="1" fill-rule="nonzero"/><path fill="#f3ba20" d="M 183.675781 279.933594 C 183.664062 279.4375 182.882812 279.453125 182.90625 279.945312 C 182.949219 280.964844 183.570312 281.792969 184.390625 282.351562 C 184.605469 282.5 184.9375 282.226562 184.78125 281.992188 C 184.328125 281.328125 183.695312 280.792969 183.675781 279.933594 " fill-opacity="1" fill-rule="nonzero"/><path fill="#f3ba20" d="M 169.601562 231.824219 C 169.875 231.386719 169.171875 231.003906 168.898438 231.4375 C 168.167969 232.617188 167.824219 234.363281 168.777344 235.511719 C 168.917969 235.683594 169.179688 235.53125 169.148438 235.328125 C 168.953125 234.089844 168.910156 232.929688 169.601562 231.824219 " fill-opacity="1" fill-rule="nonzero"/><path fill="#f3ba20" d="M 171.699219 233.148438 C 171.75 233.582031 171.863281 233.992188 172.164062 234.320312 C 172.34375 234.519531 172.621094 234.367188 172.65625 234.136719 C 172.703125 233.789062 172.636719 233.445312 172.613281 233.097656 C 172.59375 232.789062 172.574219 232.089844 172.820312 231.851562 C 173.183594 231.496094 173.132812 230.859375 172.613281 230.667969 C 172.125 230.484375 171.585938 230.917969 171.683594 231.4375 C 171.789062 231.984375 171.628906 232.585938 171.699219 233.148438 " fill-opacity="1" fill-rule="nonzero"/><path fill="#f3ba20" d="M 175.847656 231.628906 C 175.847656 231.316406 175.847656 231.007812 175.847656 230.695312 C 175.847656 230.234375 175.132812 230.238281 175.132812 230.695312 C 175.132812 231.011719 175.132812 231.320312 175.132812 231.632812 C 175.132812 232.089844 175.847656 232.089844 175.847656 231.628906 " fill-opacity="1" fill-rule="nonzero"/><path fill="#f3ba20" d="M 185.417969 172.976562 C 185.320312 172.65625 184.839844 172.761719 184.90625 173.097656 C 185.132812 174.253906 185.210938 175.535156 185.851562 176.597656 C 185.980469 176.8125 186.402344 176.773438 186.378906 176.476562 C 186.3125 175.75 186.121094 175.0625 185.914062 174.363281 C 185.777344 173.890625 185.546875 173.402344 185.417969 172.976562 " fill-opacity="1" fill-rule="nonzero"/><path fill="#f3ba20" d="M 187.792969 172.84375 C 187.210938 173.417969 187.03125 174.3125 187.390625 175.058594 C 187.5625 175.421875 188.070312 175.113281 187.925781 174.757812 C 187.746094 174.3125 187.882812 173.550781 188.191406 173.179688 C 188.382812 172.945312 188.003906 172.636719 187.792969 172.84375 " fill-opacity="1" fill-rule="nonzero"/><path fill="#f3ba20" d="M 191.828125 175.542969 C 192.019531 174.617188 191.957031 173.679688 191.949219 172.738281 C 191.945312 172.4375 191.480469 172.40625 191.480469 172.710938 C 191.46875 173.664062 191.402344 174.613281 191.597656 175.546875 C 191.625 175.679688 191.800781 175.671875 191.828125 175.542969 " fill-opacity="1" fill-rule="nonzero"/><path fill="#f3ba20" d="M 207.339844 197.574219 C 207.003906 198.863281 207.0625 200.617188 208.140625 201.554688 C 208.265625 201.664062 208.476562 201.519531 208.433594 201.363281 C 208.121094 200.152344 207.683594 199.019531 207.90625 197.746094 C 207.972656 197.378906 207.441406 197.195312 207.339844 197.574219 " fill-opacity="1" fill-rule="nonzero"/><path fill="#f3ba20" d="M 209.503906 197.960938 C 209.496094 198.71875 209.460938 199.453125 209.601562 200.195312 C 209.648438 200.441406 209.972656 200.382812 210.015625 200.167969 C 210.152344 199.4375 210.121094 198.71875 210.113281 197.976562 C 210.113281 197.582031 209.503906 197.570312 209.503906 197.960938 " fill-opacity="1" fill-rule="nonzero"/><path fill="#f3ba20" d="M 212.609375 198.890625 C 212.871094 199.46875 212.773438 200.0625 213.375 200.449219 C 213.6875 200.652344 213.992188 200.273438 213.847656 199.976562 C 213.695312 199.664062 213.757812 199.140625 213.890625 198.835938 C 214.074219 198.421875 213.738281 197.941406 213.308594 197.902344 C 212.773438 197.851562 212.394531 198.410156 212.609375 198.890625 " fill-opacity="1" fill-rule="nonzero"/><path fill="#f3ba20" d="M 142.902344 216.113281 C 143.085938 215.292969 143.007812 214.429688 143.277344 213.632812 C 143.367188 213.371094 142.980469 213.171875 142.839844 213.417969 C 142.378906 214.222656 142.359375 215.203125 142.554688 216.082031 C 142.589844 216.238281 142.863281 216.296875 142.902344 216.113281 " fill-opacity="1" fill-rule="nonzero"/><path fill="#f3ba20" d="M 144.910156 213.828125 C 144.804688 213.820312 144.699219 213.878906 144.703125 214.019531 C 144.6875 214.492188 144.652344 214.988281 144.742188 215.457031 C 144.785156 215.660156 145.054688 215.628906 145.089844 215.4375 C 145.179688 214.984375 145.144531 214.507812 145.128906 214.046875 C 145.132812 213.902344 145.019531 213.828125 144.910156 213.828125 " fill-opacity="1" fill-rule="nonzero"/><path fill="#f3ba20" d="M 145.921875 213.484375 C 145.542969 213.421875 145.195312 213.753906 145.160156 214.109375 C 145.117188 214.574219 145.523438 214.921875 145.972656 214.863281 C 146.121094 214.84375 146.164062 214.84375 146.332031 214.867188 C 146.492188 214.886719 146.648438 214.953125 146.773438 215.050781 C 147.027344 215.246094 147.074219 215.625 147.25 215.875 C 147.332031 215.988281 147.519531 215.960938 147.589844 215.855469 C 147.886719 215.402344 147.660156 214.824219 147.425781 214.398438 C 147.121094 213.847656 146.511719 213.585938 145.921875 213.484375 " fill-opacity="1" fill-rule="nonzero"/><path fill="#f3ba20" d="M 132.449219 222.960938 C 131.839844 222.953125 131.375 222.640625 131 222.179688 C 130.90625 222.0625 130.671875 222.152344 130.722656 222.308594 C 130.953125 223.0625 131.667969 223.449219 132.425781 223.472656 C 132.757812 223.484375 132.78125 222.964844 132.449219 222.960938 " fill-opacity="1" fill-rule="nonzero"/><path fill="#f3ba20" d="M 152.640625 230.644531 C 152.511719 230.21875 152.371094 229.300781 152.664062 228.914062 C 152.980469 228.492188 152.671875 227.871094 152.160156 227.820312 C 151.519531 227.757812 151.207031 228.484375 151.558594 228.960938 C 151.746094 229.214844 151.714844 229.703125 151.792969 230.007812 C 151.871094 230.296875 152.023438 230.558594 152.1875 230.804688 C 152.328125 231.015625 152.726562 230.929688 152.640625 230.644531 " fill-opacity="1" fill-rule="nonzero"/><path fill="#f3ba20" d="M 188.953125 246.332031 C 188.4375 246.90625 188.507812 247.820312 188.660156 248.515625 C 188.710938 248.746094 189.089844 248.792969 189.144531 248.539062 C 189.214844 248.230469 189.261719 247.925781 189.304688 247.613281 C 189.335938 247.378906 189.320312 247.039062 189.480469 246.847656 C 189.78125 246.492188 189.273438 245.976562 188.953125 246.332031 " fill-opacity="1" fill-rule="nonzero"/><path fill="#f3ba20" d="M 194.476562 247.226562 C 194.453125 246.835938 193.902344 246.886719 193.949219 247.277344 C 193.996094 247.71875 194.378906 248.074219 194.707031 248.34375 C 194.917969 248.511719 195.164062 248.191406 195.003906 247.996094 C 194.828125 247.78125 194.496094 247.527344 194.476562 247.226562 " fill-opacity="1" fill-rule="nonzero"/><path fill="#f3ba20" d="M 231.527344 207.257812 C 231.3125 207.296875 231.09375 207.464844 230.996094 207.679688 C 230.566406 208.09375 230.144531 208.574219 230.097656 209.183594 C 230.074219 209.464844 230.417969 209.5625 230.605469 209.410156 C 230.792969 209.257812 230.9375 209.089844 231.101562 208.914062 C 231.199219 208.804688 231.308594 208.707031 231.425781 208.617188 L 231.445312 208.605469 C 231.613281 208.648438 231.800781 208.640625 231.941406 208.574219 C 232.289062 208.414062 232.4375 207.988281 232.277344 207.644531 C 232.144531 207.367188 231.832031 207.203125 231.527344 207.257812 Z M 230.941406 207.882812 C 230.941406 207.886719 230.941406 207.890625 230.941406 207.890625 C 230.941406 207.890625 230.9375 207.886719 230.9375 207.886719 C 230.941406 207.882812 230.941406 207.882812 230.941406 207.882812 " fill-opacity="1" fill-rule="nonzero"/><path fill="#f3ba20" d="M 233.605469 209.054688 C 234.265625 208.691406 234.921875 208.308594 235.597656 207.96875 C 236.050781 207.742188 235.636719 207.070312 235.183594 207.296875 C 234.453125 207.660156 233.78125 208.039062 233.355469 208.765625 C 233.261719 208.925781 233.417969 209.160156 233.605469 209.054688 " fill-opacity="1" fill-rule="nonzero"/><path fill="#f3ba20" d="M 201.421875 183.699219 C 201.457031 184.046875 201.941406 183.933594 201.984375 183.640625 C 202.089844 182.898438 202.257812 182.117188 202.433594 181.375 C 202.441406 181.371094 202.449219 181.367188 202.457031 181.359375 C 202.976562 181.007812 202.632812 180.191406 202.074219 180.136719 C 201.515625 180.082031 201.015625 180.835938 201.476562 181.277344 C 201.476562 181.28125 201.480469 181.28125 201.484375 181.28125 C 201.46875 182.09375 201.328125 182.878906 201.421875 183.699219 " fill-opacity="1" fill-rule="nonzero"/><path fill="#f3ba20" d="M 205.8125 246.269531 C 205.773438 247.234375 205.445312 248.160156 205.53125 249.132812 C 205.554688 249.398438 205.945312 249.335938 205.976562 249.097656 C 206.105469 248.167969 206.308594 247.234375 206.316406 246.289062 C 206.320312 245.96875 205.824219 245.941406 205.8125 246.269531 " fill-opacity="1" fill-rule="nonzero"/><path fill="#f3ba20" d="M 213.179688 245.773438 C 213.28125 246.351562 212.902344 246.886719 212.578125 247.332031 C 212.34375 247.652344 212.828125 248.105469 213.140625 247.867188 C 213.863281 247.308594 214.355469 246.621094 214.558594 245.722656 C 214.769531 244.777344 212.984375 244.707031 213.179688 245.773438 " fill-opacity="1" fill-rule="nonzero"/><path fill="#f3ba20" d="M 190.222656 229.378906 C 189.714844 229.332031 189.269531 229.894531 189.523438 230.371094 C 189.542969 230.414062 189.570312 230.453125 189.589844 230.496094 C 189.621094 230.757812 189.574219 231.015625 189.558594 231.277344 C 189.539062 231.515625 189.609375 231.796875 189.683594 232.019531 C 189.734375 232.171875 189.953125 232.128906 190.003906 232.003906 C 190.214844 231.507812 190.414062 230.914062 190.722656 230.472656 C 191.023438 230.046875 190.742188 229.429688 190.222656 229.378906 " fill-opacity="1" fill-rule="nonzero"/><path fill="#f3ba20" d="M 193.859375 280.566406 C 193.863281 281.085938 193.890625 281.59375 193.9375 282.113281 C 193.964844 282.457031 194.453125 282.492188 194.484375 282.132812 C 194.527344 281.609375 194.554688 281.089844 194.5625 280.566406 C 194.5625 280.109375 193.855469 280.109375 193.859375 280.566406 " fill-opacity="1" fill-rule="nonzero"/><path fill="#f3ba20" d="M 157.925781 296.363281 C 157.597656 297.421875 157.640625 298.382812 158.082031 299.402344 C 158.214844 299.707031 158.667969 299.5 158.609375 299.199219 C 158.4375 298.316406 158.472656 297.414062 158.738281 296.558594 C 158.894531 296.039062 158.085938 295.851562 157.925781 296.363281 " fill-opacity="1" fill-rule="nonzero"/><path fill="#f3ba20" d="M 160.890625 298.703125 C 160.558594 299.050781 160.472656 299.410156 160.507812 299.882812 C 160.542969 300.289062 161.109375 300.304688 161.144531 299.890625 C 161.167969 299.636719 161.214844 299.402344 161.386719 299.199219 C 161.679688 298.863281 161.207031 298.371094 160.890625 298.703125 " fill-opacity="1" fill-rule="nonzero"/><path fill="#f3ba20" d="M 170.898438 297.136719 C 170.457031 296.824219 169.878906 297.125 169.804688 297.636719 C 169.734375 298.152344 169.550781 298.605469 169.53125 299.132812 C 169.515625 299.65625 169.71875 300.179688 169.945312 300.640625 C 170.085938 300.933594 170.5 300.742188 170.453125 300.445312 C 170.347656 299.757812 170.300781 298.679688 170.949219 298.238281 C 171.324219 297.980469 171.238281 297.375 170.898438 297.136719 " fill-opacity="1" fill-rule="nonzero"/><path fill="#f3ba20" d="M 175.246094 298.882812 C 174.761719 298.835938 174.261719 299.402344 174.550781 299.871094 C 174.550781 299.878906 174.558594 299.886719 174.5625 299.894531 C 174.601562 300.285156 174.359375 300.691406 174.285156 301.046875 C 174.226562 301.300781 174.542969 301.570312 174.75 301.339844 C 174.9375 301.132812 175.117188 300.914062 175.308594 300.703125 C 175.398438 300.601562 175.480469 300.492188 175.554688 300.371094 C 175.632812 300.25 175.667969 300.09375 175.75 299.976562 C 176.042969 299.546875 175.773438 298.933594 175.246094 298.882812 " fill-opacity="1" fill-rule="nonzero"/><path fill="#f3ba20" d="M 162.699219 317.035156 C 162.703125 316.632812 162.070312 316.621094 162.074219 317.023438 C 162.085938 317.734375 162.144531 318.363281 162.511719 318.992188 C 162.648438 319.226562 162.976562 319.054688 162.886719 318.808594 C 162.683594 318.25 162.691406 317.621094 162.699219 317.035156 " fill-opacity="1" fill-rule="nonzero"/><path fill="#f3ba20" d="M 172.234375 317.742188 C 172.128906 317.847656 172.027344 317.953125 171.921875 318.054688 C 171.652344 318.324219 171.578125 318.726562 171.839844 319.035156 C 172.066406 319.308594 172.550781 319.386719 172.820312 319.121094 C 172.921875 319.015625 173.027344 318.910156 173.132812 318.808594 C 173.398438 318.539062 173.476562 318.132812 173.214844 317.824219 C 172.984375 317.558594 172.503906 317.476562 172.234375 317.742188 " fill-opacity="1" fill-rule="nonzero"/></svg>