<svg xmlns="http://www.w3.org/2000/svg" xmlns:xlink="http://www.w3.org/1999/xlink" width="1000" zoomAndPan="magnify" viewBox="0 0 750 749.999995" height="1000" preserveAspectRatio="xMidYMid meet" version="1.0"><defs><clipPath id="7deeb8e1ef"><path d="M 10.839844 75 L 739.089844 75 L 739.089844 691 L 10.839844 691 Z M 10.839844 75 " clip-rule="nonzero"/></clipPath></defs><g clip-path="url(#7deeb8e1ef)"><path fill="#e7325d" d="M 739.089844 201.007812 L 739.089844 447.6875 C 739.089844 517.246094 682.734375 573.636719 613.222656 573.636719 L 522.609375 573.636719 C 506.855469 573.636719 491.792969 580.074219 480.90625 591.46875 L 393.441406 682.945312 C 383.375 693.5625 366.585938 693.5625 356.515625 682.945312 L 269.140625 591.496094 C 258.253906 580.105469 243.175781 573.652344 227.410156 573.652344 L 136.710938 573.652344 C 67.195312 573.652344 10.839844 517.261719 10.839844 447.703125 L 10.839844 201.09375 C 10.839844 131.535156 67.195312 75.144531 136.710938 75.144531 L 613.308594 75.144531 C 682.78125 75.144531 739.089844 131.492188 739.089844 201.007812 Z M 739.089844 201.007812 " fill-opacity="1" fill-rule="nonzero"/></g><path fill="#ffffff" d="M 392.652344 310.476562 C 392.652344 346.382812 366.394531 369.183594 343.300781 389.226562 C 340.324219 391.808594 337.351562 394.390625 334.480469 396.96875 L 325.367188 405.109375 C 313.964844 416.015625 301.980469 426.324219 289.390625 435.957031 C 282.855469 440.222656 274.433594 440.222656 267.882812 435.957031 C 255.792969 426.632812 244.101562 416.617188 232.992188 406.105469 L 222.78125 396.984375 C 220.011719 394.507812 217.125 392.027344 214.355469 389.550781 C 189.972656 368.320312 164.695312 346.3125 164.695312 310.503906 C 163.304688 272.425781 193.050781 240.390625 231.101562 238.894531 C 249.347656 238.394531 266.78125 246.136719 278.578125 260.023438 C 290.375 246.136719 307.914062 238.308594 326.15625 238.894531 C 364.195312 240.359375 393.925781 272.398438 392.652344 310.476562 Z M 392.652344 310.476562 " fill-opacity="1" fill-rule="nonzero"/><path fill="#ffffff" d="M 530.390625 409.625 L 530.390625 253.863281 L 512.820312 253.863281 L 475.234375 270.550781 L 475.234375 292.355469 L 500.804688 286.34375 L 500.804688 409.609375 L 530.390625 409.609375 Z M 530.390625 409.625 " fill-opacity="1" fill-rule="nonzero"/></svg>