<svg xmlns="http://www.w3.org/2000/svg" xmlns:xlink="http://www.w3.org/1999/xlink" width="1000" zoomAndPan="magnify" viewBox="0 0 750 749.999995" height="1000" preserveAspectRatio="xMidYMid meet" version="1.0"><path fill="#643a41" d="M 641.703125 180.757812 C 638.996094 167.921875 629.996094 157.320312 622.476562 146.976562 C 605.074219 123.027344 587.667969 99.082031 570.261719 75.136719 C 566.253906 69.617188 562.351562 63.992188 558.085938 58.667969 C 554.144531 53.75 549.730469 49.121094 544.390625 45.699219 C 539.332031 42.457031 533.398438 40.265625 527.328125 40.382812 C 524.152344 40.441406 520.964844 41.175781 518.074219 42.527344 C 512.734375 36.96875 506.632812 32.089844 500.359375 27.707031 C 488.414062 19.371094 475.242188 12.808594 461.421875 8.210938 C 447.601562 3.609375 433.113281 0.984375 418.554688 0.53125 C 403.726562 0.0664062 388.835938 1.863281 374.519531 5.734375 C 362.535156 8.976562 350.9375 13.679688 340.09375 19.730469 C 339.953125 19.625 339.8125 19.515625 339.667969 19.414062 C 335.3125 16.359375 330.300781 14.550781 324.945312 14.601562 C 313.234375 14.710938 303.5625 22.109375 294.960938 29.242188 C 285.496094 37.085938 275.882812 44.730469 265.996094 52.039062 C 261.085938 55.675781 256.121094 59.234375 251.101562 62.71875 C 239.488281 70.78125 227.882812 79.863281 216.957031 89.183594 C 206.640625 97.984375 193.148438 107.390625 186.34375 119.355469 C 184.207031 123.113281 182.867188 127.265625 182.171875 131.523438 C 180.792969 139.972656 181.609375 148.789062 183.582031 157.082031 C 187.558594 173.824219 196.671875 188.878906 207.6875 201.921875 C 213.4375 208.722656 219.726562 215.050781 226.226562 221.132812 C 229.519531 224.214844 232.867188 227.234375 236.238281 230.230469 C 237.878906 231.6875 239.480469 233.242188 241.222656 234.585938 C 242.59375 235.644531 244.269531 236.34375 245.996094 235.773438 C 249.414062 234.640625 250.777344 230.40625 251.914062 227.394531 C 253.527344 223.128906 254.875 218.765625 255.949219 214.332031 C 257.621094 207.449219 258.640625 200.40625 258.992188 193.328125 C 262.160156 196.910156 265.296875 200.519531 268.347656 204.203125 C 273.730469 210.699219 278.847656 217.421875 283.402344 224.523438 C 287.800781 231.390625 291.65625 238.625 294.636719 246.21875 C 297.578125 253.703125 299.691406 261.550781 300.550781 269.554688 C 300.800781 271.867188 300.96875 274.203125 300.992188 276.539062 C 300.15625 276.839844 299.335938 277.1875 298.53125 277.574219 C 294.09375 279.714844 290.320312 283.085938 287.679688 287.238281 C 284.953125 291.523438 283.4375 296.535156 283.113281 301.589844 C 282.785156 306.648438 283.726562 311.730469 285.683594 316.398438 C 286.117188 317.429688 286.597656 318.441406 287.121094 319.429688 C 279.65625 329.363281 273.179688 340.03125 267.824219 351.25 C 260.820312 365.921875 255.703125 381.496094 252.71875 397.476562 C 250.011719 411.949219 251.875 426.585938 251.21875 441.144531 C 250.394531 459.457031 248.328125 477.925781 242.667969 495.433594 C 239.8125 504.265625 236.027344 512.8125 231.113281 520.695312 C 228.675781 524.601562 225.96875 528.34375 223.003906 531.871094 C 221.878906 533.207031 219.867188 536.488281 218.25 537.132812 C 215.820312 538.097656 214.574219 535.753906 212.449219 534.019531 C 203.957031 527.109375 193.773438 522.433594 183 520.464844 C 177.464844 519.449219 171.796875 519.125 166.1875 519.550781 C 160.34375 519.996094 154.597656 521.269531 149.011719 523.023438 C 137.597656 526.621094 126.933594 532.132812 115.875 536.632812 C 104.6875 541.179688 92.683594 544.878906 80.46875 544.070312 C 78.945312 543.972656 77.433594 543.796875 75.929688 543.550781 C 75.425781 543.46875 74.996094 544.042969 75.40625 544.453125 C 85.527344 554.71875 98.945312 560.824219 112.707031 564.535156 C 128.132812 568.695312 144.113281 569.859375 159.898438 571.929688 C 168.011719 572.996094 176.109375 574.324219 184.027344 576.398438 C 181.496094 578.921875 179.382812 581.867188 177.632812 584.996094 C 174.609375 590.386719 172.546875 596.285156 170.808594 602.199219 C 168.785156 609.082031 167.328125 616.152344 166.769531 623.316406 C 166.226562 630.238281 166.542969 637.277344 168.054688 644.070312 C 169.3125 649.722656 171.425781 655.210938 174.347656 660.21875 C 177.222656 665.144531 180.910156 669.636719 185.351562 673.234375 C 190.320312 677.265625 196.121094 679.949219 202.285156 681.605469 C 209.089844 683.429688 216.199219 684.234375 223.214844 684.660156 C 230.421875 685.101562 237.65625 684.988281 244.84375 684.335938 C 246.855469 684.152344 248.863281 683.921875 250.863281 683.65625 C 246.070312 688.175781 241.277344 692.695312 236.484375 697.21875 C 233.546875 699.988281 230.550781 702.710938 227.683594 705.558594 C 225.277344 707.945312 222.945312 710.554688 221.472656 713.644531 C 219.996094 716.746094 219.585938 720.171875 220.453125 723.511719 C 221.339844 726.945312 223.378906 730.023438 225.988281 732.398438 C 228.644531 734.8125 231.824219 736.546875 235.136719 737.886719 C 238.75 739.351562 242.554688 740.457031 246.4375 740.886719 C 249.871094 741.269531 253.410156 741.054688 256.683594 739.914062 C 259.511719 743.164062 263.546875 745.398438 267.765625 746.292969 C 271.738281 747.132812 275.863281 746.933594 279.820312 746.085938 C 283.582031 745.28125 287.445312 743.980469 290.648438 741.804688 C 291.75 741.058594 292.769531 740.179688 293.65625 739.195312 C 298.320312 741.507812 303.425781 742.941406 308.625 743.050781 C 312.257812 743.132812 315.960938 742.554688 319.320312 741.144531 C 322.359375 739.863281 325.113281 737.921875 327.375 735.523438 C 331.816406 730.804688 334.449219 724.171875 333.113281 717.6875 C 332.339844 713.933594 330.316406 710.601562 328.28125 707.414062 C 326.183594 704.128906 324.136719 700.867188 322.8125 697.179688 C 321.378906 693.171875 320.652344 688.921875 320.65625 684.675781 C 326.195312 686.390625 331.828125 687.796875 337.527344 688.871094 C 345.507812 690.382812 353.609375 691.273438 361.730469 691.546875 C 369.910156 691.816406 378.109375 691.464844 386.234375 690.484375 C 394.304688 689.511719 402.296875 687.941406 410.121094 685.746094 C 414.835938 684.429688 419.488281 682.878906 424.054688 681.121094 C 424.460938 683.09375 424.648438 685.113281 424.59375 687.136719 C 424.484375 690.8125 423.519531 694.320312 422.058594 697.675781 C 420.625 700.964844 418.882812 704.113281 417.621094 707.472656 C 416.507812 710.4375 415.886719 713.539062 415.992188 716.710938 C 416.191406 722.585938 418.597656 728.355469 422.601562 732.65625 C 426.691406 737.050781 432.355469 739.542969 438.335938 739.785156 C 442.753906 739.960938 447.226562 738.945312 451.113281 736.839844 C 454.691406 740.246094 459.539062 742.238281 464.402344 743.089844 C 468.066406 743.734375 471.851562 743.910156 475.5625 743.703125 C 479.164062 743.503906 482.785156 742.828125 486.039062 741.21875 C 486.910156 740.785156 487.746094 740.285156 488.542969 739.71875 C 493.867188 740.71875 499.386719 740.597656 504.675781 739.398438 C 508.054688 738.632812 511.335938 737.417969 514.398438 735.792969 C 517.382812 734.207031 520.1875 732.226562 522.433594 729.679688 C 524.558594 727.265625 526.214844 724.328125 526.511719 721.078125 C 526.820312 717.699219 525.417969 714.582031 523.339844 711.996094 C 521.101562 709.214844 518.226562 706.972656 515.496094 704.707031 C 512.46875 702.191406 509.417969 699.707031 506.546875 697.015625 C 502.707031 693.417969 499.113281 689.34375 496.636719 684.675781 C 508.089844 685.617188 519.738281 682.207031 529.246094 675.75 C 540.867188 667.851562 548.71875 655.503906 552.269531 642.019531 C 555.992188 627.890625 554.917969 612.957031 550.21875 599.191406 C 543.542969 579.625 527.511719 565.484375 519.972656 546.460938 C 516.125 536.746094 516.03125 526.21875 516.929688 515.957031 C 517.835938 505.65625 518.539062 494.957031 520.902344 484.882812 C 524.753906 468.488281 531.007812 452.632812 531.484375 435.609375 C 531.972656 418.167969 527.917969 400.804688 524.316406 383.847656 C 521.164062 369.015625 517.371094 354.046875 510.121094 340.628906 C 514.722656 337.050781 519.035156 333.082031 522.605469 328.460938 C 524.519531 325.984375 526.355469 323.332031 527.460938 320.382812 C 528.53125 317.53125 528.785156 314.234375 527.089844 311.5625 C 524.0625 306.800781 517.453125 306.382812 512.464844 307.394531 C 509.265625 308.042969 506.25 309.273438 503.378906 310.804688 C 502.714844 307.277344 502.339844 303.695312 502.261719 300.101562 C 502.128906 293.894531 502.863281 287.679688 504.46875 281.679688 C 505.960938 276.101562 508.214844 270.742188 511.15625 265.769531 C 513.625 261.59375 516.554688 257.699219 519.878906 254.164062 C 520.269531 256.671875 520.90625 259.125 521.980469 261.417969 C 524.210938 266.175781 528.492188 269.164062 533.746094 269.578125 C 539.929688 270.070312 546.207031 267.714844 551.992188 265.832031 C 558.488281 263.722656 564.898438 261.347656 571.203125 258.714844 C 583.613281 253.527344 595.722656 247.40625 607.078125 240.183594 C 617.402344 233.621094 627.253906 225.714844 634.011719 215.378906 C 640.609375 205.289062 644.242188 192.75 641.714844 180.753906 Z M 641.703125 180.757812 " fill-opacity="1" fill-rule="nonzero"/><path fill="#fdfae1" d="M 545.019531 639.605469 C 543.167969 648.238281 540.0625 654.871094 536.394531 659.96875 C 524.214844 676.863281 505.757812 676.863281 505.757812 676.863281 C 505.757812 676.863281 490.785156 682.515625 489.78125 669.546875 C 489.105469 660.734375 489.347656 609.128906 489.574219 576.914062 C 489.675781 561.683594 489.78125 550.789062 489.78125 550.789062 C 489.78125 550.789062 480.464844 629.292969 481.796875 652.246094 C 483.128906 675.199219 488.453125 694.160156 507.75 704.140625 C 527.054688 714.117188 523.722656 739.402344 490.78125 734.078125 C 490.78125 734.078125 492.445312 715.449219 486.125 713.785156 C 486.125 713.785156 494.222656 736.734375 480.691406 739.160156 C 459.601562 742.941406 457.171875 736.40625 455.839844 734.078125 C 454.511719 731.75 455.511719 712.121094 453.179688 719.109375 C 450.851562 726.09375 451.183594 729.753906 448.855469 732.082031 C 446.523438 734.410156 432.214844 738.070312 425.5625 730.753906 C 418.90625 723.429688 414.246094 722.433594 425.5625 698.148438 C 425.5625 698.148438 433.214844 569.414062 430.554688 547.464844 C 430.554688 547.464844 422.058594 655.921875 422.898438 672.203125 C 422.898438 672.203125 383.113281 701.015625 319.691406 678.675781 C 317.328125 631.9375 325.480469 585.734375 331.042969 536.207031 C 330.441406 539.28125 307.234375 658.074219 316.746094 681.851562 C 317.414062 683.515625 320.75 708.503906 326.730469 714.453125 C 332.710938 720.398438 327.726562 732.746094 317.414062 734.746094 C 307.097656 736.738281 299.445312 739.070312 297.113281 735.074219 C 294.785156 731.085938 293.457031 713.121094 289.796875 712.125 C 286.132812 711.128906 293.566406 732.15625 291.570312 736.148438 C 289.574219 740.140625 270.949219 749.9375 258.964844 737.296875 C 258.964844 737.296875 263.175781 717.113281 262.511719 713.785156 C 261.84375 710.460938 255.625 730.203125 256.085938 736.867188 C 256.085938 736.867188 237.886719 740.0625 230.230469 729.421875 C 222.578125 718.773438 226.90625 713.785156 238.21875 704.472656 C 249.535156 695.160156 260.179688 685.511719 264.507812 655.574219 C 268.832031 625.632812 270.164062 532.824219 268.832031 527.171875 C 268.40625 525.339844 267.589844 538.617188 266.429688 557.914062 C 263.996094 598.273438 260.039062 664.964844 254.859375 674.867188 C 254.859375 674.867188 213.597656 685.511719 195.960938 671.539062 C 192.882812 669.101562 189.898438 666.511719 187.128906 663.730469 C 174.035156 650.585938 165.832031 633.207031 175.992188 607.667969 C 188.304688 576.734375 207.941406 562.761719 216.925781 553.78125 C 218.03125 552.671875 219.125 551.546875 220.1875 550.398438 C 233.621094 536.019531 244.085938 518.605469 250.277344 499.777344 C 252.125 494.171875 253.578125 488.4375 254.664062 482.632812 C 255.71875 477.027344 256.425781 471.347656 256.808594 465.652344 C 257.5625 454.457031 256.074219 443.484375 256.117188 432.339844 C 256.1875 413.3125 258.515625 393.511719 265.839844 375.8125 C 270.464844 364.640625 275.097656 354.203125 279.035156 345.605469 C 285.289062 331.949219 289.800781 322.925781 289.800781 322.925781 C 289.800781 322.925781 336.054688 373.558594 390.960938 373.355469 C 445.863281 373.15625 456.511719 368.160156 463.832031 364.503906 C 469.445312 361.699219 487.183594 354.789062 498.152344 347.820312 C 501.496094 345.699219 504.210938 343.570312 505.761719 341.550781 C 505.761719 341.550781 527.625 378.664062 525.960938 423.574219 C 524.300781 468.480469 520.070312 468.84375 511.75 500.832031 C 511.695312 501.039062 511.648438 501.242188 511.59375 501.445312 C 506.753906 520.796875 509.570312 545.433594 519.402344 563.664062 C 520.625 565.929688 521.953125 568.097656 523.394531 570.140625 C 537.929688 590.816406 550.679688 613.222656 545.023438 639.605469 Z M 545.019531 639.605469 " fill-opacity="1" fill-rule="nonzero"/><path fill="#e6d6b3" d="M 206.160156 554.613281 C 200.140625 560.273438 191.554688 567.941406 190.460938 568.71875 C 189.484375 569.417969 160.433594 561.753906 143.132812 562.472656 C 136.707031 562.742188 129.222656 561.085938 122.351562 558.902344 C 133.695312 554.722656 153.609375 548.417969 161.253906 550.363281 C 169.441406 552.453125 194.347656 554.925781 206.160156 554.613281 Z M 206.160156 554.613281 " fill-opacity="1" fill-rule="nonzero"/><path fill="#fdfae1" d="M 212.082031 548.59375 C 211.914062 549.082031 209.414062 551.558594 206.160156 554.613281 C 194.347656 554.925781 169.441406 552.453125 161.253906 550.363281 C 153.609375 548.417969 133.695312 554.722656 122.351562 558.902344 C 110.722656 555.207031 100.855469 549.984375 100.855469 549.984375 C 100.855469 549.984375 134.484375 539.417969 144.578125 533.894531 C 154.664062 528.371094 185.175781 525.007812 197.429688 533.894531 C 209.683594 542.78125 212.5625 547.199219 212.082031 548.59375 Z M 212.082031 548.59375 " fill-opacity="1" fill-rule="nonzero"/><path fill="#f9cc1e" d="M 289.679688 289.945312 C 288.539062 291.71875 284.777344 321.296875 318.003906 343.277344 C 351.226562 365.257812 366.742188 369.617188 403.296875 368.628906 C 439.851562 367.640625 471.46875 357.765625 492.214844 344.921875 C 512.964844 332.082031 516.257812 324.179688 518.5625 320.890625 C 520.867188 317.597656 517.574219 304.757812 503.742188 318.914062 C 489.910156 333.070312 449.402344 347.554688 429.644531 350.191406 C 409.886719 352.824219 331.175781 355.785156 301.207031 300.480469 C 301.207031 300.480469 296.996094 278.589844 289.679688 289.945312 Z M 289.679688 289.945312 " fill-opacity="1" fill-rule="nonzero"/><path fill="#fdfae1" d="M 525.734375 62.015625 C 523.398438 54.707031 520.765625 49.859375 518.867188 46.972656 C 517.96875 47.710938 516.683594 48.886719 516.957031 49.164062 C 516.671875 48.882812 516.386719 48.59375 516.09375 48.300781 C 501.398438 33.695312 470.28125 11.496094 424.339844 7.121094 C 367.164062 1.679688 329.828125 31.613281 329.828125 31.613281 L 332.160156 25.785156 C 332.160156 25.785156 326.71875 17.617188 316.992188 22.285156 C 307.269531 26.953125 234.152344 86.4375 228.703125 90.714844 C 225.898438 92.921875 212.9375 99.683594 202.386719 110.304688 C 218.460938 102.039062 244.21875 88.601562 247.699219 85.601562 C 252.800781 81.191406 290.859375 52.425781 294.570312 48.945312 C 298.285156 45.464844 314.6875 31.316406 314.6875 31.316406 L 310.132812 42.753906 C 310.21875 42.660156 310.300781 42.574219 310.382812 42.503906 C 310.382812 42.503906 298.710938 86.050781 293.65625 94.992188 C 288.597656 103.933594 280.433594 119.488281 273.429688 124.539062 C 266.433594 129.597656 252.429688 166.144531 263.710938 184.804688 C 274.984375 203.46875 320.492188 245.847656 304.542969 295.226562 C 304.542969 295.226562 322.4375 340.714844 391.667969 344.992188 C 460.894531 349.273438 499.792969 315.441406 499.792969 315.441406 C 499.792969 315.441406 492.011719 297.945312 499.792969 278.117188 C 501.464844 273.847656 503.210938 269.832031 504.949219 266.152344 C 511.261719 252.726562 517.40625 243.738281 519.238281 243.125 C 521.570312 242.351562 530.128906 186.359375 528.960938 169.640625 C 528.960938 169.640625 531.566406 85.207031 525.734375 62.015625 Z M 438.09375 71.996094 C 438.09375 71.996094 446.484375 102.519531 480.023438 102.085938 C 480.023438 102.085938 467.984375 109.398438 449.707031 97.359375 C 449.707031 97.359375 434.65625 90.054688 438.09375 71.996094 Z M 314.671875 76.507812 C 315.445312 76.082031 337.03125 85.96875 353.164062 69.414062 C 353.164062 69.414062 356.816406 68.34375 355.53125 70.492188 C 354.238281 72.640625 344.128906 80.59375 334.238281 83.175781 C 324.347656 85.75 310.800781 78.65625 314.671875 76.507812 Z M 451.019531 233.964844 C 420.320312 272.203125 398.511719 270.898438 398.511719 270.898438 C 369.679688 306.011719 339.398438 289.886719 339.398438 289.886719 C 304.277344 273.5 331.59375 237.34375 331.59375 237.34375 L 311.5625 200.410156 C 286.0625 204.3125 282.199219 193.867188 283.460938 194.167969 C 325.589844 204.308594 351.34375 159.617188 351.367188 159.578125 C 351.625 159.128906 339.8125 151.996094 338.996094 151.476562 C 331.910156 146.976562 326.042969 140.734375 321.851562 133.476562 C 317.863281 126.5625 313.398438 117.519531 315.980469 109.378906 C 319.363281 98.714844 345.121094 92.992188 362.03125 93.773438 C 378.945312 94.554688 399.5 102.617188 406.261719 111.71875 C 413.027344 120.820312 404.703125 134.089844 391.433594 145.011719 C 378.164062 155.9375 358.128906 160.617188 358.128906 160.617188 C 363.589844 191.566406 391.433594 207.957031 414.070312 210.035156 C 436.707031 212.113281 472.609375 180.90625 472.609375 180.90625 C 465.066406 180.125 467.144531 178.046875 467.144531 178.046875 C 485.878906 172.582031 492.382812 185.847656 492.644531 193.128906 C 492.902344 200.410156 485.359375 203.011719 486.660156 197.8125 C 487.957031 192.613281 482.238281 186.367188 482.238281 186.367188 C 482.238281 186.367188 481.71875 195.734375 451.015625 233.96875 Z M 631.007812 168.765625 C 630.648438 167.765625 629.550781 165.832031 627.859375 163.167969 C 613.003906 139.746094 552.265625 59.375 541.71875 51.097656 C 539.253906 49.167969 536.292969 46.144531 533.175781 45.441406 C 530.929688 44.933594 528.617188 44.757812 526.324219 44.890625 C 529.09375 46.355469 532.035156 48.976562 534.605469 53.550781 C 542.15625 67.019531 609.285156 151.710938 622.382812 167.011719 C 622.59375 167.261719 622.804688 167.511719 623.011719 167.757812 C 630.351562 176.476562 634.40625 183.847656 636.507812 188.46875 C 635.59375 179.621094 632.3125 172.378906 631.011719 168.765625 Z M 631.007812 168.765625 " fill-opacity="1" fill-rule="nonzero"/><path fill="#ca8178" d="M 418.550781 217.808594 C 418.285156 218.210938 411.347656 228.140625 405.480469 239.425781 C 395.390625 232.292969 381.1875 228.800781 368.300781 227.136719 L 372.6875 217.410156 L 377.652344 206.296875 C 377.652344 206.296875 390.359375 214.832031 396.710938 215.824219 C 403.066406 216.816406 418.953125 217.214844 418.550781 217.808594 Z M 418.550781 217.808594 " fill-opacity="1" fill-rule="nonzero"/><path fill="#ca8178" d="M 372.6875 203.121094 C 372.6875 203.121094 368.347656 214.636719 364.496094 226.6875 C 356.882812 225.886719 349.953125 225.691406 344.914062 225.695312 C 348.824219 218.707031 351.839844 213.046875 351.839844 213.046875 C 351.839844 213.046875 360.375 200.34375 372.683594 203.121094 Z M 372.6875 203.121094 " fill-opacity="1" fill-rule="nonzero"/><path fill="#fba8a8" d="M 405.476562 239.425781 C 402.585938 244.988281 399.957031 250.875 398.511719 256.113281 C 394.128906 271.996094 381.519531 289.945312 358.132812 288.664062 C 334.75 287.382812 328.210938 271 328.210938 271 C 328.210938 271 325.035156 257.503906 331.984375 247.378906 C 335.574219 242.152344 340.75 233.167969 344.914062 225.695312 C 349.953125 225.691406 356.882812 225.882812 364.496094 226.6875 C 361.96875 234.582031 359.648438 242.710938 358.898438 247.976562 L 368.300781 227.132812 C 381.1875 228.800781 395.390625 232.289062 405.480469 239.425781 Z M 405.476562 239.425781 " fill-opacity="1" fill-rule="nonzero"/><path fill="#fdfae1" d="M 325.027344 107.054688 C 325.777344 107.054688 377.6875 101.816406 400.402344 115.535156 C 400.402344 115.535156 367.953125 86.84375 325.777344 107.054688 " fill-opacity="1" fill-rule="nonzero"/><path fill="#e6d6b3" d="M 528.960938 169.640625 C 530.128906 186.359375 521.566406 242.351562 519.238281 243.125 C 517.402344 243.738281 511.261719 252.726562 504.949219 266.152344 C 491.765625 266.582031 474.601562 260.539062 492.65625 233.121094 C 517.667969 195.140625 517.539062 125.585938 512.964844 97.675781 C 510.472656 82.480469 513.144531 62.949219 516.09375 48.304688 C 516.386719 48.597656 516.675781 48.882812 516.957031 49.167969 C 516.6875 48.890625 517.972656 47.710938 518.867188 46.976562 C 520.769531 49.863281 523.402344 54.707031 525.738281 62.015625 C 531.570312 85.207031 528.960938 169.644531 528.960938 169.644531 Z M 528.960938 169.640625 " fill-opacity="1" fill-rule="nonzero"/><path fill="#fdfae1" d="M 627.855469 163.167969 C 626.265625 164.679688 624.648438 166.210938 623.007812 167.757812 C 622.800781 167.507812 622.589844 167.261719 622.378906 167.011719 C 609.28125 151.714844 542.148438 67.019531 534.597656 53.550781 C 532.03125 48.976562 529.089844 46.355469 526.320312 44.890625 C 528.613281 44.757812 530.925781 44.933594 533.171875 45.441406 C 536.289062 46.144531 539.25 49.164062 541.710938 51.097656 C 552.261719 59.375 613 139.746094 627.855469 163.167969 Z M 627.855469 163.167969 " fill-opacity="1" fill-rule="nonzero"/><path fill="#e6d6b3" d="M 333.597656 521.769531 C 333.597656 521.769531 323.648438 581.441406 320.910156 607.550781 C 318.175781 633.65625 317.203125 676.933594 319.691406 678.671875 C 322.179688 680.414062 354.945312 690.65625 383.5 686.035156 C 412.054688 681.410156 422.996094 675.332031 424.207031 671.394531 C 425.421875 667.457031 428.839844 595.039062 428.839844 595.039062 C 428.839844 595.039062 435.40625 529.652344 430.859375 509.65625 C 430.859375 509.65625 427.210938 467.070312 424.648438 463.226562 C 422.085938 459.382812 411.835938 527.898438 408.632812 550 C 405.429688 572.101562 392.292969 660.164062 334.316406 631.980469 C 334.316406 631.980469 338.800781 509.976562 338.480469 503.253906 C 338.160156 496.527344 338.160156 481.476562 338.160156 481.476562 Z M 333.597656 521.769531 " fill-opacity="1" fill-rule="nonzero"/><path fill="#e6d6b3" d="M 266.425781 557.914062 C 263.992188 598.269531 260.035156 664.960938 254.855469 674.863281 C 254.855469 674.863281 213.59375 685.507812 195.957031 671.535156 C 192.878906 669.101562 189.894531 666.507812 187.125 663.730469 C 189.429688 656.835938 196.109375 642.359375 212.132812 639.53125 C 233.320312 635.796875 236.039062 635.796875 237.738281 635.457031 C 239.4375 635.113281 244.195312 590.28125 233.664062 574.65625 C 228.710938 567.3125 223.894531 558.101562 220.179688 550.398438 C 233.617188 536.015625 244.078125 518.601562 250.269531 499.773438 C 252.117188 494.167969 253.570312 488.433594 254.660156 482.632812 C 258.9375 504.777344 264.179688 534.578125 266.421875 557.914062 Z M 266.425781 557.914062 " fill-opacity="1" fill-rule="nonzero"/><path fill="#e6d6b3" d="M 536.394531 659.96875 C 524.214844 676.859375 505.757812 676.859375 505.757812 676.859375 C 505.757812 676.859375 490.785156 682.515625 489.78125 669.542969 C 489.105469 660.730469 489.347656 609.128906 489.574219 576.910156 C 493.332031 556.929688 501.976562 515.617188 511.589844 501.445312 C 506.75 520.796875 509.566406 545.433594 519.398438 563.664062 C 513.101562 574.277344 496.996094 604.578125 503.070312 627.65625 C 508.382812 647.839844 526.390625 656.589844 536.398438 659.96875 Z M 536.394531 659.96875 " fill-opacity="1" fill-rule="nonzero"/><path fill="#e6d6b3" d="M 498.144531 347.816406 L 478.589844 376.253906 C 478.589844 376.253906 441.828125 431.375 358.910156 428.851562 C 302.238281 427.125 284.828125 377.09375 279.027344 345.601562 C 285.28125 331.941406 289.792969 322.917969 289.792969 322.917969 C 289.792969 322.917969 336.050781 373.550781 390.953125 373.347656 C 445.859375 373.148438 456.507812 368.15625 463.828125 364.5 C 469.441406 361.691406 487.175781 354.785156 498.144531 347.8125 Z M 498.144531 347.816406 " fill-opacity="1" fill-rule="nonzero"/><path fill="#e1b161" d="M 598.890625 237.671875 C 592.882812 240.210938 586.972656 244.363281 581.035156 247.382812 C 574.554688 250.675781 567.949219 253.730469 561.15625 256.339844 C 552.480469 259.675781 543.238281 262.703125 533.945312 263.582031 C 530.519531 263.90625 527.832031 262.648438 526.753906 259.230469 C 525.171875 254.21875 526.429688 248.582031 527.222656 243.539062 C 527.222656 243.539062 538.972656 173.460938 535.449219 126.089844 C 535.449219 126.089844 534.742188 76.585938 525.339844 60.578125 C 525.476562 61.03125 525.605469 61.507812 525.734375 62.015625 C 523.398438 54.710938 520.765625 49.863281 518.867188 46.976562 C 519.238281 46.667969 519.542969 46.441406 519.640625 46.382812 C 520.160156 46.082031 520.695312 45.863281 521.242188 45.695312 C 529.390625 54.792969 542.757812 76 545.898438 121.03125 C 550.375 185.179688 532.972656 242.363281 543.207031 243.164062 C 552.859375 243.921875 614.78125 239.441406 633.808594 183.167969 C 634.941406 185.191406 635.824219 186.972656 636.503906 188.464844 C 638.066406 203.570312 632.738281 223.347656 598.894531 237.667969 Z M 598.890625 237.671875 " fill-opacity="1" fill-rule="nonzero"/><path fill="#f4d289" d="M 633.804688 183.167969 C 614.78125 239.441406 552.855469 243.921875 543.203125 243.164062 C 532.96875 242.363281 550.371094 185.179688 545.894531 121.03125 C 542.75 76 529.386719 54.792969 521.238281 45.695312 C 521.847656 45.511719 522.476562 45.382812 523.121094 45.265625 C 524.179688 45.078125 525.25 44.953125 526.320312 44.890625 C 529.089844 46.355469 532.03125 48.972656 534.597656 53.550781 C 542.148438 67.019531 609.277344 151.710938 622.375 167.011719 C 627.683594 173.214844 631.335938 178.757812 633.804688 183.167969 Z M 633.804688 183.167969 " fill-opacity="1" fill-rule="nonzero"/><path fill="#e1b161" d="M 314.679688 31.324219 L 310.128906 42.753906 C 306.066406 47.148438 296.347656 73.679688 294.824219 77.105469 C 293.269531 80.605469 283.933594 110.542969 267.988281 120.265625 C 252.042969 129.984375 252.429688 178.585938 253.207031 190.636719 C 253.984375 202.6875 247.375 226.796875 244.257812 228.742188 C 241.148438 230.683594 232.207031 220.183594 227.148438 215.519531 C 224.09375 212.703125 214.515625 201.515625 205.265625 185.730469 C 215.871094 192.117188 232.375 202.921875 235.742188 198.640625 C 240.9375 192.03125 238.988281 179.777344 239.933594 169.859375 C 240.878906 159.949219 246.070312 124.304688 253.867188 120.058594 C 261.65625 115.808594 285.742188 86.539062 289.046875 80.636719 C 292.324219 74.785156 314.335938 31.992188 314.679688 31.324219 Z M 314.679688 31.324219 " fill-opacity="1" fill-rule="nonzero"/><path fill="#f4d289" d="M 314.679688 31.324219 C 314.332031 31.992188 292.324219 74.785156 289.046875 80.636719 C 285.738281 86.542969 261.65625 115.808594 253.867188 120.058594 C 246.070312 124.308594 240.878906 159.949219 239.933594 169.859375 C 238.988281 179.777344 240.9375 192.03125 235.742188 198.640625 C 232.375 202.921875 215.871094 192.117188 205.265625 185.730469 C 199.195312 175.378906 193.273438 163.054688 189.421875 149.8125 C 184.71875 133.632812 192.492188 120.269531 202.386719 110.304688 C 218.460938 102.042969 244.21875 88.601562 247.695312 85.601562 C 252.800781 81.195312 290.859375 52.429688 294.570312 48.949219 C 298.25 45.5 314.371094 31.59375 314.683594 31.328125 Z M 314.679688 31.324219 " fill-opacity="1" fill-rule="nonzero"/></svg>