<svg xmlns="http://www.w3.org/2000/svg" xmlns:xlink="http://www.w3.org/1999/xlink" width="500" zoomAndPan="magnify" viewBox="0 0 375 374.999991" height="500" preserveAspectRatio="xMidYMid meet" version="1.0"><defs><clipPath id="f7289ad77e"><path d="M 8.25 374.015625 L 375 374.015625 L 375 375 L 8.25 375 Z M 8.25 374.015625 " clip-rule="nonzero"/></clipPath></defs><path fill="#a3654a" d="M 161.304688 94.527344 C 161.304688 94.527344 148.300781 83.363281 152.011719 61.039062 C 155.730469 38.714844 168.738281 25.695312 183.605469 23.835938 C 198.46875 21.976562 192.894531 27.554688 198.46875 25.695312 C 204.046875 23.835938 209.621094 21.976562 217.054688 27.554688 C 224.488281 33.136719 237.496094 38.714844 241.210938 48.015625 C 244.925781 57.316406 239.351562 57.316406 246.789062 72.203125 C 254.21875 87.082031 252.363281 90.804688 239.351562 103.824219 C 226.34375 116.847656 215.195312 126.148438 215.195312 126.148438 L 200.332031 94.527344 L 161.304688 94.527344 " fill-opacity="1" fill-rule="nonzero"/><path fill="#f6b592" d="M 224.488281 178.234375 L 178.03125 180.097656 L 178.03125 124.289062 L 220.769531 98.242188 L 222.628906 150.332031 L 224.488281 178.234375 " fill-opacity="1" fill-rule="nonzero"/><path fill="#e57c5c" d="M 211.777344 118.425781 C 210.214844 123.710938 202.1875 133.589844 191.039062 141.03125 C 186.132812 144.304688 181.578125 144.695312 178.03125 144.097656 L 178.03125 133.589844 L 189.179688 122.425781 C 189.179688 122.425781 213.339844 113.125 211.777344 118.425781 " fill-opacity="1" fill-rule="nonzero"/><path fill="#5faad3" d="M 172.082031 165.523438 C 172.082031 165.523438 198.46875 187.535156 230.992188 165.523438 L 235.636719 277.140625 L 146.4375 261.945312 L 172.082031 165.523438 " fill-opacity="1" fill-rule="nonzero"/><path fill="#f6b592" d="M 166.878906 55.457031 C 165.257812 61.964844 157.585938 83.363281 159.449219 101.964844 C 161.304688 120.566406 170.597656 129.867188 174.3125 131.726562 C 178.03125 133.589844 191.039062 137.3125 204.046875 126.148438 C 217.054688 114.988281 222.628906 101.964844 222.628906 101.964844 C 222.628906 101.964844 222.628906 81.503906 218.914062 74.0625 C 215.195312 66.621094 205.90625 48.015625 200.332031 48.015625 C 194.757812 48.015625 168.738281 48.015625 166.878906 55.457031 " fill-opacity="1" fill-rule="nonzero"/><path fill="#e57c5c" d="M 174.351562 87.65625 C 174.730469 89.792969 174.898438 91.917969 175.007812 94.042969 C 175.101562 96.171875 175.113281 98.292969 175.054688 100.414062 L 174.996094 102.003906 L 174.910156 103.597656 C 174.871094 104.125 174.84375 104.65625 174.796875 105.183594 L 174.765625 105.53125 C 174.761719 105.558594 174.757812 105.589844 174.761719 105.609375 C 174.761719 105.636719 174.761719 105.660156 174.765625 105.683594 C 174.777344 105.773438 174.8125 105.878906 174.910156 105.996094 C 175.109375 106.238281 175.503906 106.480469 175.9375 106.667969 C 176.375 106.855469 176.859375 107.011719 177.355469 107.148438 C 177.851562 107.289062 178.367188 107.402344 178.882812 107.523438 C 179.402344 107.644531 179.925781 107.753906 180.453125 107.886719 C 179.921875 107.992188 179.386719 108.066406 178.847656 108.117188 C 178.304688 108.175781 177.761719 108.199219 177.210938 108.1875 C 176.65625 108.179688 176.097656 108.136719 175.519531 108.011719 C 175.230469 107.953125 174.941406 107.863281 174.644531 107.746094 C 174.351562 107.621094 174.042969 107.464844 173.757812 107.21875 C 173.46875 106.976562 173.195312 106.628906 173.050781 106.210938 C 173.007812 106.105469 172.984375 106 172.964844 105.894531 C 172.941406 105.785156 172.933594 105.683594 172.925781 105.578125 L 172.917969 105.429688 L 172.914062 105.332031 L 172.910156 105.128906 C 172.890625 104.597656 172.890625 104.070312 172.886719 103.539062 L 172.886719 101.945312 L 172.917969 100.355469 C 172.980469 98.234375 173.113281 96.113281 173.332031 93.996094 C 173.554688 91.882812 173.847656 89.765625 174.351562 87.65625 " fill-opacity="1" fill-rule="nonzero"/><path fill="#a3654a" d="M 185.464844 75.921875 C 185.570312 75.632812 185.714844 75.367188 185.882812 75.128906 C 186.042969 74.886719 186.230469 74.667969 186.425781 74.460938 C 186.824219 74.054688 187.273438 73.707031 187.761719 73.425781 C 188.734375 72.863281 189.867188 72.558594 191.019531 72.53125 C 191.59375 72.519531 192.175781 72.585938 192.742188 72.714844 C 193.300781 72.855469 193.851562 73.066406 194.355469 73.351562 C 195.347656 73.9375 196.199219 74.769531 196.613281 75.921875 C 195.390625 75.992188 194.453125 75.957031 193.570312 75.976562 L 191.085938 76.011719 C 190.273438 76.027344 189.445312 76.042969 188.542969 76.039062 C 187.625 76.035156 186.667969 76.03125 185.464844 75.921875 " fill-opacity="1" fill-rule="nonzero"/><path fill="#a3654a" d="M 170.589844 75.914062 C 169.480469 75.953125 168.632812 75.875 167.851562 75.820312 C 167.082031 75.753906 166.429688 75.691406 165.859375 75.660156 C 165.289062 75.640625 164.816406 75.613281 164.183594 75.679688 C 163.535156 75.730469 162.773438 75.96875 161.691406 76.277344 C 161.617188 75.714844 161.691406 75.183594 161.886719 74.679688 C 162.070312 74.171875 162.394531 73.703125 162.8125 73.308594 C 163.648438 72.5 164.917969 72.113281 166.046875 72.1875 C 167.1875 72.257812 168.195312 72.691406 168.976562 73.328125 C 169.371094 73.652344 169.707031 74.03125 169.988281 74.453125 C 170.261719 74.882812 170.496094 75.351562 170.589844 75.914062 " fill-opacity="1" fill-rule="nonzero"/><path fill="#e57c5c" d="M 179.886719 116.847656 C 181.226562 116.636719 182.5 116.476562 183.746094 116.269531 C 184.984375 116.066406 186.195312 115.828125 187.335938 115.46875 C 188.480469 115.121094 189.542969 114.644531 190.511719 113.980469 C 190.988281 113.636719 191.433594 113.246094 191.859375 112.796875 C 192.289062 112.347656 192.652344 111.828125 193.054688 111.265625 C 193.058594 111.949219 192.9375 112.640625 192.671875 113.296875 C 192.40625 113.949219 192.019531 114.566406 191.535156 115.113281 C 190.554688 116.179688 189.25 116.921875 187.910156 117.324219 C 186.5625 117.742188 185.171875 117.867188 183.816406 117.789062 C 183.136719 117.75 182.46875 117.65625 181.808594 117.503906 C 181.152344 117.351562 180.5 117.15625 179.886719 116.847656 " fill-opacity="1" fill-rule="nonzero"/><path fill="#a3654a" d="M 176.171875 53.601562 C 183.753906 54.683594 189.179688 46.15625 192.894531 53.601562 C 196.613281 61.039062 198.46875 64.761719 205.90625 66.621094 C 213.339844 68.480469 217.054688 88.011719 224.488281 89.410156 C 231.917969 90.804688 211.480469 51.738281 211.480469 51.738281 L 204.046875 42.4375 L 183.605469 42.4375 L 170.597656 46.15625 L 161.304688 62.902344 C 161.304688 62.902344 159.257812 83.480469 160.28125 82.488281 C 161.304688 81.503906 163.164062 51.738281 176.171875 53.601562 " fill-opacity="1" fill-rule="nonzero"/><path fill="#a3654a" d="M 209.023438 29.90625 C 207.824219 23.984375 207.503906 17.386719 208.828125 11.480469 C 209.703125 7.578125 211.527344 3.625 215.222656 1.699219 C 217.21875 0.660156 219.382812 0.460938 221.589844 0.480469 C 224.410156 0.507812 227.234375 0.0117188 229.984375 0.84375 C 234.929688 2.351562 238.09375 6.863281 242.945312 8.542969 C 244.492188 9.078125 246.109375 9.441406 247.527344 10.261719 C 250.496094 11.96875 250.5 15.003906 250.128906 18.042969 C 248.972656 27.457031 236.683594 46.898438 221.96875 38.109375 C 207.253906 29.324219 209.023438 29.90625 209.023438 29.90625 " fill-opacity="1" fill-rule="nonzero"/><path fill="#8e4d36" d="M 216.125 46.15625 C 216.953125 46.367188 217.75 46.683594 218.523438 47.058594 C 219.300781 47.425781 220.050781 47.867188 220.769531 48.375 C 222.191406 49.398438 223.523438 50.71875 224.378906 52.5 C 224.796875 53.386719 225.078125 54.390625 225.128906 55.433594 C 225.179688 56.464844 225.003906 57.589844 224.558594 58.570312 C 224.132812 59.566406 223.484375 60.382812 222.90625 61.050781 C 222.621094 61.382812 222.34375 61.683594 222.160156 61.914062 L 222.058594 62.0625 C 222.039062 62.09375 222 62.144531 222.011719 62.144531 C 221.980469 62.1875 222.046875 62.09375 222.042969 61.953125 C 222.039062 61.792969 222.003906 61.667969 221.972656 61.644531 C 221.972656 61.636719 221.984375 61.644531 221.984375 61.652344 C 222.011719 61.679688 222.035156 61.710938 222.058594 61.738281 C 222.203125 61.890625 222.457031 62.089844 222.738281 62.28125 C 222.875 62.378906 223.035156 62.476562 223.183594 62.570312 L 223.667969 62.859375 L 224.722656 63.453125 C 225.097656 63.671875 225.476562 63.878906 225.839844 64.113281 C 226.214844 64.347656 226.578125 64.585938 226.941406 64.832031 L 228.007812 65.605469 L 229.027344 66.457031 C 230.34375 67.644531 231.554688 69.058594 232.304688 70.730469 C 233.0625 72.394531 233.25 74.269531 232.851562 75.921875 C 232.648438 75.089844 232.390625 74.308594 232.050781 73.589844 L 231.921875 73.324219 L 231.78125 73.066406 C 231.675781 72.898438 231.601562 72.722656 231.484375 72.566406 L 231.160156 72.089844 L 230.800781 71.636719 C 229.828125 70.46875 228.621094 69.523438 227.320312 68.6875 L 226.324219 68.089844 L 225.296875 67.519531 L 224.242188 66.984375 C 223.890625 66.808594 223.527344 66.644531 223.171875 66.472656 L 222.019531 65.917969 L 221.417969 65.597656 C 221.214844 65.476562 221.015625 65.367188 220.808594 65.238281 C 220.398438 64.972656 219.976562 64.679688 219.53125 64.25 C 219.417969 64.125 219.300781 64 219.191406 63.871094 C 219.074219 63.714844 218.960938 63.550781 218.851562 63.367188 C 218.800781 63.261719 218.75 63.15625 218.703125 63.046875 C 218.679688 62.992188 218.652344 62.9375 218.632812 62.882812 L 218.578125 62.6875 C 218.542969 62.554688 218.511719 62.425781 218.496094 62.289062 C 218.480469 62.148438 218.472656 62.007812 218.472656 61.867188 C 218.492188 61.316406 218.667969 60.8125 218.851562 60.496094 C 218.941406 60.304688 219.027344 60.1875 219.121094 60.042969 C 219.210938 59.910156 219.296875 59.804688 219.386719 59.691406 C 219.726562 59.277344 220.027344 58.976562 220.292969 58.691406 C 220.820312 58.128906 221.226562 57.644531 221.5 57.125 C 221.777344 56.613281 221.929688 56.066406 221.988281 55.441406 C 222.023438 54.820312 221.960938 54.175781 221.777344 53.523438 C 221.589844 52.863281 221.289062 52.207031 220.917969 51.554688 C 220.539062 50.910156 220.085938 50.273438 219.582031 49.660156 C 218.578125 48.429688 217.402344 47.273438 216.125 46.15625 " fill-opacity="1" fill-rule="nonzero"/><path fill="#8e4d36" d="M 181.601562 41.5625 C 181.992188 40.632812 182.5 39.804688 183.039062 39 C 183.582031 38.203125 184.175781 37.453125 184.804688 36.730469 C 186.066406 35.300781 187.484375 34.015625 189.042969 32.882812 C 190.601562 31.761719 192.308594 30.78125 194.214844 30.148438 C 195.171875 29.839844 196.175781 29.609375 197.226562 29.582031 L 197.617188 29.578125 C 197.75 29.585938 197.878906 29.589844 198.015625 29.605469 C 198.144531 29.617188 198.273438 29.628906 198.402344 29.648438 C 198.539062 29.671875 198.664062 29.703125 198.796875 29.734375 C 199.304688 29.84375 199.800781 30.089844 200.1875 30.402344 C 199.179688 30.511719 198.40625 30.875 197.640625 31.289062 C 196.882812 31.707031 196.160156 32.183594 195.441406 32.679688 C 194.007812 33.683594 192.585938 34.734375 191.128906 35.785156 C 189.671875 36.832031 188.1875 37.875 186.625 38.859375 C 185.054688 39.839844 183.445312 40.796875 181.601562 41.5625 " fill-opacity="1" fill-rule="nonzero"/><path fill="#f2f7f9" d="M 334.125 353.09375 C 334.125 353.09375 315.527344 343.796875 295.085938 347.523438 L 289.898438 382.859375 L 113 384.722656 L 105.5625 234.046875 C 105.492188 232.582031 107.652344 229.621094 108.242188 228.335938 C 110.429688 223.710938 112.585938 219.078125 114.707031 214.414062 C 118.492188 206.132812 121.519531 196.355469 127.011719 188.945312 C 130.660156 184.003906 136.085938 179.652344 140.8125 175.652344 C 146.550781 170.777344 152.839844 165.628906 159.617188 161.382812 C 163.441406 159.015625 167.371094 156.929688 171.46875 155.363281 C 173.625 154.496094 175.816406 153.796875 178.039062 153.277344 L 211.480469 273.121094 L 222.644531 150.316406 C 222.644531 150.316406 235.085938 151.117188 249.375 156.199219 C 257.195312 158.980469 265.574219 163.019531 272.804688 168.9375 C 293.246094 185.671875 328.140625 247.546875 335.582031 266.164062 C 343.019531 284.746094 339.6875 338.230469 334.125 353.09375 " fill-opacity="1" fill-rule="nonzero"/><path stroke-linecap="round" transform="matrix(0.0858086, 0, 0, -0.0858991, 8.250004, 386.987787)" fill="none" stroke-linejoin="round" d="M 3287.659457 1464.557067 C 3287.659457 1464.557067 3100.059834 1411.669824 3150.043912 1234.363408 C 3199.982468 1057.102467 3358.310905 655.150324 3358.310905 655.150324 " stroke="#cedff4" stroke-width="39.382999" stroke-opacity="1" stroke-miterlimit="10"/><path stroke-linecap="round" transform="matrix(0.0858086, 0, 0, -0.0858991, 8.250004, 386.987787)" fill="none" stroke-linejoin="round" d="M 3088.314941 1453.32478 C 3088.314941 1453.32478 3213.366183 1488.613259 3308.508918 1470.423322 " stroke="#cedff4" stroke-width="40.511002" stroke-opacity="1" stroke-miterlimit="10"/><path fill="#c0def2" d="M 208.859375 275.925781 L 208.859375 303.800781 L 168.847656 221.875 C 168.292969 220.742188 168.207031 219.4375 168.605469 218.246094 L 171.703125 208.941406 C 171.703125 208.941406 158.699219 199.648438 158.699219 197.769531 C 158.699219 196.273438 159.644531 171.941406 159.160156 162.894531 C 162.984375 160.527344 164.75 159.730469 168.847656 158.167969 L 175.421875 156.847656 L 208.859375 275.925781 " fill-opacity="1" fill-rule="nonzero"/><path fill="#c0def2" d="M 248.007812 191.492188 L 238.691406 202.660156 L 243.273438 208.386719 C 245.046875 210.601562 245.542969 213.582031 244.582031 216.25 L 214.171875 300.792969 L 227.566406 152.410156 C 227.566406 152.410156 236.09375 151.484375 250.382812 156.566406 L 248.007812 191.492188 " fill-opacity="1" fill-rule="nonzero"/><path fill="#545454" d="M 194.25 87.863281 C 194.25 89.484375 193.375 90.796875 192.296875 90.796875 C 191.214844 90.796875 190.339844 89.484375 190.339844 87.863281 C 190.339844 86.242188 191.214844 84.925781 192.296875 84.925781 C 193.375 84.925781 194.25 86.242188 194.25 87.863281 " fill-opacity="1" fill-rule="nonzero"/><path fill="#545454" d="M 170.789062 87.996094 C 170.789062 89.617188 169.914062 90.933594 168.835938 90.933594 C 167.757812 90.933594 166.878906 89.617188 166.878906 87.996094 C 166.878906 86.375 167.757812 85.058594 168.835938 85.058594 C 169.914062 85.058594 170.789062 86.375 170.789062 87.996094 " fill-opacity="1" fill-rule="nonzero"/><path fill="#f6b592" d="M 218.914062 90.804688 C 220.449219 89.007812 224.800781 88.015625 226.980469 87.988281 C 233.0625 87.914062 235.445312 94.746094 235.316406 99.957031 C 235.097656 108.988281 220.152344 116.230469 213.339844 109.40625 C 207.773438 103.835938 218.875 90.847656 218.914062 90.804688 " fill-opacity="1" fill-rule="nonzero"/><path fill="#f2f7f9" d="M 242.207031 190.449219 L 233.765625 200.566406 L 239.570312 207.820312 C 240.585938 209.085938 240.871094 210.789062 240.320312 212.316406 L 209.246094 298.699219 L 222.644531 150.316406 C 222.644531 150.316406 235.085938 151.117188 249.375 156.199219 L 243.339844 188.050781 C 243.171875 188.933594 242.78125 189.757812 242.207031 190.449219 " fill-opacity="1" fill-rule="nonzero"/><path fill="#f2f7f9" d="M 211.480469 273.121094 L 211.480469 300.996094 L 171.464844 219.066406 C 170.910156 217.9375 170.828125 216.636719 171.222656 215.441406 L 174.324219 206.132812 C 174.324219 206.132812 161.320312 196.84375 161.320312 194.964844 C 161.320312 193.46875 160.105469 170.433594 159.617188 161.382812 C 163.441406 159.015625 167.371094 156.929688 171.46875 155.363281 L 178.039062 154.042969 L 211.480469 273.121094 " fill-opacity="1" fill-rule="nonzero"/><path fill="#d89371" d="M 228.203125 377.273438 C 228.203125 377.273438 137.160156 381 137.160156 377.273438 C 137.160156 373.554688 146.445312 364.261719 152.007812 364.261719 C 157.601562 364.261719 126.003906 356.8125 116.722656 351.246094 C 107.40625 345.644531 99.96875 340.078125 99.96875 340.078125 L 99.96875 379.152344 C 99.96875 379.152344 64.683594 382.878906 66.527344 377.273438 C 68.402344 371.707031 77.683594 369.828125 79.523438 366.105469 C 81.367188 362.488281 54.460938 277.890625 51.820312 253.84375 C 51.75 253.425781 51.71875 253.042969 51.679688 252.660156 C 51.4375 249.703125 50.988281 246.539062 50.394531 243.300781 C 46.570312 222.039062 36.804688 196.84375 36.804688 196.84375 C 36.351562 195.660156 37.777344 192.597656 38.125 191.484375 C 41.046875 182.226562 46.121094 172.484375 54.460938 166.949219 C 63.535156 160.96875 74.3125 156.757812 84.566406 153.238281 C 87.867188 152.09375 91.660156 150.804688 95.375 150.285156 C 97.566406 149.933594 99.757812 149.902344 101.839844 150.316406 C 104.449219 150.839844 105.910156 151.988281 106.605469 153.414062 C 108.726562 157.730469 106.640625 163.855469 105.5625 168.203125 C 103.582031 176.207031 100.871094 184.316406 96.28125 191.238281 C 93.152344 195.972656 96.628906 211.285156 103.339844 220.4375 C 104.589844 222.105469 105.945312 223.601562 107.40625 224.75 C 108.832031 225.902344 110.359375 227.050781 111.957031 228.195312 C 120.753906 234.566406 132.019531 241.316406 144.566406 250.78125 C 151.414062 255.894531 166.882812 261.847656 183.046875 269.992188 C 202.0625 279.5625 222.015625 292.226562 230.046875 310.324219 C 230.21875 310.742188 230.429688 311.15625 230.601562 311.574219 C 244.507812 344.632812 228.203125 377.273438 228.203125 377.273438 " fill-opacity="1" fill-rule="nonzero"/><path fill="#965b3e" d="M 40.554688 232.351562 C 39.839844 231.921875 39.160156 231.28125 38.554688 230.492188 C 38.429688 230.382812 38.355469 230.277344 38.285156 230.171875 C 37.410156 229.027344 36.605469 227.5625 35.914062 225.863281 C 35.859375 225.742188 35.785156 225.597656 35.730469 225.457031 C 34.964844 223.503906 34.304688 221.292969 33.789062 218.894531 C 33.75 218.734375 33.71875 218.554688 33.679688 218.394531 C 33.679688 218.359375 33.664062 218.339844 33.664062 218.304688 C 33.644531 218.199219 33.609375 218.089844 33.589844 217.964844 C 33.394531 217.019531 33.234375 216.015625 33.089844 215.015625 C 33.058594 214.871094 33.039062 214.714844 33.019531 214.554688 C 32.949219 214.035156 32.898438 213.515625 32.824219 212.996094 C 32.804688 212.890625 32.804688 212.785156 32.789062 212.65625 C 32.734375 212.210938 32.683594 211.765625 32.644531 211.320312 C 32.644531 211.140625 32.628906 210.960938 32.609375 210.78125 C 32.554688 210.175781 32.519531 209.546875 32.5 208.921875 C 32.484375 208.761719 32.484375 208.585938 32.484375 208.402344 C 32.46875 208.117188 32.449219 207.816406 32.449219 207.53125 C 32.429688 207.347656 32.429688 207.171875 32.429688 206.992188 C 32.414062 205.902344 32.414062 204.8125 32.449219 203.722656 C 32.449219 203.507812 32.46875 203.292969 32.46875 203.082031 C 32.5 202.363281 32.539062 201.632812 32.609375 200.917969 C 32.628906 200.613281 32.660156 200.308594 32.683594 200.003906 C 33.535156 191.175781 36.519531 183.242188 42.429688 180.273438 C 45.410156 178.773438 49.40625 179.183594 52.355469 180.667969 C 58.640625 183.832031 61.671875 193.320312 64.082031 199.488281 C 66.621094 205.886719 68.941406 212.570312 70.296875 219.339844 C 72.152344 228.636719 49.855469 237.949219 40.554688 232.351562 " fill-opacity="1" fill-rule="nonzero"/><path fill="#e22b35" d="M 111.570312 224.878906 C 112.625 225.664062 112.785156 227.195312 111.871094 228.144531 C 102.464844 237.863281 79.949219 256.832031 49.148438 253.820312 C 49.074219 253.375 49.035156 252.964844 49 252.558594 C 48.800781 250.128906 48.46875 247.566406 48.039062 244.945312 C 47.832031 243.667969 48.714844 242.488281 49.984375 242.410156 C 62.296875 241.679688 88.078125 237.953125 102.714844 220.121094 C 103.542969 219.105469 105.050781 218.992188 105.910156 219.972656 C 106.796875 220.980469 107.722656 221.886719 108.691406 222.648438 C 109.613281 223.390625 110.578125 224.136719 111.570312 224.878906 " fill-opacity="1" fill-rule="nonzero"/><path fill="#965b3e" d="M 152.640625 365.019531 C 152.375 365.019531 152.105469 364.898438 151.933594 364.671875 C 150.050781 362.21875 147.746094 359.832031 145.511719 357.527344 C 139.285156 351.082031 132.84375 344.417969 133.222656 334.539062 C 133.261719 333.417969 133.375 332.300781 133.558594 331.203125 C 135.195312 321.210938 142.046875 314.875 152.347656 313.828125 C 162.019531 312.839844 171.847656 316.15625 178.648438 322.6875 C 179.003906 323.03125 179.015625 323.597656 178.675781 323.953125 C 178.332031 324.308594 177.769531 324.324219 177.414062 323.980469 C 170.984375 317.804688 161.683594 314.671875 152.527344 315.605469 C 142.953125 316.582031 136.839844 322.222656 135.316406 331.492188 C 135.148438 332.511719 135.046875 333.5625 135.003906 334.609375 C 134.65625 343.722656 140.832031 350.109375 146.796875 356.285156 C 149.0625 358.628906 151.402344 361.046875 153.347656 363.582031 C 153.648438 363.972656 153.574219 364.535156 153.183594 364.832031 C 153.023438 364.960938 152.832031 365.019531 152.640625 365.019531 " fill-opacity="1" fill-rule="nonzero"/><path fill="#965b3e" d="M 110.816406 262.273438 C 114.417969 258.0625 123.101562 260.734375 121.566406 266.886719 C 120.03125 273.039062 124.640625 276.113281 129.25 276.113281 C 133.859375 276.113281 127.710938 282.261719 123.101562 282.261719 C 118.496094 282.261719 101.597656 273.039062 110.816406 262.273438 " fill-opacity="1" fill-rule="nonzero"/><path fill="#965b3e" d="M 174.3125 340.078125 C 174.3125 332.183594 189.179688 334.496094 192.894531 338.21875 C 196.613281 341.9375 200.332031 349.378906 192.894531 349.378906 C 185.464844 349.378906 174.3125 353.097656 174.3125 340.078125 " fill-opacity="1" fill-rule="nonzero"/><path fill="#965b3e" d="M 230.601562 311.574219 C 229.457031 311.542969 228.0625 311.191406 226.359375 310.324219 C 218.921875 306.601562 218.921875 314.046875 209.605469 314.046875 C 200.324219 314.046875 202.199219 310.324219 200.324219 304.71875 C 198.484375 299.152344 187.324219 302.875 178.039062 300.996094 C 168.726562 299.152344 170.601562 287.984375 181.761719 282.414062 C 187.359375 279.59375 185.898438 274.445312 183.046875 269.992188 C 202.0625 279.5625 222.015625 292.226562 230.046875 310.324219 C 230.21875 310.742188 230.429688 311.15625 230.601562 311.574219 " fill-opacity="1" fill-rule="nonzero"/><path fill="#6b3f2c" d="M 81.398438 185.675781 C 82.855469 185.683594 84.257812 185.738281 85.644531 185.761719 C 87.03125 185.777344 88.394531 185.769531 89.71875 185.636719 C 91.039062 185.503906 92.324219 185.253906 93.460938 184.707031 C 94.035156 184.4375 94.566406 184.082031 95.03125 183.621094 C 95.5 183.15625 95.890625 182.59375 96.265625 181.957031 C 96.269531 182.6875 96.09375 183.4375 95.742188 184.132812 C 95.390625 184.832031 94.835938 185.433594 94.207031 185.902344 C 93.570312 186.375 92.851562 186.714844 92.121094 186.957031 C 91.390625 187.207031 90.640625 187.335938 89.894531 187.414062 C 88.398438 187.566406 86.917969 187.433594 85.492188 187.152344 C 84.066406 186.851562 82.675781 186.402344 81.398438 185.675781 " fill-opacity="1" fill-rule="nonzero"/><path fill="#6b3f2c" d="M 106.605469 153.414062 C 104.695312 154.28125 99.304688 157.042969 96.941406 156.242188 C 94.542969 155.441406 96.175781 151.742188 95.375 150.285156 C 97.566406 149.933594 99.757812 149.902344 101.839844 150.316406 C 104.449219 150.839844 105.910156 151.988281 106.605469 153.414062 " fill-opacity="1" fill-rule="nonzero"/><path fill="#965b3e" d="M 99.980469 340.96875 C 99.488281 340.96875 99.089844 340.570312 99.089844 340.078125 L 99.089844 319.617188 C 99.089844 319.121094 99.488281 318.722656 99.980469 318.722656 C 100.472656 318.722656 100.871094 319.121094 100.871094 319.617188 L 100.871094 340.078125 C 100.871094 340.570312 100.472656 340.96875 99.980469 340.96875 " fill-opacity="1" fill-rule="nonzero"/><path fill="#6b3f2c" d="M 64.996094 168.648438 C 65.277344 167.636719 67.097656 167.265625 69.0625 167.8125 C 71.03125 168.359375 72.398438 169.621094 72.117188 170.628906 C 71.835938 171.644531 70.011719 172.015625 68.046875 171.46875 C 66.082031 170.921875 64.710938 169.660156 64.996094 168.648438 " fill-opacity="1" fill-rule="nonzero"/><path fill="#d89371" d="M 220.027344 356.910156 C 220.027344 356.910156 247.664062 365.78125 260.648438 352.539062 C 273.632812 339.296875 274.605469 309.464844 266.203125 299.890625 C 266.203125 299.890625 268.199219 337.675781 253.457031 346.234375 C 238.714844 354.796875 221.523438 341.292969 221.523438 341.292969 L 220.027344 356.910156 " fill-opacity="1" fill-rule="nonzero"/><path fill="#f6b592" d="M 55.886719 299.789062 C 57.191406 303.394531 60.796875 305.746094 64.617188 305.515625 C 68.679688 305.269531 75.734375 300.09375 75.839844 295.648438 C 75.898438 293.261719 70.9375 287.300781 68.390625 289.851562 C 68.394531 289.847656 79.542969 278.6875 75.824219 274.96875 C 72.105469 271.246094 68.390625 273.109375 64.675781 273.109375 C 60.957031 273.109375 73.96875 263.808594 66.53125 260.085938 C 59.097656 256.367188 53.742188 265.054688 53.742188 265.054688 C 53.742188 265.054688 62.816406 252.644531 51.667969 252.644531 C 43.164062 252.644531 49.789062 282.929688 55.886719 299.789062 " fill-opacity="1" fill-rule="nonzero"/><g clip-path="url(#f7289ad77e)"><path fill="#4995aa" d="M 398.246094 377.90625 C 398.28125 379.820312 396.925781 381.386719 395.222656 381.417969 L 385.558594 381.558594 L 14.644531 386.953125 L 11.378906 386.988281 C 11.34375 386.988281 11.34375 386.988281 11.308594 386.988281 C 9.640625 386.988281 8.285156 385.457031 8.25 383.578125 C 8.25 382.183594 8.945312 381.003906 9.917969 380.410156 C 10.335938 380.167969 10.789062 380.027344 11.273438 380.027344 L 392.789062 374.496094 L 395.152344 374.460938 C 396.890625 374.496094 398.214844 375.957031 398.246094 377.90625 " fill-opacity="1" fill-rule="nonzero"/></g><path fill="#e57c5c" d="M 224.488281 93.292969 C 224.488281 93.292969 231.964844 92.101562 232.277344 99.242188 " fill-opacity="1" fill-rule="nonzero"/><path fill="#f6b592" d="M 337.054688 343.226562 C 337.054688 343.226562 328.613281 377.703125 321.207031 377.09375 C 313.800781 376.480469 320.199219 366.664062 316.328125 368.414062 C 313.964844 374.425781 313.628906 378.535156 308.070312 378.078125 C 302.515625 377.617188 305.386719 365.441406 305.386719 365.441406 C 305.386719 365.441406 296.792969 379.210938 293.597656 372.742188 C 290.402344 366.269531 296.464844 360.5625 296.464844 360.5625 C 296.464844 360.5625 288.378906 368.171875 286.867188 363.90625 C 285.355469 359.644531 297.914062 350.566406 297.699219 349.402344 C 297.484375 348.230469 284.347656 349.214844 288.5625 343.355469 C 292.777344 337.496094 308.101562 332.558594 308.101562 332.558594 L 337.054688 343.226562 " fill-opacity="1" fill-rule="nonzero"/><path fill="#ffdd5a" d="M 79.34375 256.777344 C 79.34375 259.78125 76.914062 262.21875 73.914062 262.21875 C 70.914062 262.21875 68.480469 259.78125 68.480469 256.777344 C 68.480469 253.773438 70.914062 251.339844 73.914062 251.339844 C 76.914062 251.339844 79.34375 253.773438 79.34375 256.777344 " fill-opacity="1" fill-rule="nonzero"/><path fill="#4a7493" d="M 178.03125 146.472656 C 177.964844 146.453125 177.894531 146.433594 177.804688 146.425781 C 177.417969 146.390625 168.566406 145.664062 161.183594 154.164062 C 150.8125 166.117188 149.644531 189.378906 157.710938 223.292969 C 157.90625 224.117188 158.640625 224.671875 159.445312 224.671875 C 159.582031 224.671875 159.722656 224.652344 159.859375 224.621094 C 160.820312 224.390625 161.410156 223.429688 161.183594 222.46875 C 151.511719 181.789062 157.273438 164.183594 163.816406 156.582031 C 169.949219 149.453125 177.507812 149.988281 177.871094 150.019531 C 177.9375 150.023438 177.980469 150.011719 178.03125 150.007812 L 178.03125 146.472656 " fill-opacity="1" fill-rule="nonzero"/><path fill="#4a7493" d="M 222.519531 144.210938 L 222.4375 144.875 L 222.539062 147.828125 C 226.660156 148.535156 254.660156 154.820312 258.015625 195.125 L 261.574219 194.832031 C 257.78125 149.269531 222.871094 144.253906 222.519531 144.210938 " fill-opacity="1" fill-rule="nonzero"/><path fill="#567d9b" d="M 170.253906 229.863281 C 170.253906 234.6875 166.046875 238.59375 160.859375 238.59375 C 155.667969 238.59375 151.464844 234.6875 151.464844 229.863281 C 151.464844 225.039062 155.667969 221.132812 160.859375 221.132812 C 166.046875 221.132812 170.253906 225.039062 170.253906 229.863281 " fill-opacity="1" fill-rule="nonzero"/><path fill="#9acded" d="M 163.542969 229.191406 C 163.542969 230.675781 162.339844 231.878906 160.859375 231.878906 C 159.378906 231.878906 158.171875 230.675781 158.171875 229.191406 C 158.171875 227.710938 159.378906 226.503906 160.859375 226.503906 C 162.339844 226.503906 163.542969 227.710938 163.542969 229.191406 " fill-opacity="1" fill-rule="nonzero"/><path fill="#4a7493" d="M 249.273438 235.324219 C 248.980469 234.234375 242.117188 208.417969 250.15625 197.320312 C 252.414062 194.199219 255.617188 192.511719 259.675781 192.300781 C 280.636719 191.257812 287.765625 227.621094 288.054688 229.175781 L 285.425781 229.667969 C 285.359375 229.3125 278.535156 194.011719 259.8125 194.976562 C 256.5625 195.144531 254.113281 196.425781 252.324219 198.894531 C 245.035156 208.957031 251.792969 234.367188 251.859375 234.621094 L 249.273438 235.324219 " fill-opacity="1" fill-rule="nonzero"/><path fill="#416d87" d="M 289.527344 229.394531 C 289.527344 230.933594 288.28125 232.183594 286.738281 232.183594 C 285.199219 232.183594 283.953125 230.933594 283.953125 229.394531 C 283.953125 227.851562 285.199219 226.601562 286.738281 226.601562 C 288.28125 226.601562 289.527344 227.851562 289.527344 229.394531 " fill-opacity="1" fill-rule="nonzero"/><path fill="#416d87" d="M 253.167969 234.972656 C 253.167969 236.515625 251.921875 237.761719 250.382812 237.761719 C 248.847656 237.761719 247.59375 236.515625 247.59375 234.972656 C 247.59375 233.433594 248.847656 232.183594 250.382812 232.183594 C 251.921875 232.183594 253.167969 233.433594 253.167969 234.972656 " fill-opacity="1" fill-rule="nonzero"/><path fill="#515151" d="M 48.125 219.539062 C 44.339844 222.683594 41.125 226.347656 38.554688 230.492188 C 38.429688 230.382812 38.355469 230.277344 38.285156 230.171875 C 40.839844 226.117188 44.019531 222.523438 47.75 219.433594 C 47.839844 219.339844 48.265625 219.414062 48.125 219.539062 " fill-opacity="1" fill-rule="nonzero"/><path fill="#515151" d="M 45.109375 215.230469 C 41.625 218.429688 38.554688 221.96875 35.914062 225.863281 C 35.859375 225.742188 35.785156 225.597656 35.730469 225.457031 C 38.304688 221.699219 41.304688 218.269531 44.679688 215.160156 C 44.785156 215.070312 45.179688 215.160156 45.109375 215.230469 " fill-opacity="1" fill-rule="nonzero"/><path fill="#515151" d="M 41.929688 211.175781 C 38.945312 213.5 36.234375 216.074219 33.789062 218.894531 C 33.75 218.734375 33.71875 218.554688 33.679688 218.394531 C 36.039062 215.695312 38.660156 213.226562 41.535156 210.996094 C 41.640625 210.925781 42.015625 211.105469 41.929688 211.175781 " fill-opacity="1" fill-rule="nonzero"/><path fill="#515151" d="M 38.304688 208.636719 C 36.390625 209.996094 34.574219 211.441406 32.824219 212.996094 C 32.804688 212.890625 32.804688 212.785156 32.789062 212.65625 C 34.449219 211.210938 36.179688 209.851562 37.984375 208.566406 C 38.070312 208.492188 38.5 208.511719 38.304688 208.636719 " fill-opacity="1" fill-rule="nonzero"/><path fill="#515151" d="M 35.324219 206.367188 C 34.339844 207.171875 33.394531 208.011719 32.5 208.921875 C 32.484375 208.761719 32.484375 208.585938 32.484375 208.402344 C 33.25 207.65625 34.074219 206.921875 34.914062 206.242188 C 35.019531 206.152344 35.414062 206.296875 35.324219 206.367188 " fill-opacity="1" fill-rule="nonzero"/><path fill="#fcfcfc" d="M 54.015625 248.492188 C 58.785156 248.289062 63.660156 247.785156 68.292969 246.621094 C 69.757812 246.253906 71.21875 245.808594 72.5625 245.109375 C 72.695312 245.039062 72.289062 244.945312 72.179688 245 C 69.570312 246.371094 66.496094 246.894531 63.613281 247.34375 C 60.949219 247.761719 58.257812 248.039062 55.566406 248.21875 C 55.011719 248.257812 54.460938 248.292969 53.90625 248.316406 C 53.601562 248.328125 53.824219 248.5 54.015625 248.492188 " fill-opacity="1" fill-rule="nonzero"/><path fill="#fcfcfc" d="M 74.554688 253.175781 C 77.578125 253.796875 78.636719 257.460938 76.738281 259.769531 C 76.65625 259.867188 77.070312 260.003906 77.152344 259.902344 C 79.273438 257.324219 77.753906 253.652344 74.589844 253 C 74.335938 252.949219 74.296875 253.125 74.554688 253.175781 " fill-opacity="1" fill-rule="nonzero"/><path fill="#965b3e" d="M 93.660156 161.535156 C 93.710938 161.484375 93.761719 161.433594 93.808594 161.386719 C 93.929688 161.261719 94.039062 161.136719 93.925781 160.96875 C 93.808594 160.792969 93.472656 160.707031 93.292969 160.675781 C 92.957031 160.617188 92.597656 160.613281 92.257812 160.671875 C 92.15625 160.695312 92.046875 160.71875 91.945312 160.742188 C 91.773438 160.785156 91.617188 160.859375 91.472656 160.957031 C 91.425781 161.007812 91.375 161.058594 91.324219 161.109375 C 91.199219 161.230469 91.09375 161.351562 91.210938 161.527344 C 91.328125 161.699219 91.660156 161.785156 91.839844 161.816406 C 92.179688 161.871094 92.535156 161.878906 92.871094 161.820312 C 92.980469 161.796875 93.082031 161.773438 93.191406 161.75 C 93.359375 161.707031 93.515625 161.636719 93.660156 161.535156 " fill-opacity="1" fill-rule="nonzero"/><path fill="#965b3e" d="M 88.800781 166.351562 C 89.207031 166.351562 90.214844 166.203125 90.367188 165.726562 C 90.53125 165.214844 89.605469 165.222656 89.34375 165.222656 C 88.933594 165.222656 87.925781 165.371094 87.773438 165.847656 C 87.609375 166.359375 88.539062 166.351562 88.800781 166.351562 " fill-opacity="1" fill-rule="nonzero"/><path fill="#965b3e" d="M 92.945312 165.085938 C 92.894531 165.132812 92.847656 165.183594 92.796875 165.234375 C 92.675781 165.355469 92.597656 165.511719 92.722656 165.660156 C 92.851562 165.824219 93.195312 165.878906 93.375 165.894531 C 93.714844 165.917969 94.074219 165.894531 94.402344 165.800781 C 94.664062 165.730469 94.96875 165.644531 95.160156 165.445312 C 95.210938 165.398438 95.261719 165.347656 95.3125 165.300781 C 95.433594 165.179688 95.511719 165.023438 95.390625 164.871094 C 95.253906 164.707031 94.914062 164.65625 94.730469 164.640625 C 94.390625 164.613281 94.035156 164.636719 93.703125 164.726562 C 93.445312 164.800781 93.140625 164.890625 92.945312 165.085938 " fill-opacity="1" fill-rule="nonzero"/></svg>